%TF.GenerationSoftware,KiCad,Pcbnew,9.0.6+1*%
%TF.CreationDate,2025-12-11T16:55:29+00:00*%
%TF.ProjectId,KDT_Hierarchical_KiBot,4b44545f-4869-4657-9261-726368696361,+ (Unreleased)*%
%TF.SameCoordinates,Original*%
%TF.FileFunction,Soldermask,Bot*%
%TF.FilePolarity,Negative*%
%FSLAX46Y46*%
G04 Gerber Fmt 4.6, Leading zero omitted, Abs format (unit mm)*
G04 Created by KiCad (PCBNEW 9.0.6+1) date 2025-12-11 16:55:29*
%MOMM*%
%LPD*%
G01*
G04 APERTURE LIST*
G04 Aperture macros list*
%AMRoundRect*
0 Rectangle with rounded corners*
0 $1 Rounding radius*
0 $2 $3 $4 $5 $6 $7 $8 $9 X,Y pos of 4 corners*
0 Add a 4 corners polygon primitive as box body*
4,1,4,$2,$3,$4,$5,$6,$7,$8,$9,$2,$3,0*
0 Add four circle primitives for the rounded corners*
1,1,$1+$1,$2,$3*
1,1,$1+$1,$4,$5*
1,1,$1+$1,$6,$7*
1,1,$1+$1,$8,$9*
0 Add four rect primitives between the rounded corners*
20,1,$1+$1,$2,$3,$4,$5,0*
20,1,$1+$1,$4,$5,$6,$7,0*
20,1,$1+$1,$6,$7,$8,$9,0*
20,1,$1+$1,$8,$9,$2,$3,0*%
G04 Aperture macros list end*
%ADD10O,1.600000X2.100000*%
%ADD11C,2.100000*%
%ADD12RoundRect,0.050000X0.850000X0.850000X-0.850000X0.850000X-0.850000X-0.850000X0.850000X-0.850000X0*%
%ADD13O,1.800000X1.800000*%
%ADD14RoundRect,0.050000X-0.850000X-0.850000X0.850000X-0.850000X0.850000X0.850000X-0.850000X0.850000X0*%
%ADD15RoundRect,0.050000X0.800000X-0.800000X0.800000X0.800000X-0.800000X0.800000X-0.800000X-0.800000X0*%
%ADD16C,1.700000*%
%ADD17C,4.100000*%
%ADD18C,2.800000*%
%ADD19RoundRect,0.050000X0.850000X-0.850000X0.850000X0.850000X-0.850000X0.850000X-0.850000X-0.850000X0*%
%ADD20C,1.100000*%
G04 APERTURE END LIST*
D10*
%TO.C,J1*%
X117673600Y-86894800D03*
D11*
X122073600Y-86894800D03*
%TD*%
D12*
%TO.C,J3*%
X130773600Y-85194800D03*
D13*
X130773600Y-82654800D03*
X130773600Y-80114800D03*
X130773600Y-77574800D03*
X130773600Y-75034800D03*
%TD*%
D14*
%TO.C,J6*%
X135443600Y-82910800D03*
D13*
X135443600Y-85450800D03*
X135443600Y-87990800D03*
X135443600Y-90530800D03*
X135443600Y-93070800D03*
X135443600Y-95610800D03*
%TD*%
D15*
%TO.C,J2*%
X167955600Y-87228800D03*
D16*
X167955600Y-89728800D03*
X169955600Y-89728800D03*
X169955600Y-87228800D03*
D17*
X172815600Y-82478800D03*
X172815600Y-94478800D03*
%TD*%
D18*
%TO.C,H4*%
X171473600Y-75194800D03*
%TD*%
%TO.C,H2*%
X117473600Y-102694800D03*
%TD*%
%TO.C,H3*%
X117473600Y-75194800D03*
%TD*%
D19*
%TO.C,J5*%
X135596000Y-103459400D03*
D13*
X135596000Y-100919400D03*
X138136000Y-103459400D03*
X138136000Y-100919400D03*
X140676000Y-103459400D03*
X140676000Y-100919400D03*
%TD*%
D18*
%TO.C,H1*%
X171473600Y-102694800D03*
%TD*%
D14*
%TO.C,J4*%
X146365600Y-100944800D03*
D13*
X148905600Y-100944800D03*
X146365600Y-103484800D03*
X148905600Y-103484800D03*
%TD*%
D20*
%TO.C,TP3*%
X167955600Y-84180800D03*
%TD*%
%TO.C,TP2*%
X162266000Y-85857200D03*
%TD*%
%TO.C,TP6*%
X158760800Y-75748000D03*
%TD*%
%TO.C,TP5*%
X173543600Y-89768800D03*
%TD*%
%TO.C,TP8*%
X147965800Y-75722600D03*
%TD*%
%TO.C,TP9*%
X150429600Y-90276800D03*
%TD*%
%TO.C,TP4*%
X173543600Y-86466800D03*
%TD*%
M02*
