%TF.GenerationSoftware,KiCad,Pcbnew,9.0.6+1*%
%TF.CreationDate,2025-12-12T13:07:37+00:00*%
%TF.ProjectId,KDT_Hierarchical_KiBot,4b44545f-4869-4657-9261-726368696361,0.1.1*%
%TF.SameCoordinates,Original*%
%TF.FileFunction,Copper,L2,Inr*%
%TF.FilePolarity,Positive*%
%FSLAX46Y46*%
G04 Gerber Fmt 4.6, Leading zero omitted, Abs format (unit mm)*
G04 Created by KiCad (PCBNEW 9.0.6+1) date 2025-12-12 13:07:37*
%MOMM*%
%LPD*%
G01*
G04 APERTURE LIST*
%TA.AperFunction,ComponentPad*%
%ADD10R,1.700000X1.700000*%
%TD*%
%TA.AperFunction,ComponentPad*%
%ADD11O,1.700000X1.700000*%
%TD*%
%TA.AperFunction,ComponentPad*%
%ADD12R,1.600000X1.600000*%
%TD*%
%TA.AperFunction,ComponentPad*%
%ADD13C,1.600000*%
%TD*%
%TA.AperFunction,ComponentPad*%
%ADD14C,4.000000*%
%TD*%
%TA.AperFunction,ViaPad*%
%ADD15C,0.800000*%
%TD*%
%TA.AperFunction,Conductor*%
%ADD16C,0.508000*%
%TD*%
G04 APERTURE END LIST*
D10*
%TO.N,Net-(J3-Pin_1)*%
%TO.C,J3*%
X130773600Y-85194800D03*
D11*
%TO.N,Net-(J3-Pin_2)*%
X130773600Y-82654800D03*
%TO.N,Net-(J3-Pin_3)*%
X130773600Y-80114800D03*
%TO.N,Net-(J3-Pin_4)*%
X130773600Y-77574800D03*
%TO.N,Net-(J3-Pin_5)*%
X130773600Y-75034800D03*
%TD*%
D10*
%TO.N,Net-(J6-Pin_1)*%
%TO.C,J6*%
X135443600Y-82910800D03*
D11*
%TO.N,Net-(J6-Pin_2)*%
X135443600Y-85450800D03*
%TO.N,Net-(J6-Pin_3)*%
X135443600Y-87990800D03*
%TO.N,Net-(J6-Pin_4)*%
X135443600Y-90530800D03*
%TO.N,Net-(J6-Pin_5)*%
X135443600Y-93070800D03*
%TO.N,Net-(J6-Pin_6)*%
X135443600Y-95610800D03*
%TD*%
D12*
%TO.N,Net-(J2-VBUS)*%
%TO.C,J2*%
X167955600Y-87228800D03*
D13*
%TO.N,Net-(J2-D-)*%
X167955600Y-89728800D03*
%TO.N,Net-(J2-D+)*%
X169955600Y-89728800D03*
%TO.N,Earth*%
X169955600Y-87228800D03*
D14*
%TO.N,Net-(J2-Shield)*%
X172815600Y-82478800D03*
X172815600Y-94478800D03*
%TD*%
D10*
%TO.N,/MISO2*%
%TO.C,J5*%
X135596000Y-103459400D03*
D11*
%TO.N,+5V*%
X135596000Y-100919400D03*
%TO.N,/SCK2*%
X138136000Y-103459400D03*
%TO.N,/MOSI2*%
X138136000Y-100919400D03*
%TO.N,/RESET2*%
X140676000Y-103459400D03*
%TO.N,GND*%
X140676000Y-100919400D03*
%TD*%
D10*
%TO.N,Net-(J4-Pin_1)*%
%TO.C,J4*%
X146365600Y-100944800D03*
D11*
%TO.N,Net-(J4-Pin_2)*%
X148905600Y-100944800D03*
%TO.N,Net-(J4-Pin_3)*%
X146365600Y-103484800D03*
%TO.N,Net-(J4-Pin_4)*%
X148905600Y-103484800D03*
%TD*%
D15*
%TO.N,GND*%
X150150200Y-88752800D03*
X158303600Y-82453600D03*
X123556400Y-79075400D03*
X117562000Y-83825200D03*
X139304400Y-90759400D03*
X117587400Y-79024600D03*
X119822600Y-96601400D03*
X161732600Y-103637200D03*
X125283600Y-101046400D03*
X123581800Y-83647400D03*
X148829400Y-81488400D03*
%TO.N,Net-(J2-Shield)*%
X166863400Y-93832800D03*
X164933000Y-86111200D03*
X165034600Y-96372800D03*
%TO.N,+5V*%
X153655400Y-87660600D03*
X117612800Y-90099000D03*
X154315800Y-104297600D03*
X123581800Y-89997400D03*
X140498200Y-74935200D03*
X125309000Y-94594800D03*
X116038000Y-95026600D03*
X149007200Y-88981400D03*
%TO.N,Net-(U1-XTAL1)*%
X157236800Y-75697200D03*
%TO.N,Net-(U1-PC0{slash}XTAL2)*%
X149515200Y-75773400D03*
%TO.N,Earth*%
X155027000Y-91927800D03*
X155154000Y-86847800D03*
X161351600Y-94467800D03*
X161707200Y-99217600D03*
X159522800Y-96144200D03*
%TO.N,VBUS*%
X160208600Y-85857200D03*
%TO.N,Net-(J3-Pin_4)*%
X151369400Y-93248600D03*
%TO.N,Net-(J3-Pin_3)*%
X150632800Y-94086800D03*
%TO.N,Net-(J3-Pin_2)*%
X150759800Y-97388800D03*
%TO.N,Net-(J3-Pin_1)*%
X149540600Y-94290000D03*
%TO.N,Net-(J6-Pin_3)*%
X144613000Y-87584400D03*
%TO.N,Net-(J6-Pin_5)*%
X146543400Y-92918400D03*
%TO.N,Net-(J6-Pin_6)*%
X147153000Y-94010600D03*
%TO.N,Net-(J6-Pin_4)*%
X146162700Y-91546800D03*
%TO.N,Net-(J6-Pin_2)*%
X143068711Y-91084489D03*
%TO.N,Net-(U1-D-)*%
X150429600Y-91470602D03*
%TD*%
D16*
%TO.N,Net-(J2-Shield)*%
X175651800Y-83622000D02*
X175651800Y-91642600D01*
X172815600Y-82478800D02*
X174508600Y-82478800D01*
X164933000Y-86111200D02*
X166126800Y-84917400D01*
X166863400Y-94544000D02*
X165034600Y-96372800D01*
X170377000Y-84917400D02*
X172815600Y-82478800D01*
X175651800Y-91642600D02*
X172815600Y-94478800D01*
X166863400Y-93832800D02*
X166863400Y-94544000D01*
X166863400Y-93832800D02*
X172169600Y-93832800D01*
X172169600Y-93832800D02*
X172815600Y-94478800D01*
X166126800Y-84917400D02*
X170377000Y-84917400D01*
X174508600Y-82478800D02*
X175651800Y-83622000D01*
%TO.N,Earth*%
X155941400Y-91927800D02*
X158811600Y-91927800D01*
X171562400Y-88835600D02*
X171562400Y-90683200D01*
X164196400Y-91648400D02*
X161377000Y-94467800D01*
X161707200Y-99217600D02*
X161707200Y-94823400D01*
X161199200Y-94467800D02*
X159522800Y-96144200D01*
X161377000Y-94467800D02*
X161351600Y-94467800D01*
X170597200Y-91648400D02*
X164196400Y-91648400D01*
X169955600Y-87228800D02*
X171562400Y-88835600D01*
X161351600Y-94467800D02*
X161199200Y-94467800D01*
X155027000Y-91927800D02*
X155941400Y-91927800D01*
X161707200Y-94823400D02*
X161351600Y-94467800D01*
X158811600Y-91927800D02*
X161351600Y-94467800D01*
X171562400Y-90683200D02*
X170597200Y-91648400D01*
X155154000Y-91140400D02*
X155941400Y-91927800D01*
X155154000Y-86847800D02*
X155154000Y-91140400D01*
%TD*%
%TA.AperFunction,Conductor*%
%TO.N,Net-(J2-Shield)*%
G36*
X171172628Y-92430402D02*
G01*
X171219121Y-92484058D01*
X171228182Y-92532173D01*
X172200342Y-93504333D01*
X172066425Y-93601629D01*
X171938429Y-93729625D01*
X171841133Y-93863542D01*
X170871587Y-92893996D01*
X170871585Y-92893996D01*
X170766956Y-93025195D01*
X170766952Y-93025201D01*
X170617082Y-93263717D01*
X170494863Y-93517508D01*
X170494852Y-93517535D01*
X170401823Y-93783395D01*
X170339139Y-94058028D01*
X170307600Y-94337952D01*
X170307600Y-94619647D01*
X170339139Y-94899571D01*
X170401823Y-95174204D01*
X170494852Y-95440064D01*
X170494863Y-95440091D01*
X170617082Y-95693882D01*
X170766952Y-95932398D01*
X170766956Y-95932404D01*
X170871585Y-96063602D01*
X170871586Y-96063603D01*
X171841132Y-95094057D01*
X171938429Y-95227975D01*
X172066425Y-95355971D01*
X172200341Y-95453266D01*
X171230795Y-96422812D01*
X171230796Y-96422813D01*
X171361995Y-96527443D01*
X171362001Y-96527447D01*
X171600513Y-96677314D01*
X171683913Y-96717478D01*
X171736609Y-96765056D01*
X171755217Y-96833570D01*
X171733829Y-96901269D01*
X171679236Y-96946658D01*
X171629243Y-96957000D01*
X164601800Y-96957000D01*
X164533679Y-96936998D01*
X164487186Y-96883342D01*
X164475800Y-96831000D01*
X164475800Y-92536400D01*
X164495802Y-92468279D01*
X164549458Y-92421786D01*
X164601800Y-92410400D01*
X171104507Y-92410400D01*
X171172628Y-92430402D01*
G37*
%TD.AperFunction*%
%TA.AperFunction,Conductor*%
G36*
X171420197Y-80118942D02*
G01*
X171488276Y-80139087D01*
X171534657Y-80192839D01*
X171544614Y-80263134D01*
X171514986Y-80327653D01*
X171486970Y-80351629D01*
X171362001Y-80430152D01*
X171361995Y-80430156D01*
X171230796Y-80534785D01*
X171230796Y-80534787D01*
X172200342Y-81504333D01*
X172066425Y-81601629D01*
X171938429Y-81729625D01*
X171841133Y-81863542D01*
X170871587Y-80893996D01*
X170871585Y-80893996D01*
X170766956Y-81025195D01*
X170766952Y-81025201D01*
X170617082Y-81263717D01*
X170494863Y-81517508D01*
X170494852Y-81517535D01*
X170401823Y-81783395D01*
X170339139Y-82058028D01*
X170307600Y-82337952D01*
X170307600Y-82619647D01*
X170339139Y-82899571D01*
X170401823Y-83174204D01*
X170494852Y-83440064D01*
X170494863Y-83440091D01*
X170617082Y-83693882D01*
X170766952Y-83932398D01*
X170766956Y-83932404D01*
X170871585Y-84063602D01*
X170871586Y-84063603D01*
X171841132Y-83094057D01*
X171938429Y-83227975D01*
X172066425Y-83355971D01*
X172200341Y-83453266D01*
X171230795Y-84422812D01*
X171230796Y-84422813D01*
X171361995Y-84527443D01*
X171362001Y-84527447D01*
X171600517Y-84677317D01*
X171854308Y-84799536D01*
X171854335Y-84799547D01*
X172120195Y-84892576D01*
X172394829Y-84955260D01*
X172394826Y-84955260D01*
X172674752Y-84986800D01*
X172956448Y-84986800D01*
X173236371Y-84955260D01*
X173511004Y-84892576D01*
X173776864Y-84799547D01*
X173776891Y-84799536D01*
X174030682Y-84677316D01*
X174269187Y-84527455D01*
X174269196Y-84527448D01*
X174400402Y-84422813D01*
X174400403Y-84422812D01*
X173430857Y-83453266D01*
X173564775Y-83355971D01*
X173692771Y-83227975D01*
X173790066Y-83094057D01*
X174759612Y-84063603D01*
X174759613Y-84063602D01*
X174864248Y-83932396D01*
X174864255Y-83932387D01*
X175014116Y-83693882D01*
X175136336Y-83440091D01*
X175136347Y-83440064D01*
X175229376Y-83174204D01*
X175292060Y-82899571D01*
X175323600Y-82619647D01*
X175323600Y-82337952D01*
X175292060Y-82058028D01*
X175229376Y-81783395D01*
X175136347Y-81517535D01*
X175136336Y-81517508D01*
X175014117Y-81263717D01*
X174864247Y-81025201D01*
X174864243Y-81025195D01*
X174759613Y-80893996D01*
X174759612Y-80893995D01*
X173790066Y-81863541D01*
X173692771Y-81729625D01*
X173564775Y-81601629D01*
X173430857Y-81504332D01*
X174400403Y-80534786D01*
X174400402Y-80534785D01*
X174269204Y-80430156D01*
X174269198Y-80430152D01*
X174153533Y-80357475D01*
X174106495Y-80304297D01*
X174095675Y-80234129D01*
X174124508Y-80169251D01*
X174183840Y-80130260D01*
X174220825Y-80124788D01*
X176322367Y-80129176D01*
X176390442Y-80149319D01*
X176436823Y-80203072D01*
X176448100Y-80255175D01*
X176448100Y-96831000D01*
X176428098Y-96899121D01*
X176374442Y-96945614D01*
X176322100Y-96957000D01*
X174001957Y-96957000D01*
X173933836Y-96936998D01*
X173887343Y-96883342D01*
X173877239Y-96813068D01*
X173906733Y-96748488D01*
X173947287Y-96717478D01*
X174030686Y-96677314D01*
X174269187Y-96527455D01*
X174269196Y-96527448D01*
X174400402Y-96422813D01*
X174400403Y-96422812D01*
X173430857Y-95453266D01*
X173564775Y-95355971D01*
X173692771Y-95227975D01*
X173790066Y-95094057D01*
X174759612Y-96063603D01*
X174759613Y-96063602D01*
X174864248Y-95932396D01*
X174864255Y-95932387D01*
X175014116Y-95693882D01*
X175136336Y-95440091D01*
X175136347Y-95440064D01*
X175229376Y-95174204D01*
X175292060Y-94899571D01*
X175323600Y-94619647D01*
X175323600Y-94337952D01*
X175292060Y-94058028D01*
X175229376Y-93783395D01*
X175136347Y-93517535D01*
X175136336Y-93517508D01*
X175014117Y-93263717D01*
X174864247Y-93025201D01*
X174864243Y-93025195D01*
X174759613Y-92893996D01*
X174759612Y-92893995D01*
X173790066Y-93863541D01*
X173692771Y-93729625D01*
X173564775Y-93601629D01*
X173430857Y-93504332D01*
X174400402Y-92534787D01*
X174400006Y-92527720D01*
X174416157Y-92458584D01*
X174436982Y-92431291D01*
X174457998Y-92410400D01*
X174458000Y-92410400D01*
X174496303Y-86047701D01*
X164436187Y-86022612D01*
X164368116Y-86002440D01*
X164321757Y-85948668D01*
X164310501Y-85896608D01*
X164310695Y-80230356D01*
X164330699Y-80162239D01*
X164384357Y-80115748D01*
X164436955Y-80104363D01*
X171420197Y-80118942D01*
G37*
%TD.AperFunction*%
%TD*%
%TA.AperFunction,Conductor*%
%TO.N,GND*%
G36*
X176390221Y-71440302D02*
G01*
X176436714Y-71493958D01*
X176448100Y-71546300D01*
X176448100Y-79609800D01*
X176428098Y-79677921D01*
X176374442Y-79724414D01*
X176322100Y-79735800D01*
X164018600Y-79735800D01*
X164018600Y-84613600D01*
X163998598Y-84681721D01*
X163944942Y-84728214D01*
X163892600Y-84739600D01*
X152817200Y-84739600D01*
X152881390Y-101782999D01*
X152881391Y-101783000D01*
X164487808Y-101783000D01*
X164487809Y-101783000D01*
X164476961Y-97698821D01*
X164476136Y-97388135D01*
X164495958Y-97319961D01*
X164549489Y-97273326D01*
X164602136Y-97261800D01*
X176322100Y-97261800D01*
X176390221Y-97281802D01*
X176436714Y-97335458D01*
X176448100Y-97387800D01*
X176448100Y-106843300D01*
X176428098Y-106911421D01*
X176374442Y-106957914D01*
X176322100Y-106969300D01*
X113649190Y-106969300D01*
X113581069Y-106949298D01*
X113534576Y-106895642D01*
X113523190Y-106843483D01*
X113517088Y-102568838D01*
X115873100Y-102568838D01*
X115873100Y-102820762D01*
X115907099Y-103035419D01*
X115912511Y-103069590D01*
X115955130Y-103200757D01*
X115990359Y-103309179D01*
X116104730Y-103533645D01*
X116252807Y-103737456D01*
X116252809Y-103737458D01*
X116252811Y-103737461D01*
X116430938Y-103915588D01*
X116430941Y-103915590D01*
X116430944Y-103915593D01*
X116634755Y-104063670D01*
X116859221Y-104178041D01*
X117098815Y-104255890D01*
X117347638Y-104295300D01*
X117347641Y-104295300D01*
X117599559Y-104295300D01*
X117599562Y-104295300D01*
X117848385Y-104255890D01*
X118087979Y-104178041D01*
X118312445Y-104063670D01*
X118516256Y-103915593D01*
X118694393Y-103737456D01*
X118842470Y-103533645D01*
X118956841Y-103309179D01*
X119034690Y-103069585D01*
X119074100Y-102820762D01*
X119074100Y-102584330D01*
X134491500Y-102584330D01*
X134491500Y-104334463D01*
X134491501Y-104334473D01*
X134506265Y-104408700D01*
X134562516Y-104492884D01*
X134646697Y-104549133D01*
X134646699Y-104549134D01*
X134720933Y-104563900D01*
X136471066Y-104563899D01*
X136471069Y-104563898D01*
X136471073Y-104563898D01*
X136520326Y-104554101D01*
X136545301Y-104549134D01*
X136629484Y-104492884D01*
X136685734Y-104408701D01*
X136700500Y-104334467D01*
X136700499Y-103372474D01*
X137031500Y-103372474D01*
X137031500Y-103546326D01*
X137046828Y-103643100D01*
X137058698Y-103718042D01*
X137081825Y-103789221D01*
X137112420Y-103883381D01*
X137128833Y-103915593D01*
X137191349Y-104038287D01*
X137293536Y-104178935D01*
X137416464Y-104301863D01*
X137461342Y-104334469D01*
X137557116Y-104404053D01*
X137712019Y-104482980D01*
X137877362Y-104536703D01*
X138049074Y-104563900D01*
X138049077Y-104563900D01*
X138222923Y-104563900D01*
X138222926Y-104563900D01*
X138394638Y-104536703D01*
X138559981Y-104482980D01*
X138714884Y-104404053D01*
X138855533Y-104301865D01*
X138978465Y-104178933D01*
X139080653Y-104038284D01*
X139159580Y-103883381D01*
X139213303Y-103718038D01*
X139240500Y-103546326D01*
X139240500Y-103372474D01*
X139213303Y-103200762D01*
X139159580Y-103035419D01*
X139080653Y-102880516D01*
X138978465Y-102739867D01*
X138978463Y-102739864D01*
X138855535Y-102616936D01*
X138714887Y-102514749D01*
X138714886Y-102514748D01*
X138714884Y-102514747D01*
X138559981Y-102435820D01*
X138559978Y-102435819D01*
X138559976Y-102435818D01*
X138394642Y-102382098D01*
X138394640Y-102382097D01*
X138394638Y-102382097D01*
X138222926Y-102354900D01*
X138049074Y-102354900D01*
X137877362Y-102382097D01*
X137877360Y-102382097D01*
X137877357Y-102382098D01*
X137712023Y-102435818D01*
X137712017Y-102435821D01*
X137557112Y-102514749D01*
X137416464Y-102616936D01*
X137293536Y-102739864D01*
X137191349Y-102880512D01*
X137112421Y-103035417D01*
X137112418Y-103035423D01*
X137058698Y-103200757D01*
X137058697Y-103200760D01*
X137058697Y-103200762D01*
X137031500Y-103372474D01*
X136700499Y-103372474D01*
X136700499Y-102584334D01*
X136700498Y-102584330D01*
X136700498Y-102584326D01*
X136685734Y-102510099D01*
X136653074Y-102461221D01*
X136629484Y-102425916D01*
X136629483Y-102425915D01*
X136545302Y-102369666D01*
X136471067Y-102354900D01*
X134720936Y-102354900D01*
X134720926Y-102354901D01*
X134646699Y-102369665D01*
X134562515Y-102425916D01*
X134506266Y-102510097D01*
X134491500Y-102584330D01*
X119074100Y-102584330D01*
X119074100Y-102568838D01*
X119034690Y-102320015D01*
X118956841Y-102080421D01*
X118842470Y-101855955D01*
X118694393Y-101652144D01*
X118694390Y-101652141D01*
X118694388Y-101652138D01*
X118516261Y-101474011D01*
X118516258Y-101474009D01*
X118516256Y-101474007D01*
X118336464Y-101343381D01*
X118312448Y-101325932D01*
X118312447Y-101325931D01*
X118312445Y-101325930D01*
X118087979Y-101211559D01*
X118087976Y-101211558D01*
X118087974Y-101211557D01*
X117848390Y-101133711D01*
X117848386Y-101133710D01*
X117848385Y-101133710D01*
X117599562Y-101094300D01*
X117347638Y-101094300D01*
X117098815Y-101133710D01*
X117098809Y-101133711D01*
X116859225Y-101211557D01*
X116859219Y-101211560D01*
X116634751Y-101325932D01*
X116430941Y-101474009D01*
X116430938Y-101474011D01*
X116252811Y-101652138D01*
X116252809Y-101652141D01*
X116104732Y-101855951D01*
X115990360Y-102080419D01*
X115990357Y-102080425D01*
X115912511Y-102320009D01*
X115912510Y-102320014D01*
X115912510Y-102320015D01*
X115873100Y-102568838D01*
X113517088Y-102568838D01*
X113514609Y-100832474D01*
X134491500Y-100832474D01*
X134491500Y-101006326D01*
X134518697Y-101178038D01*
X134518698Y-101178042D01*
X134572369Y-101343226D01*
X134572420Y-101343381D01*
X134651347Y-101498284D01*
X134651349Y-101498287D01*
X134753536Y-101638935D01*
X134876464Y-101761863D01*
X134876467Y-101761865D01*
X135017116Y-101864053D01*
X135172019Y-101942980D01*
X135337362Y-101996703D01*
X135509074Y-102023900D01*
X135509077Y-102023900D01*
X135682923Y-102023900D01*
X135682926Y-102023900D01*
X135854638Y-101996703D01*
X136019981Y-101942980D01*
X136174884Y-101864053D01*
X136315533Y-101761865D01*
X136438465Y-101638933D01*
X136540653Y-101498284D01*
X136619580Y-101343381D01*
X136673303Y-101178038D01*
X136700500Y-101006326D01*
X136700500Y-100832474D01*
X137031500Y-100832474D01*
X137031500Y-101006326D01*
X137058697Y-101178038D01*
X137058698Y-101178042D01*
X137112369Y-101343226D01*
X137112420Y-101343381D01*
X137191347Y-101498284D01*
X137191349Y-101498287D01*
X137293536Y-101638935D01*
X137416464Y-101761863D01*
X137416467Y-101761865D01*
X137557116Y-101864053D01*
X137712019Y-101942980D01*
X137877362Y-101996703D01*
X138049074Y-102023900D01*
X138049077Y-102023900D01*
X138222923Y-102023900D01*
X138222926Y-102023900D01*
X138394638Y-101996703D01*
X138559981Y-101942980D01*
X138714884Y-101864053D01*
X138855533Y-101761865D01*
X138978465Y-101638933D01*
X139080653Y-101498284D01*
X139159580Y-101343381D01*
X139159581Y-101343375D01*
X139159658Y-101343226D01*
X139208406Y-101291610D01*
X139277321Y-101274544D01*
X139344522Y-101297444D01*
X139388675Y-101353042D01*
X139391758Y-101361491D01*
X139417492Y-101440689D01*
X139417493Y-101440692D01*
X139514536Y-101631150D01*
X139640177Y-101804079D01*
X139791320Y-101955222D01*
X139964249Y-102080863D01*
X140154707Y-102177906D01*
X140154709Y-102177907D01*
X140233908Y-102203641D01*
X140292513Y-102243715D01*
X140320150Y-102309111D01*
X140308043Y-102379068D01*
X140260037Y-102431374D01*
X140252174Y-102435741D01*
X140097113Y-102514748D01*
X139956464Y-102616936D01*
X139833536Y-102739864D01*
X139731349Y-102880512D01*
X139652421Y-103035417D01*
X139652418Y-103035423D01*
X139598698Y-103200757D01*
X139598697Y-103200760D01*
X139598697Y-103200762D01*
X139571500Y-103372474D01*
X139571500Y-103546326D01*
X139586828Y-103643100D01*
X139598698Y-103718042D01*
X139621825Y-103789221D01*
X139652420Y-103883381D01*
X139668833Y-103915593D01*
X139731349Y-104038287D01*
X139833536Y-104178935D01*
X139956464Y-104301863D01*
X140001342Y-104334469D01*
X140097116Y-104404053D01*
X140252019Y-104482980D01*
X140417362Y-104536703D01*
X140589074Y-104563900D01*
X140589077Y-104563900D01*
X140762923Y-104563900D01*
X140762926Y-104563900D01*
X140934638Y-104536703D01*
X141099981Y-104482980D01*
X141254884Y-104404053D01*
X141395533Y-104301865D01*
X141518465Y-104178933D01*
X141620653Y-104038284D01*
X141699580Y-103883381D01*
X141753303Y-103718038D01*
X141780500Y-103546326D01*
X141780500Y-103397874D01*
X145261100Y-103397874D01*
X145261100Y-103571726D01*
X145288297Y-103743438D01*
X145288298Y-103743442D01*
X145303172Y-103789221D01*
X145342020Y-103908781D01*
X145420940Y-104063670D01*
X145420949Y-104063687D01*
X145523136Y-104204335D01*
X145646064Y-104327263D01*
X145655982Y-104334469D01*
X145786716Y-104429453D01*
X145941619Y-104508380D01*
X146106962Y-104562103D01*
X146278674Y-104589300D01*
X146278677Y-104589300D01*
X146452523Y-104589300D01*
X146452526Y-104589300D01*
X146624238Y-104562103D01*
X146789581Y-104508380D01*
X146944484Y-104429453D01*
X147085133Y-104327265D01*
X147208065Y-104204333D01*
X147310253Y-104063684D01*
X147389180Y-103908781D01*
X147442903Y-103743438D01*
X147470100Y-103571726D01*
X147470100Y-103397874D01*
X147801100Y-103397874D01*
X147801100Y-103571726D01*
X147828297Y-103743438D01*
X147828298Y-103743442D01*
X147843172Y-103789221D01*
X147882020Y-103908781D01*
X147960940Y-104063670D01*
X147960949Y-104063687D01*
X148063136Y-104204335D01*
X148186064Y-104327263D01*
X148195982Y-104334469D01*
X148326716Y-104429453D01*
X148481619Y-104508380D01*
X148646962Y-104562103D01*
X148818674Y-104589300D01*
X148818677Y-104589300D01*
X148992523Y-104589300D01*
X148992526Y-104589300D01*
X149164238Y-104562103D01*
X149329581Y-104508380D01*
X149484484Y-104429453D01*
X149625133Y-104327265D01*
X149719264Y-104233134D01*
X153661300Y-104233134D01*
X153661300Y-104362065D01*
X153685351Y-104482978D01*
X153686452Y-104488511D01*
X153735789Y-104607622D01*
X153783649Y-104679249D01*
X153807416Y-104714819D01*
X153807421Y-104714825D01*
X153898574Y-104805978D01*
X153898580Y-104805983D01*
X154005778Y-104877611D01*
X154124889Y-104926948D01*
X154251337Y-104952100D01*
X154251338Y-104952100D01*
X154380262Y-104952100D01*
X154380263Y-104952100D01*
X154506711Y-104926948D01*
X154625822Y-104877611D01*
X154733020Y-104805983D01*
X154824183Y-104714820D01*
X154895811Y-104607622D01*
X154945148Y-104488511D01*
X154970300Y-104362063D01*
X154970300Y-104233137D01*
X154945148Y-104106689D01*
X154895811Y-103987578D01*
X154824183Y-103880380D01*
X154824178Y-103880374D01*
X154733025Y-103789221D01*
X154733019Y-103789216D01*
X154655562Y-103737461D01*
X154625822Y-103717589D01*
X154506711Y-103668252D01*
X154380265Y-103643100D01*
X154380263Y-103643100D01*
X154251337Y-103643100D01*
X154251334Y-103643100D01*
X154124888Y-103668252D01*
X154124883Y-103668254D01*
X154005778Y-103717589D01*
X153898580Y-103789216D01*
X153898574Y-103789221D01*
X153807421Y-103880374D01*
X153807416Y-103880380D01*
X153735789Y-103987578D01*
X153686454Y-104106683D01*
X153686452Y-104106688D01*
X153661300Y-104233134D01*
X149719264Y-104233134D01*
X149748065Y-104204333D01*
X149766518Y-104178935D01*
X149785445Y-104152885D01*
X149819008Y-104106689D01*
X149850253Y-104063684D01*
X149929180Y-103908781D01*
X149982903Y-103743438D01*
X150010100Y-103571726D01*
X150010100Y-103397874D01*
X149982903Y-103226162D01*
X149929180Y-103060819D01*
X149850253Y-102905916D01*
X149748065Y-102765267D01*
X149748063Y-102765264D01*
X149625135Y-102642336D01*
X149523974Y-102568838D01*
X169873100Y-102568838D01*
X169873100Y-102820762D01*
X169907099Y-103035419D01*
X169912511Y-103069590D01*
X169955130Y-103200757D01*
X169990359Y-103309179D01*
X170104730Y-103533645D01*
X170252807Y-103737456D01*
X170252809Y-103737458D01*
X170252811Y-103737461D01*
X170430938Y-103915588D01*
X170430941Y-103915590D01*
X170430944Y-103915593D01*
X170634755Y-104063670D01*
X170859221Y-104178041D01*
X171098815Y-104255890D01*
X171347638Y-104295300D01*
X171347641Y-104295300D01*
X171599559Y-104295300D01*
X171599562Y-104295300D01*
X171848385Y-104255890D01*
X172087979Y-104178041D01*
X172312445Y-104063670D01*
X172516256Y-103915593D01*
X172694393Y-103737456D01*
X172842470Y-103533645D01*
X172956841Y-103309179D01*
X173034690Y-103069585D01*
X173074100Y-102820762D01*
X173074100Y-102568838D01*
X173034690Y-102320015D01*
X172956841Y-102080421D01*
X172842470Y-101855955D01*
X172694393Y-101652144D01*
X172694390Y-101652141D01*
X172694388Y-101652138D01*
X172516261Y-101474011D01*
X172516258Y-101474009D01*
X172516256Y-101474007D01*
X172336464Y-101343381D01*
X172312448Y-101325932D01*
X172312447Y-101325931D01*
X172312445Y-101325930D01*
X172087979Y-101211559D01*
X172087976Y-101211558D01*
X172087974Y-101211557D01*
X171848390Y-101133711D01*
X171848386Y-101133710D01*
X171848385Y-101133710D01*
X171599562Y-101094300D01*
X171347638Y-101094300D01*
X171098815Y-101133710D01*
X171098809Y-101133711D01*
X170859225Y-101211557D01*
X170859219Y-101211560D01*
X170634751Y-101325932D01*
X170430941Y-101474009D01*
X170430938Y-101474011D01*
X170252811Y-101652138D01*
X170252809Y-101652141D01*
X170104732Y-101855951D01*
X169990360Y-102080419D01*
X169990357Y-102080425D01*
X169912511Y-102320009D01*
X169912510Y-102320014D01*
X169912510Y-102320015D01*
X169873100Y-102568838D01*
X149523974Y-102568838D01*
X149484487Y-102540149D01*
X149484486Y-102540148D01*
X149484484Y-102540147D01*
X149329581Y-102461220D01*
X149329578Y-102461219D01*
X149329576Y-102461218D01*
X149164242Y-102407498D01*
X149164240Y-102407497D01*
X149164238Y-102407497D01*
X148992526Y-102380300D01*
X148818674Y-102380300D01*
X148646962Y-102407497D01*
X148646960Y-102407497D01*
X148646957Y-102407498D01*
X148481623Y-102461218D01*
X148481617Y-102461221D01*
X148326712Y-102540149D01*
X148186064Y-102642336D01*
X148063136Y-102765264D01*
X147960949Y-102905912D01*
X147882021Y-103060817D01*
X147882018Y-103060823D01*
X147828298Y-103226157D01*
X147828297Y-103226160D01*
X147828297Y-103226162D01*
X147801100Y-103397874D01*
X147470100Y-103397874D01*
X147442903Y-103226162D01*
X147389180Y-103060819D01*
X147310253Y-102905916D01*
X147208065Y-102765267D01*
X147208063Y-102765264D01*
X147085135Y-102642336D01*
X146944487Y-102540149D01*
X146944486Y-102540148D01*
X146944484Y-102540147D01*
X146789581Y-102461220D01*
X146789578Y-102461219D01*
X146789576Y-102461218D01*
X146624242Y-102407498D01*
X146624240Y-102407497D01*
X146624238Y-102407497D01*
X146452526Y-102380300D01*
X146278674Y-102380300D01*
X146106962Y-102407497D01*
X146106960Y-102407497D01*
X146106957Y-102407498D01*
X145941623Y-102461218D01*
X145941617Y-102461221D01*
X145786712Y-102540149D01*
X145646064Y-102642336D01*
X145523136Y-102765264D01*
X145420949Y-102905912D01*
X145342021Y-103060817D01*
X145342018Y-103060823D01*
X145288298Y-103226157D01*
X145288297Y-103226160D01*
X145288297Y-103226162D01*
X145261100Y-103397874D01*
X141780500Y-103397874D01*
X141780500Y-103372474D01*
X141753303Y-103200762D01*
X141699580Y-103035419D01*
X141620653Y-102880516D01*
X141518465Y-102739867D01*
X141518463Y-102739864D01*
X141395535Y-102616936D01*
X141254887Y-102514749D01*
X141254886Y-102514748D01*
X141254884Y-102514747D01*
X141099981Y-102435820D01*
X141099978Y-102435819D01*
X141099825Y-102435741D01*
X141048210Y-102386993D01*
X141031144Y-102318078D01*
X141054045Y-102250876D01*
X141109642Y-102206724D01*
X141118092Y-102203641D01*
X141197286Y-102177909D01*
X141197292Y-102177906D01*
X141387750Y-102080863D01*
X141560679Y-101955222D01*
X141711822Y-101804079D01*
X141837463Y-101631150D01*
X141934506Y-101440692D01*
X141934509Y-101440686D01*
X142000559Y-101237404D01*
X142010698Y-101173400D01*
X141106703Y-101173400D01*
X141141925Y-101112393D01*
X141176000Y-100985226D01*
X141176000Y-100853574D01*
X141141925Y-100726407D01*
X141106703Y-100665400D01*
X142010697Y-100665400D01*
X142000559Y-100601395D01*
X141934509Y-100398113D01*
X141934506Y-100398107D01*
X141837465Y-100207653D01*
X141786572Y-100137605D01*
X141786571Y-100137603D01*
X141737258Y-100069730D01*
X145261100Y-100069730D01*
X145261100Y-101819863D01*
X145261101Y-101819873D01*
X145275865Y-101894100D01*
X145332116Y-101978284D01*
X145416297Y-102034533D01*
X145416299Y-102034534D01*
X145490533Y-102049300D01*
X147240666Y-102049299D01*
X147240669Y-102049298D01*
X147240673Y-102049298D01*
X147289926Y-102039501D01*
X147314901Y-102034534D01*
X147399084Y-101978284D01*
X147455334Y-101894101D01*
X147470100Y-101819867D01*
X147470099Y-100857874D01*
X147801100Y-100857874D01*
X147801100Y-101031726D01*
X147824274Y-101178038D01*
X147828298Y-101203442D01*
X147873716Y-101343226D01*
X147882020Y-101368781D01*
X147948007Y-101498287D01*
X147960949Y-101523687D01*
X148063136Y-101664335D01*
X148186064Y-101787263D01*
X148230942Y-101819869D01*
X148326716Y-101889453D01*
X148481619Y-101968380D01*
X148646962Y-102022103D01*
X148818674Y-102049300D01*
X148818677Y-102049300D01*
X148992523Y-102049300D01*
X148992526Y-102049300D01*
X149164238Y-102022103D01*
X149329581Y-101968380D01*
X149484484Y-101889453D01*
X149625133Y-101787265D01*
X149748065Y-101664333D01*
X149850253Y-101523684D01*
X149929180Y-101368781D01*
X149982903Y-101203438D01*
X150010100Y-101031726D01*
X150010100Y-100857874D01*
X149982903Y-100686162D01*
X149929180Y-100520819D01*
X149850253Y-100365916D01*
X149748065Y-100225267D01*
X149748063Y-100225264D01*
X149625135Y-100102336D01*
X149484487Y-100000149D01*
X149484486Y-100000148D01*
X149484484Y-100000147D01*
X149329581Y-99921220D01*
X149329578Y-99921219D01*
X149329576Y-99921218D01*
X149164242Y-99867498D01*
X149164240Y-99867497D01*
X149164238Y-99867497D01*
X148992526Y-99840300D01*
X148818674Y-99840300D01*
X148646962Y-99867497D01*
X148646960Y-99867497D01*
X148646957Y-99867498D01*
X148481623Y-99921218D01*
X148481617Y-99921221D01*
X148326712Y-100000149D01*
X148186064Y-100102336D01*
X148063136Y-100225264D01*
X147960949Y-100365912D01*
X147882021Y-100520817D01*
X147882018Y-100520823D01*
X147828298Y-100686157D01*
X147828297Y-100686160D01*
X147828297Y-100686162D01*
X147801100Y-100857874D01*
X147470099Y-100857874D01*
X147470099Y-100069734D01*
X147470098Y-100069730D01*
X147470098Y-100069726D01*
X147455334Y-99995499D01*
X147405702Y-99921221D01*
X147399084Y-99911316D01*
X147399083Y-99911315D01*
X147314902Y-99855066D01*
X147240667Y-99840300D01*
X145490536Y-99840300D01*
X145490526Y-99840301D01*
X145416299Y-99855065D01*
X145332115Y-99911316D01*
X145275866Y-99995497D01*
X145261100Y-100069730D01*
X141737258Y-100069730D01*
X141711822Y-100034720D01*
X141560679Y-99883577D01*
X141387750Y-99757936D01*
X141197292Y-99660893D01*
X141197286Y-99660890D01*
X140994004Y-99594840D01*
X140930000Y-99584702D01*
X140930000Y-100488697D01*
X140868993Y-100453475D01*
X140741826Y-100419400D01*
X140610174Y-100419400D01*
X140483007Y-100453475D01*
X140422000Y-100488697D01*
X140422000Y-99584702D01*
X140357995Y-99594840D01*
X140154713Y-99660890D01*
X140154707Y-99660893D01*
X139964249Y-99757936D01*
X139791320Y-99883577D01*
X139640177Y-100034720D01*
X139514536Y-100207649D01*
X139417493Y-100398107D01*
X139391758Y-100477309D01*
X139351683Y-100535914D01*
X139286286Y-100563550D01*
X139216330Y-100551442D01*
X139164024Y-100503436D01*
X139159658Y-100495574D01*
X139159581Y-100495423D01*
X139159580Y-100495419D01*
X139080653Y-100340516D01*
X138978465Y-100199867D01*
X138978463Y-100199864D01*
X138855535Y-100076936D01*
X138714887Y-99974749D01*
X138714886Y-99974748D01*
X138714884Y-99974747D01*
X138559981Y-99895820D01*
X138559978Y-99895819D01*
X138559976Y-99895818D01*
X138394642Y-99842098D01*
X138394640Y-99842097D01*
X138394638Y-99842097D01*
X138222926Y-99814900D01*
X138049074Y-99814900D01*
X137877362Y-99842097D01*
X137877360Y-99842097D01*
X137877357Y-99842098D01*
X137712023Y-99895818D01*
X137712017Y-99895821D01*
X137557112Y-99974749D01*
X137416464Y-100076936D01*
X137293536Y-100199864D01*
X137191349Y-100340512D01*
X137112421Y-100495417D01*
X137112418Y-100495423D01*
X137058698Y-100660757D01*
X137058697Y-100660760D01*
X137058697Y-100660762D01*
X137031500Y-100832474D01*
X136700500Y-100832474D01*
X136673303Y-100660762D01*
X136619580Y-100495419D01*
X136540653Y-100340516D01*
X136438465Y-100199867D01*
X136438463Y-100199864D01*
X136315535Y-100076936D01*
X136174887Y-99974749D01*
X136174886Y-99974748D01*
X136174884Y-99974747D01*
X136019981Y-99895820D01*
X136019978Y-99895819D01*
X136019976Y-99895818D01*
X135854642Y-99842098D01*
X135854640Y-99842097D01*
X135854638Y-99842097D01*
X135682926Y-99814900D01*
X135509074Y-99814900D01*
X135337362Y-99842097D01*
X135337360Y-99842097D01*
X135337357Y-99842098D01*
X135172023Y-99895818D01*
X135172017Y-99895821D01*
X135017112Y-99974749D01*
X134876464Y-100076936D01*
X134753536Y-100199864D01*
X134651349Y-100340512D01*
X134572421Y-100495417D01*
X134572418Y-100495423D01*
X134518698Y-100660757D01*
X134518697Y-100660760D01*
X134518697Y-100660762D01*
X134491500Y-100832474D01*
X113514609Y-100832474D01*
X113509602Y-97324334D01*
X150105300Y-97324334D01*
X150105300Y-97324337D01*
X150105300Y-97453263D01*
X150130452Y-97579711D01*
X150179789Y-97698822D01*
X150227649Y-97770449D01*
X150251416Y-97806019D01*
X150251421Y-97806025D01*
X150342574Y-97897178D01*
X150342580Y-97897183D01*
X150449778Y-97968811D01*
X150568889Y-98018148D01*
X150695337Y-98043300D01*
X150695338Y-98043300D01*
X150824262Y-98043300D01*
X150824263Y-98043300D01*
X150950711Y-98018148D01*
X151069822Y-97968811D01*
X151177020Y-97897183D01*
X151268183Y-97806020D01*
X151339811Y-97698822D01*
X151389148Y-97579711D01*
X151414300Y-97453263D01*
X151414300Y-97324337D01*
X151389148Y-97197889D01*
X151339811Y-97078778D01*
X151268183Y-96971580D01*
X151268178Y-96971574D01*
X151177025Y-96880421D01*
X151177019Y-96880416D01*
X151141449Y-96856649D01*
X151069822Y-96808789D01*
X150950711Y-96759452D01*
X150824265Y-96734300D01*
X150824263Y-96734300D01*
X150695337Y-96734300D01*
X150695334Y-96734300D01*
X150568888Y-96759452D01*
X150568883Y-96759454D01*
X150449778Y-96808789D01*
X150342580Y-96880416D01*
X150342574Y-96880421D01*
X150251421Y-96971574D01*
X150251416Y-96971580D01*
X150179789Y-97078778D01*
X150130454Y-97197883D01*
X150130452Y-97197888D01*
X150105300Y-97324334D01*
X113509602Y-97324334D01*
X113506230Y-94962134D01*
X115383500Y-94962134D01*
X115383500Y-95091065D01*
X115400158Y-95174810D01*
X115408652Y-95217511D01*
X115457989Y-95336622D01*
X115468373Y-95352162D01*
X115529616Y-95443819D01*
X115529621Y-95443825D01*
X115620774Y-95534978D01*
X115620780Y-95534983D01*
X115727978Y-95606611D01*
X115847089Y-95655948D01*
X115973537Y-95681100D01*
X115973538Y-95681100D01*
X116102462Y-95681100D01*
X116102463Y-95681100D01*
X116228911Y-95655948D01*
X116348022Y-95606611D01*
X116455220Y-95534983D01*
X116466329Y-95523874D01*
X134339100Y-95523874D01*
X134339100Y-95697726D01*
X134366297Y-95869438D01*
X134366298Y-95869442D01*
X134393541Y-95953289D01*
X134420020Y-96034781D01*
X134498947Y-96189684D01*
X134498949Y-96189687D01*
X134601136Y-96330335D01*
X134724064Y-96453263D01*
X134724067Y-96453265D01*
X134864716Y-96555453D01*
X135019619Y-96634380D01*
X135184962Y-96688103D01*
X135356674Y-96715300D01*
X135356677Y-96715300D01*
X135530523Y-96715300D01*
X135530526Y-96715300D01*
X135702238Y-96688103D01*
X135867581Y-96634380D01*
X136022484Y-96555453D01*
X136163133Y-96453265D01*
X136286065Y-96330333D01*
X136388253Y-96189684D01*
X136467180Y-96034781D01*
X136520903Y-95869438D01*
X136548100Y-95697726D01*
X136548100Y-95523874D01*
X136520903Y-95352162D01*
X136467180Y-95186819D01*
X136388253Y-95031916D01*
X136306467Y-94919348D01*
X136286063Y-94891264D01*
X136163135Y-94768336D01*
X136022487Y-94666149D01*
X136022486Y-94666148D01*
X136022484Y-94666147D01*
X135867581Y-94587220D01*
X135867578Y-94587219D01*
X135867576Y-94587218D01*
X135702242Y-94533498D01*
X135702240Y-94533497D01*
X135702238Y-94533497D01*
X135530526Y-94506300D01*
X135356674Y-94506300D01*
X135184962Y-94533497D01*
X135184960Y-94533497D01*
X135184957Y-94533498D01*
X135019623Y-94587218D01*
X135019617Y-94587221D01*
X134864712Y-94666149D01*
X134724064Y-94768336D01*
X134601136Y-94891264D01*
X134498949Y-95031912D01*
X134420021Y-95186817D01*
X134420018Y-95186823D01*
X134366298Y-95352157D01*
X134366297Y-95352160D01*
X134366297Y-95352162D01*
X134339100Y-95523874D01*
X116466329Y-95523874D01*
X116546383Y-95443820D01*
X116618011Y-95336622D01*
X116667348Y-95217511D01*
X116692500Y-95091063D01*
X116692500Y-94962137D01*
X116667348Y-94835689D01*
X116618011Y-94716578D01*
X116546383Y-94609380D01*
X116546378Y-94609374D01*
X116467338Y-94530334D01*
X124654500Y-94530334D01*
X124654500Y-94659265D01*
X124670818Y-94741299D01*
X124679652Y-94785711D01*
X124728989Y-94904822D01*
X124767284Y-94962134D01*
X124800616Y-95012019D01*
X124800621Y-95012025D01*
X124891774Y-95103178D01*
X124891780Y-95103183D01*
X124998978Y-95174811D01*
X125118089Y-95224148D01*
X125244537Y-95249300D01*
X125244538Y-95249300D01*
X125373462Y-95249300D01*
X125373463Y-95249300D01*
X125499911Y-95224148D01*
X125619022Y-95174811D01*
X125726220Y-95103183D01*
X125817383Y-95012020D01*
X125889011Y-94904822D01*
X125938348Y-94785711D01*
X125963500Y-94659263D01*
X125963500Y-94530337D01*
X125938348Y-94403889D01*
X125889011Y-94284778D01*
X125817383Y-94177580D01*
X125817378Y-94177574D01*
X125726225Y-94086421D01*
X125726219Y-94086416D01*
X125690649Y-94062649D01*
X125619022Y-94014789D01*
X125499911Y-93965452D01*
X125477424Y-93960979D01*
X125373465Y-93940300D01*
X125373463Y-93940300D01*
X125244537Y-93940300D01*
X125244534Y-93940300D01*
X125118088Y-93965452D01*
X125118083Y-93965454D01*
X124998978Y-94014789D01*
X124891780Y-94086416D01*
X124891774Y-94086421D01*
X124800621Y-94177574D01*
X124800616Y-94177580D01*
X124728989Y-94284778D01*
X124679654Y-94403883D01*
X124679652Y-94403888D01*
X124654500Y-94530334D01*
X116467338Y-94530334D01*
X116455225Y-94518221D01*
X116455219Y-94518216D01*
X116419649Y-94494449D01*
X116348022Y-94446589D01*
X116228911Y-94397252D01*
X116226744Y-94396821D01*
X116102465Y-94372100D01*
X116102463Y-94372100D01*
X115973537Y-94372100D01*
X115973534Y-94372100D01*
X115847088Y-94397252D01*
X115847083Y-94397254D01*
X115727978Y-94446589D01*
X115620780Y-94518216D01*
X115620774Y-94518221D01*
X115529621Y-94609374D01*
X115529616Y-94609380D01*
X115457989Y-94716578D01*
X115408654Y-94835683D01*
X115408652Y-94835688D01*
X115383500Y-94962134D01*
X113506230Y-94962134D01*
X113504991Y-94094378D01*
X113503406Y-92983874D01*
X134339100Y-92983874D01*
X134339100Y-93157726D01*
X134363704Y-93313065D01*
X134366298Y-93329442D01*
X134407891Y-93457454D01*
X134420020Y-93494781D01*
X134491720Y-93635500D01*
X134498949Y-93649687D01*
X134601136Y-93790335D01*
X134724064Y-93913263D01*
X134789739Y-93960979D01*
X134864716Y-94015453D01*
X135019619Y-94094380D01*
X135184962Y-94148103D01*
X135356674Y-94175300D01*
X135356677Y-94175300D01*
X135530523Y-94175300D01*
X135530526Y-94175300D01*
X135702238Y-94148103D01*
X135867581Y-94094380D01*
X136022484Y-94015453D01*
X136163133Y-93913265D01*
X136286065Y-93790333D01*
X136388253Y-93649684D01*
X136467180Y-93494781D01*
X136520903Y-93329438D01*
X136548100Y-93157726D01*
X136548100Y-92983874D01*
X136520903Y-92812162D01*
X136467180Y-92646819D01*
X136388253Y-92491916D01*
X136347760Y-92436183D01*
X136286063Y-92351264D01*
X136163135Y-92228336D01*
X136022487Y-92126149D01*
X136022486Y-92126148D01*
X136022484Y-92126147D01*
X135867581Y-92047220D01*
X135867578Y-92047219D01*
X135867576Y-92047218D01*
X135702242Y-91993498D01*
X135702240Y-91993497D01*
X135702238Y-91993497D01*
X135530526Y-91966300D01*
X135356674Y-91966300D01*
X135184962Y-91993497D01*
X135184960Y-91993497D01*
X135184957Y-91993498D01*
X135019623Y-92047218D01*
X135019617Y-92047221D01*
X134864712Y-92126149D01*
X134724064Y-92228336D01*
X134601136Y-92351264D01*
X134498949Y-92491912D01*
X134420021Y-92646817D01*
X134420018Y-92646823D01*
X134366298Y-92812157D01*
X134366297Y-92812160D01*
X134366297Y-92812162D01*
X134339100Y-92983874D01*
X113503406Y-92983874D01*
X113503399Y-92979103D01*
X113499196Y-90034534D01*
X116958300Y-90034534D01*
X116958300Y-90163465D01*
X116983452Y-90289911D01*
X117032789Y-90409022D01*
X117075252Y-90472572D01*
X117104416Y-90516219D01*
X117104421Y-90516225D01*
X117195574Y-90607378D01*
X117195580Y-90607383D01*
X117302778Y-90679011D01*
X117421889Y-90728348D01*
X117548337Y-90753500D01*
X117548338Y-90753500D01*
X117677262Y-90753500D01*
X117677263Y-90753500D01*
X117803711Y-90728348D01*
X117922822Y-90679011D01*
X118030020Y-90607383D01*
X118121183Y-90516220D01*
X118192811Y-90409022D01*
X118242148Y-90289911D01*
X118267300Y-90163463D01*
X118267300Y-90034537D01*
X118247090Y-89932934D01*
X122927300Y-89932934D01*
X122927300Y-90061865D01*
X122936242Y-90106817D01*
X122952452Y-90188311D01*
X123001789Y-90307422D01*
X123042882Y-90368921D01*
X123073416Y-90414619D01*
X123073421Y-90414625D01*
X123164574Y-90505778D01*
X123164580Y-90505783D01*
X123271778Y-90577411D01*
X123390889Y-90626748D01*
X123517337Y-90651900D01*
X123517338Y-90651900D01*
X123646262Y-90651900D01*
X123646263Y-90651900D01*
X123772711Y-90626748D01*
X123891822Y-90577411D01*
X123999020Y-90505783D01*
X124060929Y-90443874D01*
X134339100Y-90443874D01*
X134339100Y-90617726D01*
X134360605Y-90753499D01*
X134366298Y-90789442D01*
X134407891Y-90917454D01*
X134420020Y-90954781D01*
X134498947Y-91109684D01*
X134498949Y-91109687D01*
X134601136Y-91250335D01*
X134724064Y-91373263D01*
X134724067Y-91373265D01*
X134864716Y-91475453D01*
X135019619Y-91554380D01*
X135184962Y-91608103D01*
X135356674Y-91635300D01*
X135356677Y-91635300D01*
X135530523Y-91635300D01*
X135530526Y-91635300D01*
X135702238Y-91608103D01*
X135867581Y-91554380D01*
X136022484Y-91475453D01*
X136163133Y-91373265D01*
X136286065Y-91250333D01*
X136388253Y-91109684D01*
X136433938Y-91020023D01*
X142414211Y-91020023D01*
X142414211Y-91020026D01*
X142414211Y-91148952D01*
X142439363Y-91275400D01*
X142488700Y-91394511D01*
X142528418Y-91453953D01*
X142560327Y-91501708D01*
X142560332Y-91501714D01*
X142651485Y-91592867D01*
X142651491Y-91592872D01*
X142758689Y-91664500D01*
X142877800Y-91713837D01*
X143004248Y-91738989D01*
X143004249Y-91738989D01*
X143133173Y-91738989D01*
X143133174Y-91738989D01*
X143259622Y-91713837D01*
X143378733Y-91664500D01*
X143485931Y-91592872D01*
X143577094Y-91501709D01*
X143590040Y-91482334D01*
X145508200Y-91482334D01*
X145508200Y-91482337D01*
X145508200Y-91611263D01*
X145533352Y-91737711D01*
X145582689Y-91856822D01*
X145603402Y-91887821D01*
X145654316Y-91964019D01*
X145654321Y-91964025D01*
X145745474Y-92055178D01*
X145745480Y-92055183D01*
X145852678Y-92126811D01*
X145971789Y-92176148D01*
X146064434Y-92194576D01*
X146127342Y-92227482D01*
X146162474Y-92289177D01*
X146158674Y-92360072D01*
X146128947Y-92407249D01*
X146035016Y-92501180D01*
X145963389Y-92608378D01*
X145914054Y-92727483D01*
X145914052Y-92727488D01*
X145888900Y-92853934D01*
X145888900Y-92982865D01*
X145903784Y-93057689D01*
X145914052Y-93109311D01*
X145963389Y-93228422D01*
X145987460Y-93264446D01*
X146035016Y-93335619D01*
X146035021Y-93335625D01*
X146126174Y-93426778D01*
X146126180Y-93426783D01*
X146233378Y-93498411D01*
X146352489Y-93547748D01*
X146464109Y-93569950D01*
X146527018Y-93602857D01*
X146562150Y-93664552D01*
X146558350Y-93735447D01*
X146555936Y-93741746D01*
X146523655Y-93819679D01*
X146523652Y-93819688D01*
X146498500Y-93946134D01*
X146498500Y-94075065D01*
X146513657Y-94151261D01*
X146523652Y-94201511D01*
X146572989Y-94320622D01*
X146607386Y-94372100D01*
X146644616Y-94427819D01*
X146644621Y-94427825D01*
X146735774Y-94518978D01*
X146735780Y-94518983D01*
X146842978Y-94590611D01*
X146962089Y-94639948D01*
X147088537Y-94665100D01*
X147088538Y-94665100D01*
X147217462Y-94665100D01*
X147217463Y-94665100D01*
X147343911Y-94639948D01*
X147463022Y-94590611D01*
X147570220Y-94518983D01*
X147661383Y-94427820D01*
X147733011Y-94320622D01*
X147772397Y-94225534D01*
X148886100Y-94225534D01*
X148886100Y-94354465D01*
X148904425Y-94446589D01*
X148911252Y-94480911D01*
X148960589Y-94600022D01*
X148987267Y-94639948D01*
X149032216Y-94707219D01*
X149032221Y-94707225D01*
X149123374Y-94798378D01*
X149123380Y-94798383D01*
X149230578Y-94870011D01*
X149349689Y-94919348D01*
X149476137Y-94944500D01*
X149476138Y-94944500D01*
X149605062Y-94944500D01*
X149605063Y-94944500D01*
X149731511Y-94919348D01*
X149850622Y-94870011D01*
X149957820Y-94798383D01*
X150048983Y-94707220D01*
X150082158Y-94657570D01*
X150136633Y-94612044D01*
X150207076Y-94603195D01*
X150256921Y-94622806D01*
X150322778Y-94666811D01*
X150441889Y-94716148D01*
X150568337Y-94741300D01*
X150568338Y-94741300D01*
X150697262Y-94741300D01*
X150697263Y-94741300D01*
X150823711Y-94716148D01*
X150942822Y-94666811D01*
X151050020Y-94595183D01*
X151141183Y-94504020D01*
X151212811Y-94396822D01*
X151262148Y-94277711D01*
X151287300Y-94151263D01*
X151287300Y-94029100D01*
X151307302Y-93960979D01*
X151360958Y-93914486D01*
X151413300Y-93903100D01*
X151433862Y-93903100D01*
X151433863Y-93903100D01*
X151560311Y-93877948D01*
X151679422Y-93828611D01*
X151786620Y-93756983D01*
X151877783Y-93665820D01*
X151949411Y-93558622D01*
X151998748Y-93439511D01*
X152023900Y-93313063D01*
X152023900Y-93184137D01*
X151998748Y-93057689D01*
X151949411Y-92938578D01*
X151877783Y-92831380D01*
X151877778Y-92831374D01*
X151786625Y-92740221D01*
X151786619Y-92740216D01*
X151751049Y-92716449D01*
X151679422Y-92668589D01*
X151560311Y-92619252D01*
X151505644Y-92608378D01*
X151433865Y-92594100D01*
X151433863Y-92594100D01*
X151304937Y-92594100D01*
X151304934Y-92594100D01*
X151178488Y-92619252D01*
X151178483Y-92619254D01*
X151059378Y-92668589D01*
X150952180Y-92740216D01*
X150952174Y-92740221D01*
X150861021Y-92831374D01*
X150861016Y-92831380D01*
X150789389Y-92938578D01*
X150740054Y-93057683D01*
X150740052Y-93057688D01*
X150714900Y-93184134D01*
X150714900Y-93306300D01*
X150694898Y-93374421D01*
X150641242Y-93420914D01*
X150588900Y-93432300D01*
X150568334Y-93432300D01*
X150441888Y-93457452D01*
X150441883Y-93457454D01*
X150322778Y-93506789D01*
X150215580Y-93578416D01*
X150215574Y-93578421D01*
X150124421Y-93669574D01*
X150124414Y-93669583D01*
X150091241Y-93719229D01*
X150036764Y-93764756D01*
X149966320Y-93773603D01*
X149916475Y-93753991D01*
X149888722Y-93735447D01*
X149850622Y-93709989D01*
X149731511Y-93660652D01*
X149605065Y-93635500D01*
X149605063Y-93635500D01*
X149476137Y-93635500D01*
X149476134Y-93635500D01*
X149349688Y-93660652D01*
X149349683Y-93660654D01*
X149230578Y-93709989D01*
X149123380Y-93781616D01*
X149123374Y-93781621D01*
X149032221Y-93872774D01*
X149032216Y-93872780D01*
X148960589Y-93979978D01*
X148911254Y-94099083D01*
X148911252Y-94099088D01*
X148886100Y-94225534D01*
X147772397Y-94225534D01*
X147782348Y-94201511D01*
X147807500Y-94075063D01*
X147807500Y-93946137D01*
X147782348Y-93819689D01*
X147733011Y-93700578D01*
X147661383Y-93593380D01*
X147661378Y-93593374D01*
X147570225Y-93502221D01*
X147570219Y-93502216D01*
X147503225Y-93457452D01*
X147463022Y-93430589D01*
X147343911Y-93381252D01*
X147232290Y-93359049D01*
X147169380Y-93326141D01*
X147134249Y-93264446D01*
X147138049Y-93193551D01*
X147140464Y-93187251D01*
X147141754Y-93184138D01*
X147172748Y-93109311D01*
X147197900Y-92982863D01*
X147197900Y-92853937D01*
X147172748Y-92727489D01*
X147123411Y-92608378D01*
X147051783Y-92501180D01*
X147051778Y-92501174D01*
X146960625Y-92410021D01*
X146960619Y-92410016D01*
X146925049Y-92386249D01*
X146853422Y-92338389D01*
X146734311Y-92289052D01*
X146641665Y-92270623D01*
X146578757Y-92237716D01*
X146543625Y-92176021D01*
X146547425Y-92105126D01*
X146577153Y-92057949D01*
X146579916Y-92055185D01*
X146579920Y-92055183D01*
X146671083Y-91964020D01*
X146742711Y-91856822D01*
X146792048Y-91737711D01*
X146817200Y-91611263D01*
X146817200Y-91482337D01*
X146804684Y-91419417D01*
X146802480Y-91408334D01*
X146802043Y-91406136D01*
X149775100Y-91406136D01*
X149775100Y-91535067D01*
X149795038Y-91635300D01*
X149800252Y-91661513D01*
X149849589Y-91780624D01*
X149897449Y-91852251D01*
X149921216Y-91887821D01*
X149921221Y-91887827D01*
X150012374Y-91978980D01*
X150012380Y-91978985D01*
X150119578Y-92050613D01*
X150238689Y-92099950D01*
X150365137Y-92125102D01*
X150365138Y-92125102D01*
X150494062Y-92125102D01*
X150494063Y-92125102D01*
X150620511Y-92099950D01*
X150739622Y-92050613D01*
X150846820Y-91978985D01*
X150937983Y-91887822D01*
X151009611Y-91780624D01*
X151058948Y-91661513D01*
X151084100Y-91535065D01*
X151084100Y-91406139D01*
X151058948Y-91279691D01*
X151009611Y-91160580D01*
X150937983Y-91053382D01*
X150937978Y-91053376D01*
X150846825Y-90962223D01*
X150846819Y-90962218D01*
X150779822Y-90917452D01*
X150739622Y-90890591D01*
X150620511Y-90841254D01*
X150494065Y-90816102D01*
X150494063Y-90816102D01*
X150365137Y-90816102D01*
X150365134Y-90816102D01*
X150238688Y-90841254D01*
X150238683Y-90841256D01*
X150119578Y-90890591D01*
X150012380Y-90962218D01*
X150012374Y-90962223D01*
X149921221Y-91053376D01*
X149921216Y-91053382D01*
X149849589Y-91160580D01*
X149800254Y-91279685D01*
X149800252Y-91279690D01*
X149775100Y-91406136D01*
X146802043Y-91406136D01*
X146792048Y-91355889D01*
X146742711Y-91236778D01*
X146671083Y-91129580D01*
X146671078Y-91129574D01*
X146579925Y-91038421D01*
X146579919Y-91038416D01*
X146515580Y-90995426D01*
X146472722Y-90966789D01*
X146353611Y-90917452D01*
X146227165Y-90892300D01*
X146227163Y-90892300D01*
X146098237Y-90892300D01*
X146098234Y-90892300D01*
X145971788Y-90917452D01*
X145971783Y-90917454D01*
X145852678Y-90966789D01*
X145745480Y-91038416D01*
X145745474Y-91038421D01*
X145654321Y-91129574D01*
X145654316Y-91129580D01*
X145582689Y-91236778D01*
X145533354Y-91355883D01*
X145533352Y-91355888D01*
X145508200Y-91482334D01*
X143590040Y-91482334D01*
X143648722Y-91394511D01*
X143698059Y-91275400D01*
X143723211Y-91148952D01*
X143723211Y-91020026D01*
X143698059Y-90893578D01*
X143648722Y-90774467D01*
X143577094Y-90667269D01*
X143577089Y-90667263D01*
X143485936Y-90576110D01*
X143485930Y-90576105D01*
X143396313Y-90516225D01*
X143378733Y-90504478D01*
X143259622Y-90455141D01*
X143133176Y-90429989D01*
X143133174Y-90429989D01*
X143004248Y-90429989D01*
X143004245Y-90429989D01*
X142877799Y-90455141D01*
X142877794Y-90455143D01*
X142758689Y-90504478D01*
X142651491Y-90576105D01*
X142651485Y-90576110D01*
X142560332Y-90667263D01*
X142560327Y-90667269D01*
X142488700Y-90774467D01*
X142439365Y-90893572D01*
X142439363Y-90893577D01*
X142414211Y-91020023D01*
X136433938Y-91020023D01*
X136467180Y-90954781D01*
X136520903Y-90789438D01*
X136548100Y-90617726D01*
X136548100Y-90443874D01*
X136520903Y-90272162D01*
X136467180Y-90106819D01*
X136388253Y-89951916D01*
X136286065Y-89811267D01*
X136286063Y-89811264D01*
X136163135Y-89688336D01*
X136022487Y-89586149D01*
X136022486Y-89586148D01*
X136022484Y-89586147D01*
X135867581Y-89507220D01*
X135867578Y-89507219D01*
X135867576Y-89507218D01*
X135702242Y-89453498D01*
X135702240Y-89453497D01*
X135702238Y-89453497D01*
X135530526Y-89426300D01*
X135356674Y-89426300D01*
X135184962Y-89453497D01*
X135184960Y-89453497D01*
X135184957Y-89453498D01*
X135019623Y-89507218D01*
X135019617Y-89507221D01*
X134864712Y-89586149D01*
X134724064Y-89688336D01*
X134601136Y-89811264D01*
X134498949Y-89951912D01*
X134420021Y-90106817D01*
X134420018Y-90106823D01*
X134366298Y-90272157D01*
X134366297Y-90272160D01*
X134366297Y-90272162D01*
X134339100Y-90443874D01*
X124060929Y-90443874D01*
X124090183Y-90414620D01*
X124161811Y-90307422D01*
X124211148Y-90188311D01*
X124236300Y-90061863D01*
X124236300Y-89932937D01*
X124211148Y-89806489D01*
X124161811Y-89687378D01*
X124090183Y-89580180D01*
X124090178Y-89580174D01*
X123999025Y-89489021D01*
X123999019Y-89489016D01*
X123932396Y-89444500D01*
X123891822Y-89417389D01*
X123772711Y-89368052D01*
X123646265Y-89342900D01*
X123646263Y-89342900D01*
X123517337Y-89342900D01*
X123517334Y-89342900D01*
X123390888Y-89368052D01*
X123390883Y-89368054D01*
X123271778Y-89417389D01*
X123164580Y-89489016D01*
X123164574Y-89489021D01*
X123073421Y-89580174D01*
X123073416Y-89580180D01*
X123001789Y-89687378D01*
X122952454Y-89806483D01*
X122952452Y-89806488D01*
X122927300Y-89932934D01*
X118247090Y-89932934D01*
X118242148Y-89908089D01*
X118192811Y-89788978D01*
X118121183Y-89681780D01*
X118121178Y-89681774D01*
X118030025Y-89590621D01*
X118030019Y-89590616D01*
X117986309Y-89561410D01*
X117922822Y-89518989D01*
X117803711Y-89469652D01*
X117677265Y-89444500D01*
X117677263Y-89444500D01*
X117548337Y-89444500D01*
X117548334Y-89444500D01*
X117421888Y-89469652D01*
X117421883Y-89469654D01*
X117302778Y-89518989D01*
X117195580Y-89590616D01*
X117195574Y-89590621D01*
X117104421Y-89681774D01*
X117104416Y-89681780D01*
X117032789Y-89788978D01*
X116983454Y-89908083D01*
X116983452Y-89908088D01*
X116958300Y-90034534D01*
X113499196Y-90034534D01*
X113499187Y-90028528D01*
X113499100Y-89967851D01*
X113499100Y-86546255D01*
X116673100Y-86546255D01*
X116673100Y-87243344D01*
X116711549Y-87436635D01*
X116711550Y-87436638D01*
X116765473Y-87566820D01*
X116786968Y-87618714D01*
X116896461Y-87782582D01*
X117035818Y-87921939D01*
X117199686Y-88031432D01*
X117381765Y-88106851D01*
X117575059Y-88145300D01*
X117772141Y-88145300D01*
X117965435Y-88106851D01*
X118147514Y-88031432D01*
X118311382Y-87921939D01*
X118450739Y-87782582D01*
X118560232Y-87618714D01*
X118635651Y-87436635D01*
X118674100Y-87243341D01*
X118674100Y-86796383D01*
X120823100Y-86796383D01*
X120823100Y-86993217D01*
X120853891Y-87187626D01*
X120914716Y-87374825D01*
X121004076Y-87550205D01*
X121004078Y-87550208D01*
X121119773Y-87709448D01*
X121258951Y-87848626D01*
X121258954Y-87848628D01*
X121418195Y-87964324D01*
X121593575Y-88053684D01*
X121780774Y-88114509D01*
X121975183Y-88145300D01*
X121975186Y-88145300D01*
X122172014Y-88145300D01*
X122172017Y-88145300D01*
X122366426Y-88114509D01*
X122553625Y-88053684D01*
X122729005Y-87964324D01*
X122812207Y-87903874D01*
X134339100Y-87903874D01*
X134339100Y-88077726D01*
X134366297Y-88249438D01*
X134366298Y-88249442D01*
X134415668Y-88401389D01*
X134420020Y-88414781D01*
X134496140Y-88564174D01*
X134498949Y-88569687D01*
X134601136Y-88710335D01*
X134724064Y-88833263D01*
X134724067Y-88833265D01*
X134864716Y-88935453D01*
X135019619Y-89014380D01*
X135184962Y-89068103D01*
X135356674Y-89095300D01*
X135356677Y-89095300D01*
X135530523Y-89095300D01*
X135530526Y-89095300D01*
X135702238Y-89068103D01*
X135867581Y-89014380D01*
X136022484Y-88935453D01*
X136047973Y-88916934D01*
X148352700Y-88916934D01*
X148352700Y-89045865D01*
X148377852Y-89172311D01*
X148427189Y-89291422D01*
X148461586Y-89342900D01*
X148498816Y-89398619D01*
X148498821Y-89398625D01*
X148589974Y-89489778D01*
X148589980Y-89489783D01*
X148697178Y-89561411D01*
X148816289Y-89610748D01*
X148942737Y-89635900D01*
X148942738Y-89635900D01*
X149071662Y-89635900D01*
X149071663Y-89635900D01*
X149198111Y-89610748D01*
X149317222Y-89561411D01*
X149424420Y-89489783D01*
X149515583Y-89398620D01*
X149587211Y-89291422D01*
X149636548Y-89172311D01*
X149661700Y-89045863D01*
X149661700Y-88916937D01*
X149636548Y-88790489D01*
X149587211Y-88671378D01*
X149515583Y-88564180D01*
X149515578Y-88564174D01*
X149424425Y-88473021D01*
X149424419Y-88473016D01*
X149388849Y-88449249D01*
X149317222Y-88401389D01*
X149198111Y-88352052D01*
X149071665Y-88326900D01*
X149071663Y-88326900D01*
X148942737Y-88326900D01*
X148942734Y-88326900D01*
X148816288Y-88352052D01*
X148816283Y-88352054D01*
X148697178Y-88401389D01*
X148589980Y-88473016D01*
X148589974Y-88473021D01*
X148498821Y-88564174D01*
X148498816Y-88564180D01*
X148427189Y-88671378D01*
X148377854Y-88790483D01*
X148377852Y-88790488D01*
X148352700Y-88916934D01*
X136047973Y-88916934D01*
X136163133Y-88833265D01*
X136163138Y-88833260D01*
X136174747Y-88821652D01*
X136286060Y-88710338D01*
X136286063Y-88710335D01*
X136286065Y-88710333D01*
X136388253Y-88569684D01*
X136467180Y-88414781D01*
X136520903Y-88249438D01*
X136548100Y-88077726D01*
X136548100Y-87903874D01*
X136520903Y-87732162D01*
X136467180Y-87566819D01*
X136443291Y-87519934D01*
X143958500Y-87519934D01*
X143958500Y-87648865D01*
X143975068Y-87732157D01*
X143983652Y-87775311D01*
X144032989Y-87894422D01*
X144051377Y-87921941D01*
X144104616Y-88001619D01*
X144104621Y-88001625D01*
X144195774Y-88092778D01*
X144195780Y-88092783D01*
X144302978Y-88164411D01*
X144422089Y-88213748D01*
X144548537Y-88238900D01*
X144548538Y-88238900D01*
X144677462Y-88238900D01*
X144677463Y-88238900D01*
X144803911Y-88213748D01*
X144923022Y-88164411D01*
X145030220Y-88092783D01*
X145121383Y-88001620D01*
X145193011Y-87894422D01*
X145242348Y-87775311D01*
X145267500Y-87648863D01*
X145267500Y-87519937D01*
X145242348Y-87393489D01*
X145193011Y-87274378D01*
X145121383Y-87167180D01*
X145121378Y-87167174D01*
X145030225Y-87076021D01*
X145030219Y-87076016D01*
X144963225Y-87031252D01*
X144923022Y-87004389D01*
X144803911Y-86955052D01*
X144677465Y-86929900D01*
X144677463Y-86929900D01*
X144548537Y-86929900D01*
X144548534Y-86929900D01*
X144422088Y-86955052D01*
X144422083Y-86955054D01*
X144302978Y-87004389D01*
X144195780Y-87076016D01*
X144195774Y-87076021D01*
X144104621Y-87167174D01*
X144104616Y-87167180D01*
X144032989Y-87274378D01*
X143983654Y-87393483D01*
X143983652Y-87393488D01*
X143958500Y-87519934D01*
X136443291Y-87519934D01*
X136388253Y-87411916D01*
X136286065Y-87271267D01*
X136286063Y-87271264D01*
X136163135Y-87148336D01*
X136022487Y-87046149D01*
X136022486Y-87046148D01*
X136022484Y-87046147D01*
X135867581Y-86967220D01*
X135867578Y-86967219D01*
X135867576Y-86967218D01*
X135702242Y-86913498D01*
X135702240Y-86913497D01*
X135702238Y-86913497D01*
X135530526Y-86886300D01*
X135356674Y-86886300D01*
X135184962Y-86913497D01*
X135184960Y-86913497D01*
X135184957Y-86913498D01*
X135019623Y-86967218D01*
X135019617Y-86967221D01*
X134864712Y-87046149D01*
X134724064Y-87148336D01*
X134601136Y-87271264D01*
X134498949Y-87411912D01*
X134420021Y-87566817D01*
X134420018Y-87566823D01*
X134366298Y-87732157D01*
X134366297Y-87732160D01*
X134366297Y-87732162D01*
X134339100Y-87903874D01*
X122812207Y-87903874D01*
X122888246Y-87848628D01*
X122888251Y-87848623D01*
X122927047Y-87809828D01*
X123027423Y-87709451D01*
X123027426Y-87709448D01*
X123027428Y-87709446D01*
X123143124Y-87550205D01*
X123232484Y-87374825D01*
X123293309Y-87187626D01*
X123324100Y-86993217D01*
X123324100Y-86796383D01*
X123293309Y-86601974D01*
X123232484Y-86414775D01*
X123143124Y-86239395D01*
X123073889Y-86144102D01*
X123027426Y-86080151D01*
X122888248Y-85940973D01*
X122729008Y-85825278D01*
X122729007Y-85825277D01*
X122729005Y-85825276D01*
X122553625Y-85735916D01*
X122366426Y-85675091D01*
X122172017Y-85644300D01*
X121975183Y-85644300D01*
X121780774Y-85675091D01*
X121780771Y-85675091D01*
X121780770Y-85675092D01*
X121690954Y-85704275D01*
X121593575Y-85735916D01*
X121593573Y-85735916D01*
X121593573Y-85735917D01*
X121418191Y-85825278D01*
X121258951Y-85940973D01*
X121119773Y-86080151D01*
X121004078Y-86239391D01*
X120924561Y-86395453D01*
X120914716Y-86414775D01*
X120853891Y-86601974D01*
X120823100Y-86796383D01*
X118674100Y-86796383D01*
X118674100Y-86546259D01*
X118635651Y-86352965D01*
X118560232Y-86170886D01*
X118450739Y-86007018D01*
X118311382Y-85867661D01*
X118147514Y-85758168D01*
X118093795Y-85735917D01*
X117965438Y-85682750D01*
X117965435Y-85682749D01*
X117772144Y-85644300D01*
X117772141Y-85644300D01*
X117575059Y-85644300D01*
X117575055Y-85644300D01*
X117381764Y-85682749D01*
X117381761Y-85682750D01*
X117199685Y-85758168D01*
X117035822Y-85867658D01*
X117035815Y-85867663D01*
X116896463Y-86007015D01*
X116896458Y-86007022D01*
X116786968Y-86170885D01*
X116711550Y-86352961D01*
X116711549Y-86352964D01*
X116673100Y-86546255D01*
X113499100Y-86546255D01*
X113499100Y-84319730D01*
X129669100Y-84319730D01*
X129669100Y-86069863D01*
X129669101Y-86069873D01*
X129683865Y-86144100D01*
X129740116Y-86228284D01*
X129824297Y-86284533D01*
X129824299Y-86284534D01*
X129898533Y-86299300D01*
X131648666Y-86299299D01*
X131648669Y-86299298D01*
X131648673Y-86299298D01*
X131697926Y-86289501D01*
X131722901Y-86284534D01*
X131807084Y-86228284D01*
X131863334Y-86144101D01*
X131878100Y-86069867D01*
X131878099Y-85363874D01*
X134339100Y-85363874D01*
X134339100Y-85537726D01*
X134355980Y-85644300D01*
X134366298Y-85709442D01*
X134417706Y-85867661D01*
X134420020Y-85874781D01*
X134498947Y-86029684D01*
X134498949Y-86029687D01*
X134601136Y-86170335D01*
X134724064Y-86293263D01*
X134787589Y-86339417D01*
X134864716Y-86395453D01*
X135019619Y-86474380D01*
X135184962Y-86528103D01*
X135356674Y-86555300D01*
X135356677Y-86555300D01*
X135530523Y-86555300D01*
X135530526Y-86555300D01*
X135702238Y-86528103D01*
X135867581Y-86474380D01*
X136022484Y-86395453D01*
X136163133Y-86293265D01*
X136286065Y-86170333D01*
X136388253Y-86029684D01*
X136467180Y-85874781D01*
X136520903Y-85709438D01*
X136548100Y-85537726D01*
X136548100Y-85363874D01*
X136520903Y-85192162D01*
X136467180Y-85026819D01*
X136388253Y-84871916D01*
X136286065Y-84731267D01*
X136286063Y-84731264D01*
X136163135Y-84608336D01*
X136022487Y-84506149D01*
X136022486Y-84506148D01*
X136022484Y-84506147D01*
X135867581Y-84427220D01*
X135867578Y-84427219D01*
X135867576Y-84427218D01*
X135702242Y-84373498D01*
X135702240Y-84373497D01*
X135702238Y-84373497D01*
X135530526Y-84346300D01*
X135356674Y-84346300D01*
X135184962Y-84373497D01*
X135184960Y-84373497D01*
X135184957Y-84373498D01*
X135019623Y-84427218D01*
X135019617Y-84427221D01*
X134864712Y-84506149D01*
X134724064Y-84608336D01*
X134601136Y-84731264D01*
X134498949Y-84871912D01*
X134420021Y-85026817D01*
X134420018Y-85026823D01*
X134366298Y-85192157D01*
X134366297Y-85192160D01*
X134366297Y-85192162D01*
X134339100Y-85363874D01*
X131878099Y-85363874D01*
X131878099Y-85192162D01*
X131878099Y-84319736D01*
X131878098Y-84319726D01*
X131863334Y-84245499D01*
X131807083Y-84161315D01*
X131722902Y-84105066D01*
X131648667Y-84090300D01*
X129898536Y-84090300D01*
X129898526Y-84090301D01*
X129824299Y-84105065D01*
X129740115Y-84161316D01*
X129683866Y-84245497D01*
X129669100Y-84319730D01*
X113499100Y-84319730D01*
X113499100Y-82567874D01*
X129669100Y-82567874D01*
X129669100Y-82741726D01*
X129696297Y-82913438D01*
X129750020Y-83078781D01*
X129750021Y-83078782D01*
X129828949Y-83233687D01*
X129931136Y-83374335D01*
X130054064Y-83497263D01*
X130054067Y-83497265D01*
X130194716Y-83599453D01*
X130349619Y-83678380D01*
X130514962Y-83732103D01*
X130686674Y-83759300D01*
X130686677Y-83759300D01*
X130860523Y-83759300D01*
X130860526Y-83759300D01*
X131032238Y-83732103D01*
X131197581Y-83678380D01*
X131352484Y-83599453D01*
X131493133Y-83497265D01*
X131616065Y-83374333D01*
X131718253Y-83233684D01*
X131797180Y-83078781D01*
X131850903Y-82913438D01*
X131878100Y-82741726D01*
X131878100Y-82567874D01*
X131850903Y-82396162D01*
X131797180Y-82230819D01*
X131718253Y-82075916D01*
X131689061Y-82035736D01*
X131689057Y-82035730D01*
X134339100Y-82035730D01*
X134339100Y-83785863D01*
X134339101Y-83785873D01*
X134353865Y-83860100D01*
X134410116Y-83944284D01*
X134494297Y-84000533D01*
X134494299Y-84000534D01*
X134568533Y-84015300D01*
X136318666Y-84015299D01*
X136318669Y-84015298D01*
X136318673Y-84015298D01*
X136367926Y-84005501D01*
X136392901Y-84000534D01*
X136477084Y-83944284D01*
X136533334Y-83860101D01*
X136548100Y-83785867D01*
X136548099Y-82035734D01*
X136548098Y-82035730D01*
X136548098Y-82035726D01*
X136533334Y-81961499D01*
X136477083Y-81877315D01*
X136392902Y-81821066D01*
X136318667Y-81806300D01*
X134568536Y-81806300D01*
X134568526Y-81806301D01*
X134494299Y-81821065D01*
X134410115Y-81877316D01*
X134353866Y-81961497D01*
X134339100Y-82035730D01*
X131689057Y-82035730D01*
X131616063Y-81935264D01*
X131493135Y-81812336D01*
X131352487Y-81710149D01*
X131352486Y-81710148D01*
X131352484Y-81710147D01*
X131197581Y-81631220D01*
X131197578Y-81631219D01*
X131197576Y-81631218D01*
X131032242Y-81577498D01*
X131032240Y-81577497D01*
X131032238Y-81577497D01*
X130860526Y-81550300D01*
X130686674Y-81550300D01*
X130514962Y-81577497D01*
X130514960Y-81577497D01*
X130514957Y-81577498D01*
X130349623Y-81631218D01*
X130349617Y-81631221D01*
X130194712Y-81710149D01*
X130054064Y-81812336D01*
X129931136Y-81935264D01*
X129828949Y-82075912D01*
X129750021Y-82230817D01*
X129750018Y-82230823D01*
X129696298Y-82396157D01*
X129696297Y-82396160D01*
X129696297Y-82396162D01*
X129669100Y-82567874D01*
X113499100Y-82567874D01*
X113499100Y-80027874D01*
X129669100Y-80027874D01*
X129669100Y-80201726D01*
X129696297Y-80373438D01*
X129696298Y-80373442D01*
X129746973Y-80529405D01*
X129750020Y-80538781D01*
X129750021Y-80538782D01*
X129828949Y-80693687D01*
X129931136Y-80834335D01*
X130054064Y-80957263D01*
X130054067Y-80957265D01*
X130194716Y-81059453D01*
X130349619Y-81138380D01*
X130514962Y-81192103D01*
X130686674Y-81219300D01*
X130686677Y-81219300D01*
X130860523Y-81219300D01*
X130860526Y-81219300D01*
X131032238Y-81192103D01*
X131197581Y-81138380D01*
X131352484Y-81059453D01*
X131493133Y-80957265D01*
X131616065Y-80834333D01*
X131718253Y-80693684D01*
X131797180Y-80538781D01*
X131850903Y-80373438D01*
X131878100Y-80201726D01*
X131878100Y-80027874D01*
X131850903Y-79856162D01*
X131797180Y-79690819D01*
X131718253Y-79535916D01*
X131616065Y-79395267D01*
X131616063Y-79395264D01*
X131493135Y-79272336D01*
X131352487Y-79170149D01*
X131352486Y-79170148D01*
X131352484Y-79170147D01*
X131197581Y-79091220D01*
X131197578Y-79091219D01*
X131197576Y-79091218D01*
X131032242Y-79037498D01*
X131032240Y-79037497D01*
X131032238Y-79037497D01*
X130860526Y-79010300D01*
X130686674Y-79010300D01*
X130514962Y-79037497D01*
X130514960Y-79037497D01*
X130514957Y-79037498D01*
X130349623Y-79091218D01*
X130349617Y-79091221D01*
X130194712Y-79170149D01*
X130054064Y-79272336D01*
X129931136Y-79395264D01*
X129828949Y-79535912D01*
X129750021Y-79690817D01*
X129750018Y-79690823D01*
X129696298Y-79856157D01*
X129696297Y-79856160D01*
X129696297Y-79856162D01*
X129669100Y-80027874D01*
X113499100Y-80027874D01*
X113499100Y-77487874D01*
X129669100Y-77487874D01*
X129669100Y-77661726D01*
X129696297Y-77833438D01*
X129750020Y-77998781D01*
X129750021Y-77998782D01*
X129828949Y-78153687D01*
X129931136Y-78294335D01*
X130054064Y-78417263D01*
X130054067Y-78417265D01*
X130194716Y-78519453D01*
X130349619Y-78598380D01*
X130514962Y-78652103D01*
X130686674Y-78679300D01*
X130686677Y-78679300D01*
X130860523Y-78679300D01*
X130860526Y-78679300D01*
X131032238Y-78652103D01*
X131197581Y-78598380D01*
X131352484Y-78519453D01*
X131493133Y-78417265D01*
X131616065Y-78294333D01*
X131718253Y-78153684D01*
X131797180Y-77998781D01*
X131850903Y-77833438D01*
X131878100Y-77661726D01*
X131878100Y-77487874D01*
X131850903Y-77316162D01*
X131797180Y-77150819D01*
X131718253Y-76995916D01*
X131616065Y-76855267D01*
X131616063Y-76855264D01*
X131493135Y-76732336D01*
X131352487Y-76630149D01*
X131352486Y-76630148D01*
X131352484Y-76630147D01*
X131197581Y-76551220D01*
X131197578Y-76551219D01*
X131197576Y-76551218D01*
X131032242Y-76497498D01*
X131032240Y-76497497D01*
X131032238Y-76497497D01*
X130860526Y-76470300D01*
X130686674Y-76470300D01*
X130514962Y-76497497D01*
X130514960Y-76497497D01*
X130514957Y-76497498D01*
X130349623Y-76551218D01*
X130349617Y-76551221D01*
X130194712Y-76630149D01*
X130054064Y-76732336D01*
X129931136Y-76855264D01*
X129828949Y-76995912D01*
X129750021Y-77150817D01*
X129750018Y-77150823D01*
X129696298Y-77316157D01*
X129696297Y-77316160D01*
X129696297Y-77316162D01*
X129669100Y-77487874D01*
X113499100Y-77487874D01*
X113499100Y-75068838D01*
X115873100Y-75068838D01*
X115873100Y-75320762D01*
X115902484Y-75506283D01*
X115912511Y-75569590D01*
X115990357Y-75809174D01*
X115990359Y-75809179D01*
X116091267Y-76007222D01*
X116104732Y-76033648D01*
X116122701Y-76058380D01*
X116252807Y-76237456D01*
X116252809Y-76237458D01*
X116252811Y-76237461D01*
X116430938Y-76415588D01*
X116430941Y-76415590D01*
X116430944Y-76415593D01*
X116634755Y-76563670D01*
X116859221Y-76678041D01*
X117098815Y-76755890D01*
X117347638Y-76795300D01*
X117347641Y-76795300D01*
X117599559Y-76795300D01*
X117599562Y-76795300D01*
X117848385Y-76755890D01*
X118087979Y-76678041D01*
X118312445Y-76563670D01*
X118516256Y-76415593D01*
X118694393Y-76237456D01*
X118842470Y-76033645D01*
X118956841Y-75809179D01*
X119034690Y-75569585D01*
X119074100Y-75320762D01*
X119074100Y-75068838D01*
X119054941Y-74947874D01*
X129669100Y-74947874D01*
X129669100Y-75121726D01*
X129696297Y-75293438D01*
X129696298Y-75293442D01*
X129705173Y-75320758D01*
X129750020Y-75458781D01*
X129816727Y-75589700D01*
X129828949Y-75613687D01*
X129931136Y-75754335D01*
X130054064Y-75877263D01*
X130054067Y-75877265D01*
X130194716Y-75979453D01*
X130349619Y-76058380D01*
X130514962Y-76112103D01*
X130686674Y-76139300D01*
X130686677Y-76139300D01*
X130860523Y-76139300D01*
X130860526Y-76139300D01*
X131032238Y-76112103D01*
X131197581Y-76058380D01*
X131352484Y-75979453D01*
X131493133Y-75877265D01*
X131616065Y-75754333D01*
X131649049Y-75708934D01*
X148860700Y-75708934D01*
X148860700Y-75837865D01*
X148870695Y-75888111D01*
X148885852Y-75964311D01*
X148935189Y-76083422D01*
X148955905Y-76114425D01*
X149006816Y-76190619D01*
X149006821Y-76190625D01*
X149097974Y-76281778D01*
X149097980Y-76281783D01*
X149205178Y-76353411D01*
X149324289Y-76402748D01*
X149450737Y-76427900D01*
X149450738Y-76427900D01*
X149579662Y-76427900D01*
X149579663Y-76427900D01*
X149706111Y-76402748D01*
X149825222Y-76353411D01*
X149932420Y-76281783D01*
X150023583Y-76190620D01*
X150095211Y-76083422D01*
X150144548Y-75964311D01*
X150169700Y-75837863D01*
X150169700Y-75708937D01*
X150154542Y-75632734D01*
X156582300Y-75632734D01*
X156582300Y-75761665D01*
X156597457Y-75837861D01*
X156607452Y-75888111D01*
X156656789Y-76007222D01*
X156690971Y-76058378D01*
X156728416Y-76114419D01*
X156728421Y-76114425D01*
X156819574Y-76205578D01*
X156819580Y-76205583D01*
X156926778Y-76277211D01*
X157045889Y-76326548D01*
X157172337Y-76351700D01*
X157172338Y-76351700D01*
X157301262Y-76351700D01*
X157301263Y-76351700D01*
X157427711Y-76326548D01*
X157546822Y-76277211D01*
X157654020Y-76205583D01*
X157745183Y-76114420D01*
X157816811Y-76007222D01*
X157866148Y-75888111D01*
X157891300Y-75761663D01*
X157891300Y-75632737D01*
X157866148Y-75506289D01*
X157816811Y-75387178D01*
X157745183Y-75279980D01*
X157745178Y-75279974D01*
X157654025Y-75188821D01*
X157654019Y-75188816D01*
X157623841Y-75168652D01*
X157546822Y-75117189D01*
X157430099Y-75068841D01*
X157430092Y-75068838D01*
X169873100Y-75068838D01*
X169873100Y-75320762D01*
X169902484Y-75506283D01*
X169912511Y-75569590D01*
X169990357Y-75809174D01*
X169990359Y-75809179D01*
X170091267Y-76007222D01*
X170104732Y-76033648D01*
X170122701Y-76058380D01*
X170252807Y-76237456D01*
X170252809Y-76237458D01*
X170252811Y-76237461D01*
X170430938Y-76415588D01*
X170430941Y-76415590D01*
X170430944Y-76415593D01*
X170634755Y-76563670D01*
X170859221Y-76678041D01*
X171098815Y-76755890D01*
X171347638Y-76795300D01*
X171347641Y-76795300D01*
X171599559Y-76795300D01*
X171599562Y-76795300D01*
X171848385Y-76755890D01*
X172087979Y-76678041D01*
X172312445Y-76563670D01*
X172516256Y-76415593D01*
X172694393Y-76237456D01*
X172842470Y-76033645D01*
X172956841Y-75809179D01*
X173034690Y-75569585D01*
X173074100Y-75320762D01*
X173074100Y-75068838D01*
X173034690Y-74820015D01*
X172956841Y-74580421D01*
X172842470Y-74355955D01*
X172694393Y-74152144D01*
X172694390Y-74152141D01*
X172694388Y-74152138D01*
X172516261Y-73974011D01*
X172516258Y-73974009D01*
X172516256Y-73974007D01*
X172312445Y-73825930D01*
X172087979Y-73711559D01*
X172087976Y-73711558D01*
X172087974Y-73711557D01*
X171848390Y-73633711D01*
X171848386Y-73633710D01*
X171848385Y-73633710D01*
X171599562Y-73594300D01*
X171347638Y-73594300D01*
X171098815Y-73633710D01*
X171098809Y-73633711D01*
X170859225Y-73711557D01*
X170859219Y-73711560D01*
X170634751Y-73825932D01*
X170430941Y-73974009D01*
X170430938Y-73974011D01*
X170252811Y-74152138D01*
X170252809Y-74152141D01*
X170104732Y-74355951D01*
X169990360Y-74580419D01*
X169990357Y-74580425D01*
X169912511Y-74820009D01*
X169912510Y-74820014D01*
X169912510Y-74820015D01*
X169873100Y-75068838D01*
X157430092Y-75068838D01*
X157427716Y-75067854D01*
X157427711Y-75067852D01*
X157301265Y-75042700D01*
X157301263Y-75042700D01*
X157172337Y-75042700D01*
X157172334Y-75042700D01*
X157045888Y-75067852D01*
X157045883Y-75067854D01*
X156926778Y-75117189D01*
X156819580Y-75188816D01*
X156819574Y-75188821D01*
X156728421Y-75279974D01*
X156728416Y-75279980D01*
X156656789Y-75387178D01*
X156607454Y-75506283D01*
X156607452Y-75506288D01*
X156582300Y-75632734D01*
X150154542Y-75632734D01*
X150144548Y-75582489D01*
X150095211Y-75463378D01*
X150023583Y-75356180D01*
X150023578Y-75356174D01*
X149932425Y-75265021D01*
X149932419Y-75265016D01*
X149896849Y-75241249D01*
X149825222Y-75193389D01*
X149706111Y-75144052D01*
X149579665Y-75118900D01*
X149579663Y-75118900D01*
X149450737Y-75118900D01*
X149450734Y-75118900D01*
X149324288Y-75144052D01*
X149324283Y-75144054D01*
X149205178Y-75193389D01*
X149097980Y-75265016D01*
X149097974Y-75265021D01*
X149006821Y-75356174D01*
X149006816Y-75356180D01*
X148935189Y-75463378D01*
X148885854Y-75582483D01*
X148885852Y-75582488D01*
X148860700Y-75708934D01*
X131649049Y-75708934D01*
X131718253Y-75613684D01*
X131797180Y-75458781D01*
X131850903Y-75293438D01*
X131878100Y-75121726D01*
X131878100Y-74947874D01*
X131865882Y-74870734D01*
X139843700Y-74870734D01*
X139843700Y-74999665D01*
X139857264Y-75067854D01*
X139868852Y-75126111D01*
X139918189Y-75245222D01*
X139941410Y-75279974D01*
X139989816Y-75352419D01*
X139989821Y-75352425D01*
X140080974Y-75443578D01*
X140080980Y-75443583D01*
X140188178Y-75515211D01*
X140307289Y-75564548D01*
X140433737Y-75589700D01*
X140433738Y-75589700D01*
X140562662Y-75589700D01*
X140562663Y-75589700D01*
X140689111Y-75564548D01*
X140808222Y-75515211D01*
X140915420Y-75443583D01*
X141006583Y-75352420D01*
X141078211Y-75245222D01*
X141127548Y-75126111D01*
X141152700Y-74999663D01*
X141152700Y-74870737D01*
X141127548Y-74744289D01*
X141078211Y-74625178D01*
X141006583Y-74517980D01*
X141006578Y-74517974D01*
X140915425Y-74426821D01*
X140915419Y-74426816D01*
X140879849Y-74403049D01*
X140808222Y-74355189D01*
X140689111Y-74305852D01*
X140562665Y-74280700D01*
X140562663Y-74280700D01*
X140433737Y-74280700D01*
X140433734Y-74280700D01*
X140307288Y-74305852D01*
X140307283Y-74305854D01*
X140188178Y-74355189D01*
X140080980Y-74426816D01*
X140080974Y-74426821D01*
X139989821Y-74517974D01*
X139989816Y-74517980D01*
X139918189Y-74625178D01*
X139868854Y-74744283D01*
X139868852Y-74744288D01*
X139843700Y-74870734D01*
X131865882Y-74870734D01*
X131850903Y-74776162D01*
X131797180Y-74610819D01*
X131718253Y-74455916D01*
X131616065Y-74315267D01*
X131616063Y-74315264D01*
X131493135Y-74192336D01*
X131352487Y-74090149D01*
X131352486Y-74090148D01*
X131352484Y-74090147D01*
X131197581Y-74011220D01*
X131197578Y-74011219D01*
X131197576Y-74011218D01*
X131032242Y-73957498D01*
X131032240Y-73957497D01*
X131032238Y-73957497D01*
X130860526Y-73930300D01*
X130686674Y-73930300D01*
X130514962Y-73957497D01*
X130514960Y-73957497D01*
X130514957Y-73957498D01*
X130349623Y-74011218D01*
X130349617Y-74011221D01*
X130194712Y-74090149D01*
X130054064Y-74192336D01*
X129931136Y-74315264D01*
X129828949Y-74455912D01*
X129750021Y-74610817D01*
X129750018Y-74610823D01*
X129696298Y-74776157D01*
X129696297Y-74776160D01*
X129696297Y-74776162D01*
X129669100Y-74947874D01*
X119054941Y-74947874D01*
X119034690Y-74820015D01*
X118956841Y-74580421D01*
X118842470Y-74355955D01*
X118694393Y-74152144D01*
X118694390Y-74152141D01*
X118694388Y-74152138D01*
X118516261Y-73974011D01*
X118516258Y-73974009D01*
X118516256Y-73974007D01*
X118312445Y-73825930D01*
X118087979Y-73711559D01*
X118087976Y-73711558D01*
X118087974Y-73711557D01*
X117848390Y-73633711D01*
X117848386Y-73633710D01*
X117848385Y-73633710D01*
X117599562Y-73594300D01*
X117347638Y-73594300D01*
X117098815Y-73633710D01*
X117098809Y-73633711D01*
X116859225Y-73711557D01*
X116859219Y-73711560D01*
X116634751Y-73825932D01*
X116430941Y-73974009D01*
X116430938Y-73974011D01*
X116252811Y-74152138D01*
X116252809Y-74152141D01*
X116104732Y-74355951D01*
X115990360Y-74580419D01*
X115990357Y-74580425D01*
X115912511Y-74820009D01*
X115912510Y-74820014D01*
X115912510Y-74820015D01*
X115873100Y-75068838D01*
X113499100Y-75068838D01*
X113499100Y-71546300D01*
X113519102Y-71478179D01*
X113572758Y-71431686D01*
X113625100Y-71420300D01*
X176322100Y-71420300D01*
X176390221Y-71440302D01*
G37*
%TD.AperFunction*%
%TD*%
%TA.AperFunction,Conductor*%
%TO.N,Earth*%
G36*
X159861713Y-85089802D02*
G01*
X159908206Y-85143458D01*
X159918310Y-85213732D01*
X159888816Y-85278312D01*
X159863594Y-85300565D01*
X159791380Y-85348816D01*
X159791374Y-85348821D01*
X159700221Y-85439974D01*
X159700216Y-85439980D01*
X159628589Y-85547178D01*
X159579254Y-85666283D01*
X159579252Y-85666288D01*
X159554100Y-85792734D01*
X159554100Y-85921665D01*
X159567322Y-85988134D01*
X159579252Y-86048111D01*
X159628589Y-86167222D01*
X159673137Y-86233892D01*
X159700216Y-86274419D01*
X159700221Y-86274425D01*
X159791374Y-86365578D01*
X159791380Y-86365583D01*
X159898578Y-86437211D01*
X160017689Y-86486548D01*
X160144137Y-86511700D01*
X160144138Y-86511700D01*
X160273062Y-86511700D01*
X160273063Y-86511700D01*
X160399511Y-86486548D01*
X160518622Y-86437211D01*
X160625820Y-86365583D01*
X160716983Y-86274420D01*
X160788611Y-86167222D01*
X160837948Y-86048111D01*
X160863100Y-85921663D01*
X160863100Y-85792737D01*
X160837948Y-85666289D01*
X160788611Y-85547178D01*
X160716983Y-85439980D01*
X160716978Y-85439974D01*
X160625825Y-85348821D01*
X160625819Y-85348816D01*
X160553606Y-85300565D01*
X160508078Y-85246088D01*
X160499230Y-85175645D01*
X160529872Y-85111601D01*
X160590273Y-85074290D01*
X160623608Y-85069800D01*
X163791000Y-85069800D01*
X163859121Y-85089802D01*
X163905614Y-85143458D01*
X163917000Y-85195800D01*
X163917000Y-86390600D01*
X164265180Y-86390600D01*
X164333301Y-86410602D01*
X164369945Y-86446598D01*
X164424616Y-86528419D01*
X164424621Y-86528425D01*
X164515774Y-86619578D01*
X164515780Y-86619583D01*
X164622978Y-86691211D01*
X164742089Y-86740548D01*
X164868537Y-86765700D01*
X164868538Y-86765700D01*
X164997462Y-86765700D01*
X164997463Y-86765700D01*
X165123911Y-86740548D01*
X165243022Y-86691211D01*
X165350220Y-86619583D01*
X165441383Y-86528420D01*
X165496055Y-86446597D01*
X165550532Y-86401070D01*
X165600820Y-86390600D01*
X166775100Y-86390600D01*
X166843221Y-86410602D01*
X166889714Y-86464258D01*
X166901100Y-86516600D01*
X166901100Y-88053863D01*
X166901101Y-88053873D01*
X166915865Y-88128100D01*
X166972116Y-88212284D01*
X167056297Y-88268533D01*
X167056299Y-88268534D01*
X167130533Y-88283300D01*
X168780666Y-88283299D01*
X168780669Y-88283298D01*
X168780673Y-88283298D01*
X168829926Y-88273501D01*
X168854901Y-88268534D01*
X168939084Y-88212284D01*
X168995334Y-88128101D01*
X169010100Y-88053867D01*
X169010099Y-87867277D01*
X169030101Y-87799160D01*
X169047004Y-87778184D01*
X169491853Y-87333334D01*
X169512970Y-87412143D01*
X169575505Y-87520457D01*
X169663943Y-87608895D01*
X169772257Y-87671430D01*
X169851063Y-87692545D01*
X169227226Y-88316382D01*
X169227226Y-88316383D01*
X169270054Y-88347499D01*
X169453500Y-88440970D01*
X169453506Y-88440973D01*
X169608189Y-88491232D01*
X169666795Y-88531305D01*
X169694432Y-88596702D01*
X169682325Y-88666658D01*
X169634319Y-88718965D01*
X169617472Y-88727474D01*
X169505410Y-88773892D01*
X169456151Y-88794296D01*
X169456105Y-88794315D01*
X169283396Y-88909716D01*
X169283390Y-88909721D01*
X169136521Y-89056590D01*
X169136516Y-89056597D01*
X169060365Y-89170564D01*
X169005888Y-89216092D01*
X168935444Y-89224939D01*
X168871401Y-89194298D01*
X168850835Y-89170564D01*
X168831611Y-89141795D01*
X168774683Y-89056596D01*
X168774680Y-89056593D01*
X168774678Y-89056590D01*
X168627809Y-88909721D01*
X168627803Y-88909716D01*
X168562647Y-88866180D01*
X168455093Y-88794314D01*
X168263186Y-88714824D01*
X168256565Y-88713507D01*
X168059461Y-88674300D01*
X168059459Y-88674300D01*
X167851741Y-88674300D01*
X167851738Y-88674300D01*
X167648013Y-88714824D01*
X167648008Y-88714826D01*
X167456107Y-88794314D01*
X167283396Y-88909716D01*
X167283390Y-88909721D01*
X167136521Y-89056590D01*
X167136516Y-89056596D01*
X167021114Y-89229307D01*
X166941626Y-89421208D01*
X166941624Y-89421213D01*
X166901100Y-89624938D01*
X166901100Y-89832661D01*
X166928066Y-89968225D01*
X166941624Y-90036386D01*
X167021114Y-90228293D01*
X167071844Y-90304215D01*
X167136516Y-90401003D01*
X167136521Y-90401009D01*
X167283390Y-90547878D01*
X167283396Y-90547883D01*
X167456107Y-90663286D01*
X167648014Y-90742776D01*
X167851741Y-90783300D01*
X167851742Y-90783300D01*
X168059458Y-90783300D01*
X168059459Y-90783300D01*
X168263186Y-90742776D01*
X168455093Y-90663286D01*
X168627804Y-90547883D01*
X168774683Y-90401004D01*
X168850836Y-90287034D01*
X168905312Y-90241507D01*
X168975755Y-90232659D01*
X169039799Y-90263301D01*
X169060363Y-90287032D01*
X169071844Y-90304215D01*
X169136516Y-90401003D01*
X169136521Y-90401009D01*
X169283390Y-90547878D01*
X169283396Y-90547883D01*
X169456107Y-90663286D01*
X169648014Y-90742776D01*
X169851741Y-90783300D01*
X169851742Y-90783300D01*
X170059458Y-90783300D01*
X170059459Y-90783300D01*
X170263186Y-90742776D01*
X170455093Y-90663286D01*
X170627804Y-90547883D01*
X170774683Y-90401004D01*
X170890086Y-90228293D01*
X170969576Y-90036386D01*
X171010100Y-89832659D01*
X171010100Y-89624941D01*
X170969576Y-89421214D01*
X170890086Y-89229307D01*
X170774683Y-89056596D01*
X170774678Y-89056590D01*
X170627809Y-88909721D01*
X170627803Y-88909716D01*
X170562647Y-88866180D01*
X170455093Y-88794314D01*
X170401539Y-88772131D01*
X170293728Y-88727474D01*
X170238447Y-88682925D01*
X170216026Y-88615562D01*
X170233584Y-88546771D01*
X170285547Y-88498392D01*
X170303010Y-88491232D01*
X170457693Y-88440973D01*
X170457699Y-88440970D01*
X170641141Y-88347501D01*
X170683972Y-88316382D01*
X170683972Y-88316381D01*
X170060136Y-87692545D01*
X170138943Y-87671430D01*
X170247257Y-87608895D01*
X170335695Y-87520457D01*
X170398230Y-87412143D01*
X170419346Y-87333335D01*
X171043182Y-87957172D01*
X171074301Y-87914341D01*
X171167770Y-87730899D01*
X171167773Y-87730893D01*
X171231391Y-87535096D01*
X171263600Y-87331738D01*
X171263600Y-87125861D01*
X171231391Y-86922503D01*
X171167773Y-86726706D01*
X171167770Y-86726700D01*
X171089865Y-86573803D01*
X171076761Y-86504026D01*
X171103461Y-86438242D01*
X171161488Y-86397335D01*
X171202132Y-86390600D01*
X173951000Y-86390600D01*
X174019121Y-86410602D01*
X174065614Y-86464258D01*
X174077000Y-86516600D01*
X174077000Y-91852600D01*
X174056998Y-91920721D01*
X174003342Y-91967214D01*
X173951000Y-91978600D01*
X164094800Y-91978600D01*
X164094800Y-101072800D01*
X164074798Y-101140921D01*
X164021142Y-101187414D01*
X163968800Y-101198800D01*
X153324200Y-101198800D01*
X153256079Y-101178798D01*
X153209586Y-101125142D01*
X153198200Y-101072800D01*
X153198200Y-88368220D01*
X153218202Y-88300099D01*
X153271858Y-88253606D01*
X153342132Y-88243502D01*
X153372416Y-88251810D01*
X153464489Y-88289948D01*
X153590937Y-88315100D01*
X153590938Y-88315100D01*
X153719862Y-88315100D01*
X153719863Y-88315100D01*
X153846311Y-88289948D01*
X153965422Y-88240611D01*
X154072620Y-88168983D01*
X154163783Y-88077820D01*
X154235411Y-87970622D01*
X154284748Y-87851511D01*
X154309900Y-87725063D01*
X154309900Y-87596137D01*
X154284748Y-87469689D01*
X154235411Y-87350578D01*
X154163783Y-87243380D01*
X154163778Y-87243374D01*
X154072625Y-87152221D01*
X154072619Y-87152216D01*
X154000855Y-87104265D01*
X153965422Y-87080589D01*
X153846311Y-87031252D01*
X153719865Y-87006100D01*
X153719863Y-87006100D01*
X153590937Y-87006100D01*
X153590934Y-87006100D01*
X153464488Y-87031252D01*
X153464478Y-87031255D01*
X153372417Y-87069388D01*
X153301827Y-87076977D01*
X153238341Y-87045197D01*
X153202114Y-86984139D01*
X153198200Y-86952979D01*
X153198200Y-85195800D01*
X153218202Y-85127679D01*
X153271858Y-85081186D01*
X153324200Y-85069800D01*
X159793592Y-85069800D01*
X159861713Y-85089802D01*
G37*
%TD.AperFunction*%
%TD*%
M02*
