M48
; DRILL file {KiCad 9.0.6+1} date 2025-12-12T13:43:11+0000
; FORMAT={-:-/ absolute / metric / decimal}
; #@! TF.CreationDate,2025-12-12T13:43:11+00:00
; #@! TF.GenerationSoftware,Kicad,Pcbnew,9.0.6+1
; #@! TF.FileFunction,Plated,1,6,PTH
FMAT,2
METRIC
; #@! TA.AperFunction,Plated,PTH,ViaDrill
T1C0.400
; #@! TA.AperFunction,Plated,PTH,ComponentDrill
T2C0.950
; #@! TA.AperFunction,Plated,PTH,ComponentDrill
T3C1.000
; #@! TA.AperFunction,Plated,PTH,ComponentDrill
T4C2.300
%
G90
G05
T1
X116.038Y-95.027
X117.562Y-83.825
X117.587Y-79.025
X117.613Y-90.099
X119.823Y-96.601
X123.556Y-79.075
X123.582Y-83.647
X123.582Y-89.997
X125.284Y-101.046
X125.309Y-94.595
X139.304Y-90.759
X140.498Y-74.935
X143.069Y-91.084
X144.613Y-87.584
X146.163Y-91.547
X146.543Y-92.918
X147.153Y-94.011
X148.829Y-81.488
X149.007Y-88.981
X149.515Y-75.773
X149.541Y-94.29
X150.15Y-88.753
X150.43Y-91.471
X150.633Y-94.087
X150.76Y-97.389
X151.369Y-93.249
X153.655Y-87.661
X154.316Y-104.298
X155.027Y-91.928
X155.154Y-86.848
X157.237Y-75.697
X158.304Y-82.454
X159.523Y-96.144
X160.209Y-85.857
X161.352Y-94.468
X161.707Y-99.218
X161.733Y-103.637
X164.933Y-86.111
X165.035Y-96.373
X166.863Y-93.833
T2
X167.956Y-87.229
X167.956Y-89.729
X169.956Y-87.229
X169.956Y-89.729
T3
X130.774Y-75.035
X130.774Y-77.575
X130.774Y-80.115
X130.774Y-82.655
X130.774Y-85.195
X135.444Y-82.911
X135.444Y-85.451
X135.444Y-87.991
X135.444Y-90.531
X135.444Y-93.071
X135.444Y-95.611
X135.596Y-100.919
X135.596Y-103.459
X138.136Y-100.919
X138.136Y-103.459
X140.676Y-100.919
X140.676Y-103.459
X146.366Y-100.945
X146.366Y-103.485
X148.906Y-100.945
X148.906Y-103.485
T4
X172.816Y-82.479
X172.816Y-94.479
M30
