%TF.GenerationSoftware,KiCad,Pcbnew,9.0.6+1*%
%TF.CreationDate,2025-12-11T16:55:29+00:00*%
%TF.ProjectId,KDT_Hierarchical_KiBot,4b44545f-4869-4657-9261-726368696361,+ (Unreleased)*%
%TF.SameCoordinates,Original*%
%TF.FileFunction,Copper,L6,Bot*%
%TF.FilePolarity,Positive*%
%FSLAX46Y46*%
G04 Gerber Fmt 4.6, Leading zero omitted, Abs format (unit mm)*
G04 Created by KiCad (PCBNEW 9.0.6+1) date 2025-12-11 16:55:29*
%MOMM*%
%LPD*%
G01*
G04 APERTURE LIST*
%TA.AperFunction,ComponentPad*%
%ADD10R,1.700000X1.700000*%
%TD*%
%TA.AperFunction,ComponentPad*%
%ADD11O,1.700000X1.700000*%
%TD*%
%TA.AperFunction,ComponentPad*%
%ADD12R,1.600000X1.600000*%
%TD*%
%TA.AperFunction,ComponentPad*%
%ADD13C,1.600000*%
%TD*%
%TA.AperFunction,ComponentPad*%
%ADD14C,4.000000*%
%TD*%
%TA.AperFunction,SMDPad,CuDef*%
%ADD15C,1.000000*%
%TD*%
%TA.AperFunction,ViaPad*%
%ADD16C,0.800000*%
%TD*%
%TA.AperFunction,Conductor*%
%ADD17C,0.508000*%
%TD*%
%TA.AperFunction,Conductor*%
%ADD18C,0.381000*%
%TD*%
G04 APERTURE END LIST*
D10*
%TO.P,J3,1,Pin_1*%
%TO.N,Net-(J3-Pin_1)*%
X130773600Y-85194800D03*
D11*
%TO.P,J3,2,Pin_2*%
%TO.N,Net-(J3-Pin_2)*%
X130773600Y-82654800D03*
%TO.P,J3,3,Pin_3*%
%TO.N,Net-(J3-Pin_3)*%
X130773600Y-80114800D03*
%TO.P,J3,4,Pin_4*%
%TO.N,Net-(J3-Pin_4)*%
X130773600Y-77574800D03*
%TO.P,J3,5,Pin_5*%
%TO.N,Net-(J3-Pin_5)*%
X130773600Y-75034800D03*
%TD*%
D10*
%TO.P,J6,1,Pin_1*%
%TO.N,Net-(J6-Pin_1)*%
X135443600Y-82910800D03*
D11*
%TO.P,J6,2,Pin_2*%
%TO.N,Net-(J6-Pin_2)*%
X135443600Y-85450800D03*
%TO.P,J6,3,Pin_3*%
%TO.N,Net-(J6-Pin_3)*%
X135443600Y-87990800D03*
%TO.P,J6,4,Pin_4*%
%TO.N,Net-(J6-Pin_4)*%
X135443600Y-90530800D03*
%TO.P,J6,5,Pin_5*%
%TO.N,Net-(J6-Pin_5)*%
X135443600Y-93070800D03*
%TO.P,J6,6,Pin_6*%
%TO.N,Net-(J6-Pin_6)*%
X135443600Y-95610800D03*
%TD*%
D12*
%TO.P,J2,1,VBUS*%
%TO.N,Net-(J2-VBUS)*%
X167955600Y-87228800D03*
D13*
%TO.P,J2,2,D-*%
%TO.N,Net-(J2-D-)*%
X167955600Y-89728800D03*
%TO.P,J2,3,D+*%
%TO.N,Net-(J2-D+)*%
X169955600Y-89728800D03*
%TO.P,J2,4,GND*%
%TO.N,Earth*%
X169955600Y-87228800D03*
D14*
%TO.P,J2,5,Shield*%
%TO.N,Net-(J2-Shield)*%
X172815600Y-82478800D03*
X172815600Y-94478800D03*
%TD*%
D10*
%TO.P,J5,1,Pin_1*%
%TO.N,/MISO2*%
X135596000Y-103459400D03*
D11*
%TO.P,J5,2,Pin_2*%
%TO.N,+5V*%
X135596000Y-100919400D03*
%TO.P,J5,3,Pin_3*%
%TO.N,/SCK2*%
X138136000Y-103459400D03*
%TO.P,J5,4,Pin_4*%
%TO.N,/MOSI2*%
X138136000Y-100919400D03*
%TO.P,J5,5,Pin_5*%
%TO.N,/RESET2*%
X140676000Y-103459400D03*
%TO.P,J5,6,Pin_6*%
%TO.N,GND*%
X140676000Y-100919400D03*
%TD*%
D10*
%TO.P,J4,1,Pin_1*%
%TO.N,Net-(J4-Pin_1)*%
X146365600Y-100944800D03*
D11*
%TO.P,J4,2,Pin_2*%
%TO.N,Net-(J4-Pin_2)*%
X148905600Y-100944800D03*
%TO.P,J4,3,Pin_3*%
%TO.N,Net-(J4-Pin_3)*%
X146365600Y-103484800D03*
%TO.P,J4,4,Pin_4*%
%TO.N,Net-(J4-Pin_4)*%
X148905600Y-103484800D03*
%TD*%
D15*
%TO.P,TP3,1,1*%
%TO.N,Net-(J2-VBUS)*%
X167955600Y-84180800D03*
%TD*%
%TO.P,TP2,1,1*%
%TO.N,VBUS*%
X162266000Y-85857200D03*
%TD*%
%TO.P,TP6,1,1*%
%TO.N,Net-(U1-XTAL1)*%
X158760800Y-75748000D03*
%TD*%
%TO.P,TP5,1,1*%
%TO.N,Net-(J2-D+)*%
X173543600Y-89768800D03*
%TD*%
%TO.P,TP8,1,1*%
%TO.N,Net-(U1-PC0{slash}XTAL2)*%
X147965800Y-75722600D03*
%TD*%
%TO.P,TP9,1,1*%
%TO.N,Net-(U1-D-)*%
X150429600Y-90276800D03*
%TD*%
%TO.P,TP4,1,1*%
%TO.N,Earth*%
X173543600Y-86466800D03*
%TD*%
D16*
%TO.N,GND*%
X150150200Y-88752800D03*
X158303600Y-82453600D03*
X123556400Y-79075400D03*
X117562000Y-83825200D03*
X139304400Y-90759400D03*
X117587400Y-79024600D03*
X119822600Y-96601400D03*
X161732600Y-103637200D03*
X125283600Y-101046400D03*
X123581800Y-83647400D03*
X148829400Y-81488400D03*
%TO.N,Net-(J2-Shield)*%
X166863400Y-93832800D03*
X164933000Y-86111200D03*
X165034600Y-96372800D03*
%TO.N,+5V*%
X153655400Y-87660600D03*
X117612800Y-90099000D03*
X154315800Y-104297600D03*
X123581800Y-89997400D03*
X140498200Y-74935200D03*
X125309000Y-94594800D03*
X116038000Y-95026600D03*
X149007200Y-88981400D03*
%TO.N,Net-(U1-XTAL1)*%
X157236800Y-75697200D03*
%TO.N,Net-(U1-PC0{slash}XTAL2)*%
X149515200Y-75773400D03*
%TO.N,Earth*%
X155027000Y-91927800D03*
X155154000Y-86847800D03*
X161351600Y-94467800D03*
X161707200Y-99217600D03*
X159522800Y-96144200D03*
%TO.N,VBUS*%
X160208600Y-85857200D03*
%TO.N,Net-(J3-Pin_4)*%
X151369400Y-93248600D03*
%TO.N,Net-(J3-Pin_3)*%
X150632800Y-94086800D03*
%TO.N,Net-(J3-Pin_2)*%
X150759800Y-97388800D03*
%TO.N,Net-(J3-Pin_1)*%
X149540600Y-94290000D03*
%TO.N,Net-(J6-Pin_3)*%
X144613000Y-87584400D03*
%TO.N,Net-(J6-Pin_5)*%
X146543400Y-92918400D03*
%TO.N,Net-(J6-Pin_6)*%
X147153000Y-94010600D03*
%TO.N,Net-(J6-Pin_4)*%
X146162700Y-91546800D03*
%TO.N,Net-(J6-Pin_2)*%
X143068711Y-91084489D03*
%TO.N,Net-(U1-D-)*%
X150429600Y-91470602D03*
%TD*%
D17*
%TO.N,Net-(J2-VBUS)*%
X167955600Y-87228800D02*
X167955600Y-84180800D01*
%TO.N,Net-(U1-XTAL1)*%
X158710000Y-75697200D02*
X158760800Y-75748000D01*
X157236800Y-75697200D02*
X158710000Y-75697200D01*
%TO.N,Net-(J2-D+)*%
X169955600Y-89728800D02*
X173503600Y-89728800D01*
X173503600Y-89728800D02*
X173543600Y-89768800D01*
%TO.N,Net-(U1-PC0{slash}XTAL2)*%
X149464400Y-75722600D02*
X149515200Y-75773400D01*
X147965800Y-75722600D02*
X149464400Y-75722600D01*
%TO.N,Earth*%
X169955600Y-87228800D02*
X172781600Y-87228800D01*
X172781600Y-87228800D02*
X173543600Y-86466800D01*
%TO.N,VBUS*%
X160208600Y-85857200D02*
X162266000Y-85857200D01*
%TO.N,Net-(J3-Pin_4)*%
X130773600Y-77574800D02*
X143366400Y-77574800D01*
X151369400Y-85577800D02*
X151369400Y-93248600D01*
X143366400Y-77574800D02*
X151369400Y-85577800D01*
%TO.N,Net-(J3-Pin_3)*%
X144103000Y-80114800D02*
X148194400Y-84206200D01*
X148194400Y-84206200D02*
X148194400Y-91648400D01*
X130773600Y-80114800D02*
X144103000Y-80114800D01*
X148194400Y-91648400D02*
X150632800Y-94086800D01*
%TO.N,Net-(J3-Pin_2)*%
X139781726Y-97414200D02*
X133411600Y-97414200D01*
X132776600Y-96779200D02*
X132776600Y-83444200D01*
X139807126Y-97388800D02*
X139781726Y-97414200D01*
X133411600Y-97414200D02*
X132776600Y-96779200D01*
X132776600Y-83444200D02*
X131987200Y-82654800D01*
X150759800Y-97388800D02*
X139807126Y-97388800D01*
X131987200Y-82654800D02*
X130773600Y-82654800D01*
%TO.N,Net-(J3-Pin_1)*%
X128763400Y-83901400D02*
X128763400Y-82805526D01*
X130056800Y-85194800D02*
X128763400Y-83901400D01*
X128763400Y-82805526D02*
X130170527Y-81398399D01*
X147356200Y-92105600D02*
X149540600Y-94290000D01*
X130170527Y-81398399D02*
X144167399Y-81398399D01*
X130773600Y-85194800D02*
X130056800Y-85194800D01*
X147356200Y-84587200D02*
X147356200Y-92105600D01*
X144167399Y-81398399D02*
X147356200Y-84587200D01*
%TO.N,Net-(J6-Pin_3)*%
X142327000Y-87990800D02*
X142733400Y-87584400D01*
X142733400Y-87584400D02*
X144613000Y-87584400D01*
X135443600Y-87990800D02*
X142327000Y-87990800D01*
%TO.N,Net-(J6-Pin_5)*%
X146543400Y-92918400D02*
X135596000Y-92918400D01*
X135596000Y-92918400D02*
X135443600Y-93070800D01*
%TO.N,Net-(J6-Pin_6)*%
X142149200Y-94010600D02*
X140549000Y-95610800D01*
X140549000Y-95610800D02*
X135443600Y-95610800D01*
X147153000Y-94010600D02*
X142149200Y-94010600D01*
%TO.N,Net-(J6-Pin_4)*%
X145762701Y-91946799D02*
X136859599Y-91946799D01*
X136859599Y-91946799D02*
X135443600Y-90530800D01*
X146162700Y-91546800D02*
X145762701Y-91946799D01*
%TO.N,Net-(J6-Pin_2)*%
X133919600Y-86974800D02*
X133919600Y-88326274D01*
X135443600Y-85450800D02*
X133919600Y-86974800D01*
X141231423Y-89247201D02*
X143068711Y-91084489D01*
X134840527Y-89247201D02*
X141231423Y-89247201D01*
X133919600Y-88326274D02*
X134840527Y-89247201D01*
D18*
%TO.N,Net-(U1-D-)*%
X150429600Y-90276800D02*
X150429600Y-91470602D01*
%TD*%
M02*
