%TF.GenerationSoftware,KiCad,Pcbnew,9.0.6+1*%
%TF.CreationDate,2025-12-12T12:11:32+00:00*%
%TF.ProjectId,KDT_Hierarchical_KiBot,4b44545f-4869-4657-9261-726368696361,0.1.0+ (Unreleased)*%
%TF.SameCoordinates,Original*%
%TF.FileFunction,Legend,Bot*%
%TF.FilePolarity,Positive*%
%FSLAX46Y46*%
G04 Gerber Fmt 4.6, Leading zero omitted, Abs format (unit mm)*
G04 Created by KiCad (PCBNEW 9.0.6+1) date 2025-12-12 12:11:32*
%MOMM*%
%LPD*%
G01*
G04 APERTURE LIST*
G04 Aperture macros list*
%AMRoundRect*
0 Rectangle with rounded corners*
0 $1 Rounding radius*
0 $2 $3 $4 $5 $6 $7 $8 $9 X,Y pos of 4 corners*
0 Add a 4 corners polygon primitive as box body*
4,1,4,$2,$3,$4,$5,$6,$7,$8,$9,$2,$3,0*
0 Add four circle primitives for the rounded corners*
1,1,$1+$1,$2,$3*
1,1,$1+$1,$4,$5*
1,1,$1+$1,$6,$7*
1,1,$1+$1,$8,$9*
0 Add four rect primitives between the rounded corners*
20,1,$1+$1,$2,$3,$4,$5,0*
20,1,$1+$1,$4,$5,$6,$7,0*
20,1,$1+$1,$6,$7,$8,$9,0*
20,1,$1+$1,$8,$9,$2,$3,0*%
G04 Aperture macros list end*
%ADD10C,0.150000*%
%ADD11C,0.120000*%
%ADD12O,1.600000X2.100000*%
%ADD13C,2.100000*%
%ADD14RoundRect,0.050000X0.850000X0.850000X-0.850000X0.850000X-0.850000X-0.850000X0.850000X-0.850000X0*%
%ADD15O,1.800000X1.800000*%
%ADD16RoundRect,0.050000X-0.850000X-0.850000X0.850000X-0.850000X0.850000X0.850000X-0.850000X0.850000X0*%
%ADD17RoundRect,0.050000X0.800000X-0.800000X0.800000X0.800000X-0.800000X0.800000X-0.800000X-0.800000X0*%
%ADD18C,1.700000*%
%ADD19C,4.100000*%
%ADD20C,2.800000*%
%ADD21RoundRect,0.050000X0.850000X-0.850000X0.850000X0.850000X-0.850000X0.850000X-0.850000X-0.850000X0*%
%ADD22C,1.100000*%
G04 APERTURE END LIST*
D10*
X171579704Y-84778619D02*
X171008276Y-84778619D01*
X171293990Y-85778619D02*
X171293990Y-84778619D01*
X170674942Y-85778619D02*
X170674942Y-84778619D01*
X170674942Y-84778619D02*
X170293990Y-84778619D01*
X170293990Y-84778619D02*
X170198752Y-84826238D01*
X170198752Y-84826238D02*
X170151133Y-84873857D01*
X170151133Y-84873857D02*
X170103514Y-84969095D01*
X170103514Y-84969095D02*
X170103514Y-85111952D01*
X170103514Y-85111952D02*
X170151133Y-85207190D01*
X170151133Y-85207190D02*
X170198752Y-85254809D01*
X170198752Y-85254809D02*
X170293990Y-85302428D01*
X170293990Y-85302428D02*
X170674942Y-85302428D01*
X169770180Y-84778619D02*
X169151133Y-84778619D01*
X169151133Y-84778619D02*
X169484466Y-85159571D01*
X169484466Y-85159571D02*
X169341609Y-85159571D01*
X169341609Y-85159571D02*
X169246371Y-85207190D01*
X169246371Y-85207190D02*
X169198752Y-85254809D01*
X169198752Y-85254809D02*
X169151133Y-85350047D01*
X169151133Y-85350047D02*
X169151133Y-85588142D01*
X169151133Y-85588142D02*
X169198752Y-85683380D01*
X169198752Y-85683380D02*
X169246371Y-85731000D01*
X169246371Y-85731000D02*
X169341609Y-85778619D01*
X169341609Y-85778619D02*
X169627323Y-85778619D01*
X169627323Y-85778619D02*
X169722561Y-85731000D01*
X169722561Y-85731000D02*
X169770180Y-85683380D01*
X163350104Y-87140819D02*
X162778676Y-87140819D01*
X163064390Y-88140819D02*
X163064390Y-87140819D01*
X162445342Y-88140819D02*
X162445342Y-87140819D01*
X162445342Y-87140819D02*
X162064390Y-87140819D01*
X162064390Y-87140819D02*
X161969152Y-87188438D01*
X161969152Y-87188438D02*
X161921533Y-87236057D01*
X161921533Y-87236057D02*
X161873914Y-87331295D01*
X161873914Y-87331295D02*
X161873914Y-87474152D01*
X161873914Y-87474152D02*
X161921533Y-87569390D01*
X161921533Y-87569390D02*
X161969152Y-87617009D01*
X161969152Y-87617009D02*
X162064390Y-87664628D01*
X162064390Y-87664628D02*
X162445342Y-87664628D01*
X161492961Y-87236057D02*
X161445342Y-87188438D01*
X161445342Y-87188438D02*
X161350104Y-87140819D01*
X161350104Y-87140819D02*
X161112009Y-87140819D01*
X161112009Y-87140819D02*
X161016771Y-87188438D01*
X161016771Y-87188438D02*
X160969152Y-87236057D01*
X160969152Y-87236057D02*
X160921533Y-87331295D01*
X160921533Y-87331295D02*
X160921533Y-87426533D01*
X160921533Y-87426533D02*
X160969152Y-87569390D01*
X160969152Y-87569390D02*
X161540580Y-88140819D01*
X161540580Y-88140819D02*
X160921533Y-88140819D01*
X160073504Y-77107819D02*
X159502076Y-77107819D01*
X159787790Y-78107819D02*
X159787790Y-77107819D01*
X159168742Y-78107819D02*
X159168742Y-77107819D01*
X159168742Y-77107819D02*
X158787790Y-77107819D01*
X158787790Y-77107819D02*
X158692552Y-77155438D01*
X158692552Y-77155438D02*
X158644933Y-77203057D01*
X158644933Y-77203057D02*
X158597314Y-77298295D01*
X158597314Y-77298295D02*
X158597314Y-77441152D01*
X158597314Y-77441152D02*
X158644933Y-77536390D01*
X158644933Y-77536390D02*
X158692552Y-77584009D01*
X158692552Y-77584009D02*
X158787790Y-77631628D01*
X158787790Y-77631628D02*
X159168742Y-77631628D01*
X157740171Y-77107819D02*
X157930647Y-77107819D01*
X157930647Y-77107819D02*
X158025885Y-77155438D01*
X158025885Y-77155438D02*
X158073504Y-77203057D01*
X158073504Y-77203057D02*
X158168742Y-77345914D01*
X158168742Y-77345914D02*
X158216361Y-77536390D01*
X158216361Y-77536390D02*
X158216361Y-77917342D01*
X158216361Y-77917342D02*
X158168742Y-78012580D01*
X158168742Y-78012580D02*
X158121123Y-78060200D01*
X158121123Y-78060200D02*
X158025885Y-78107819D01*
X158025885Y-78107819D02*
X157835409Y-78107819D01*
X157835409Y-78107819D02*
X157740171Y-78060200D01*
X157740171Y-78060200D02*
X157692552Y-78012580D01*
X157692552Y-78012580D02*
X157644933Y-77917342D01*
X157644933Y-77917342D02*
X157644933Y-77679247D01*
X157644933Y-77679247D02*
X157692552Y-77584009D01*
X157692552Y-77584009D02*
X157740171Y-77536390D01*
X157740171Y-77536390D02*
X157835409Y-77488771D01*
X157835409Y-77488771D02*
X158025885Y-77488771D01*
X158025885Y-77488771D02*
X158121123Y-77536390D01*
X158121123Y-77536390D02*
X158168742Y-77584009D01*
X158168742Y-77584009D02*
X158216361Y-77679247D01*
X174780104Y-91027019D02*
X174208676Y-91027019D01*
X174494390Y-92027019D02*
X174494390Y-91027019D01*
X173875342Y-92027019D02*
X173875342Y-91027019D01*
X173875342Y-91027019D02*
X173494390Y-91027019D01*
X173494390Y-91027019D02*
X173399152Y-91074638D01*
X173399152Y-91074638D02*
X173351533Y-91122257D01*
X173351533Y-91122257D02*
X173303914Y-91217495D01*
X173303914Y-91217495D02*
X173303914Y-91360352D01*
X173303914Y-91360352D02*
X173351533Y-91455590D01*
X173351533Y-91455590D02*
X173399152Y-91503209D01*
X173399152Y-91503209D02*
X173494390Y-91550828D01*
X173494390Y-91550828D02*
X173875342Y-91550828D01*
X172399152Y-91027019D02*
X172875342Y-91027019D01*
X172875342Y-91027019D02*
X172922961Y-91503209D01*
X172922961Y-91503209D02*
X172875342Y-91455590D01*
X172875342Y-91455590D02*
X172780104Y-91407971D01*
X172780104Y-91407971D02*
X172542009Y-91407971D01*
X172542009Y-91407971D02*
X172446771Y-91455590D01*
X172446771Y-91455590D02*
X172399152Y-91503209D01*
X172399152Y-91503209D02*
X172351533Y-91598447D01*
X172351533Y-91598447D02*
X172351533Y-91836542D01*
X172351533Y-91836542D02*
X172399152Y-91931780D01*
X172399152Y-91931780D02*
X172446771Y-91979400D01*
X172446771Y-91979400D02*
X172542009Y-92027019D01*
X172542009Y-92027019D02*
X172780104Y-92027019D01*
X172780104Y-92027019D02*
X172875342Y-91979400D01*
X172875342Y-91979400D02*
X172922961Y-91931780D01*
X149176904Y-77107819D02*
X148605476Y-77107819D01*
X148891190Y-78107819D02*
X148891190Y-77107819D01*
X148272142Y-78107819D02*
X148272142Y-77107819D01*
X148272142Y-77107819D02*
X147891190Y-77107819D01*
X147891190Y-77107819D02*
X147795952Y-77155438D01*
X147795952Y-77155438D02*
X147748333Y-77203057D01*
X147748333Y-77203057D02*
X147700714Y-77298295D01*
X147700714Y-77298295D02*
X147700714Y-77441152D01*
X147700714Y-77441152D02*
X147748333Y-77536390D01*
X147748333Y-77536390D02*
X147795952Y-77584009D01*
X147795952Y-77584009D02*
X147891190Y-77631628D01*
X147891190Y-77631628D02*
X148272142Y-77631628D01*
X147129285Y-77536390D02*
X147224523Y-77488771D01*
X147224523Y-77488771D02*
X147272142Y-77441152D01*
X147272142Y-77441152D02*
X147319761Y-77345914D01*
X147319761Y-77345914D02*
X147319761Y-77298295D01*
X147319761Y-77298295D02*
X147272142Y-77203057D01*
X147272142Y-77203057D02*
X147224523Y-77155438D01*
X147224523Y-77155438D02*
X147129285Y-77107819D01*
X147129285Y-77107819D02*
X146938809Y-77107819D01*
X146938809Y-77107819D02*
X146843571Y-77155438D01*
X146843571Y-77155438D02*
X146795952Y-77203057D01*
X146795952Y-77203057D02*
X146748333Y-77298295D01*
X146748333Y-77298295D02*
X146748333Y-77345914D01*
X146748333Y-77345914D02*
X146795952Y-77441152D01*
X146795952Y-77441152D02*
X146843571Y-77488771D01*
X146843571Y-77488771D02*
X146938809Y-77536390D01*
X146938809Y-77536390D02*
X147129285Y-77536390D01*
X147129285Y-77536390D02*
X147224523Y-77584009D01*
X147224523Y-77584009D02*
X147272142Y-77631628D01*
X147272142Y-77631628D02*
X147319761Y-77726866D01*
X147319761Y-77726866D02*
X147319761Y-77917342D01*
X147319761Y-77917342D02*
X147272142Y-78012580D01*
X147272142Y-78012580D02*
X147224523Y-78060200D01*
X147224523Y-78060200D02*
X147129285Y-78107819D01*
X147129285Y-78107819D02*
X146938809Y-78107819D01*
X146938809Y-78107819D02*
X146843571Y-78060200D01*
X146843571Y-78060200D02*
X146795952Y-78012580D01*
X146795952Y-78012580D02*
X146748333Y-77917342D01*
X146748333Y-77917342D02*
X146748333Y-77726866D01*
X146748333Y-77726866D02*
X146795952Y-77631628D01*
X146795952Y-77631628D02*
X146843571Y-77584009D01*
X146843571Y-77584009D02*
X146938809Y-77536390D01*
X151666104Y-91611219D02*
X151094676Y-91611219D01*
X151380390Y-92611219D02*
X151380390Y-91611219D01*
X150761342Y-92611219D02*
X150761342Y-91611219D01*
X150761342Y-91611219D02*
X150380390Y-91611219D01*
X150380390Y-91611219D02*
X150285152Y-91658838D01*
X150285152Y-91658838D02*
X150237533Y-91706457D01*
X150237533Y-91706457D02*
X150189914Y-91801695D01*
X150189914Y-91801695D02*
X150189914Y-91944552D01*
X150189914Y-91944552D02*
X150237533Y-92039790D01*
X150237533Y-92039790D02*
X150285152Y-92087409D01*
X150285152Y-92087409D02*
X150380390Y-92135028D01*
X150380390Y-92135028D02*
X150761342Y-92135028D01*
X149713723Y-92611219D02*
X149523247Y-92611219D01*
X149523247Y-92611219D02*
X149428009Y-92563600D01*
X149428009Y-92563600D02*
X149380390Y-92515980D01*
X149380390Y-92515980D02*
X149285152Y-92373123D01*
X149285152Y-92373123D02*
X149237533Y-92182647D01*
X149237533Y-92182647D02*
X149237533Y-91801695D01*
X149237533Y-91801695D02*
X149285152Y-91706457D01*
X149285152Y-91706457D02*
X149332771Y-91658838D01*
X149332771Y-91658838D02*
X149428009Y-91611219D01*
X149428009Y-91611219D02*
X149618485Y-91611219D01*
X149618485Y-91611219D02*
X149713723Y-91658838D01*
X149713723Y-91658838D02*
X149761342Y-91706457D01*
X149761342Y-91706457D02*
X149808961Y-91801695D01*
X149808961Y-91801695D02*
X149808961Y-92039790D01*
X149808961Y-92039790D02*
X149761342Y-92135028D01*
X149761342Y-92135028D02*
X149713723Y-92182647D01*
X149713723Y-92182647D02*
X149618485Y-92230266D01*
X149618485Y-92230266D02*
X149428009Y-92230266D01*
X149428009Y-92230266D02*
X149332771Y-92182647D01*
X149332771Y-92182647D02*
X149285152Y-92135028D01*
X149285152Y-92135028D02*
X149237533Y-92039790D01*
X174703904Y-87648819D02*
X174132476Y-87648819D01*
X174418190Y-88648819D02*
X174418190Y-87648819D01*
X173799142Y-88648819D02*
X173799142Y-87648819D01*
X173799142Y-87648819D02*
X173418190Y-87648819D01*
X173418190Y-87648819D02*
X173322952Y-87696438D01*
X173322952Y-87696438D02*
X173275333Y-87744057D01*
X173275333Y-87744057D02*
X173227714Y-87839295D01*
X173227714Y-87839295D02*
X173227714Y-87982152D01*
X173227714Y-87982152D02*
X173275333Y-88077390D01*
X173275333Y-88077390D02*
X173322952Y-88125009D01*
X173322952Y-88125009D02*
X173418190Y-88172628D01*
X173418190Y-88172628D02*
X173799142Y-88172628D01*
X172370571Y-87982152D02*
X172370571Y-88648819D01*
X172608666Y-87601200D02*
X172846761Y-88315485D01*
X172846761Y-88315485D02*
X172227714Y-88315485D01*
D11*
%TO.C,TP3*%
X168655600Y-84180800D02*
G75*
G02*
X167255600Y-84180800I-700000J0D01*
G01*
X167255600Y-84180800D02*
G75*
G02*
X168655600Y-84180800I700000J0D01*
G01*
%TO.C,TP2*%
X162966000Y-85857200D02*
G75*
G02*
X161566000Y-85857200I-700000J0D01*
G01*
X161566000Y-85857200D02*
G75*
G02*
X162966000Y-85857200I700000J0D01*
G01*
%TO.C,TP6*%
X159460800Y-75748000D02*
G75*
G02*
X158060800Y-75748000I-700000J0D01*
G01*
X158060800Y-75748000D02*
G75*
G02*
X159460800Y-75748000I700000J0D01*
G01*
%TO.C,TP5*%
X174243600Y-89768800D02*
G75*
G02*
X172843600Y-89768800I-700000J0D01*
G01*
X172843600Y-89768800D02*
G75*
G02*
X174243600Y-89768800I700000J0D01*
G01*
%TO.C,TP8*%
X148665800Y-75722600D02*
G75*
G02*
X147265800Y-75722600I-700000J0D01*
G01*
X147265800Y-75722600D02*
G75*
G02*
X148665800Y-75722600I700000J0D01*
G01*
%TO.C,TP9*%
X151129600Y-90276800D02*
G75*
G02*
X149729600Y-90276800I-700000J0D01*
G01*
X149729600Y-90276800D02*
G75*
G02*
X151129600Y-90276800I700000J0D01*
G01*
%TO.C,TP4*%
X174243600Y-86466800D02*
G75*
G02*
X172843600Y-86466800I-700000J0D01*
G01*
X172843600Y-86466800D02*
G75*
G02*
X174243600Y-86466800I700000J0D01*
G01*
%TD*%
%LPC*%
D12*
%TO.C,J1*%
X117673600Y-86894800D03*
D13*
X122073600Y-86894800D03*
%TD*%
D14*
%TO.C,J3*%
X130773600Y-85194800D03*
D15*
X130773600Y-82654800D03*
X130773600Y-80114800D03*
X130773600Y-77574800D03*
X130773600Y-75034800D03*
%TD*%
D16*
%TO.C,J6*%
X135443600Y-82910800D03*
D15*
X135443600Y-85450800D03*
X135443600Y-87990800D03*
X135443600Y-90530800D03*
X135443600Y-93070800D03*
X135443600Y-95610800D03*
%TD*%
D17*
%TO.C,J2*%
X167955600Y-87228800D03*
D18*
X167955600Y-89728800D03*
X169955600Y-89728800D03*
X169955600Y-87228800D03*
D19*
X172815600Y-82478800D03*
X172815600Y-94478800D03*
%TD*%
D20*
%TO.C,H4*%
X171473600Y-75194800D03*
%TD*%
%TO.C,H2*%
X117473600Y-102694800D03*
%TD*%
%TO.C,H3*%
X117473600Y-75194800D03*
%TD*%
D21*
%TO.C,J5*%
X135596000Y-103459400D03*
D15*
X135596000Y-100919400D03*
X138136000Y-103459400D03*
X138136000Y-100919400D03*
X140676000Y-103459400D03*
X140676000Y-100919400D03*
%TD*%
D20*
%TO.C,H1*%
X171473600Y-102694800D03*
%TD*%
D16*
%TO.C,J4*%
X146365600Y-100944800D03*
D15*
X148905600Y-100944800D03*
X146365600Y-103484800D03*
X148905600Y-103484800D03*
%TD*%
D22*
%TO.C,TP3*%
X167955600Y-84180800D03*
%TD*%
%TO.C,TP2*%
X162266000Y-85857200D03*
%TD*%
%TO.C,TP6*%
X158760800Y-75748000D03*
%TD*%
%TO.C,TP5*%
X173543600Y-89768800D03*
%TD*%
%TO.C,TP8*%
X147965800Y-75722600D03*
%TD*%
%TO.C,TP9*%
X150429600Y-90276800D03*
%TD*%
%TO.C,TP4*%
X173543600Y-86466800D03*
%TD*%
%LPD*%
M02*
