%TF.GenerationSoftware,KiCad,Pcbnew,9.0.6+1*%
%TF.CreationDate,2025-12-12T14:19:15+00:00*%
%TF.ProjectId,KDT_Hierarchical_KiBot,4b44545f-4869-4657-9261-726368696361,0.1.7*%
%TF.SameCoordinates,Original*%
%TF.FileFunction,Soldermask,Top*%
%TF.FilePolarity,Negative*%
%FSLAX46Y46*%
G04 Gerber Fmt 4.6, Leading zero omitted, Abs format (unit mm)*
G04 Created by KiCad (PCBNEW 9.0.6+1) date 2025-12-12 14:19:15*
%MOMM*%
%LPD*%
G01*
G04 APERTURE LIST*
G04 Aperture macros list*
%AMRoundRect*
0 Rectangle with rounded corners*
0 $1 Rounding radius*
0 $2 $3 $4 $5 $6 $7 $8 $9 X,Y pos of 4 corners*
0 Add a 4 corners polygon primitive as box body*
4,1,4,$2,$3,$4,$5,$6,$7,$8,$9,$2,$3,0*
0 Add four circle primitives for the rounded corners*
1,1,$1+$1,$2,$3*
1,1,$1+$1,$4,$5*
1,1,$1+$1,$6,$7*
1,1,$1+$1,$8,$9*
0 Add four rect primitives between the rounded corners*
20,1,$1+$1,$2,$3,$4,$5,0*
20,1,$1+$1,$4,$5,$6,$7,0*
20,1,$1+$1,$6,$7,$8,$9,0*
20,1,$1+$1,$8,$9,$2,$3,0*%
%AMFreePoly0*
4,1,39,0.535355,0.785355,0.550000,0.750000,0.550000,-0.750000,0.535355,-0.785355,0.500000,-0.800000,0.000000,-0.800000,-0.010328,-0.795722,-0.065263,-0.795722,-0.078204,-0.794018,-0.204283,-0.760236,-0.216342,-0.755241,-0.329381,-0.689978,-0.339736,-0.682032,-0.432032,-0.589736,-0.439978,-0.579381,-0.505241,-0.466342,-0.510236,-0.454283,-0.544018,-0.328204,-0.545722,-0.315263,-0.545722,-0.260327,
-0.550000,-0.250000,-0.550000,0.250000,-0.545722,0.260327,-0.545722,0.315263,-0.544018,0.328204,-0.510236,0.454283,-0.505241,0.466342,-0.439978,0.579381,-0.432032,0.589736,-0.339736,0.682032,-0.329381,0.689978,-0.216342,0.755241,-0.204283,0.760236,-0.078204,0.794018,-0.065263,0.795722,-0.010328,0.795722,0.000000,0.800000,0.500000,0.800000,0.535355,0.785355,0.535355,0.785355,
$1*%
%AMFreePoly1*
4,1,39,0.010328,0.795722,0.065263,0.795722,0.078204,0.794018,0.204283,0.760236,0.216342,0.755241,0.329381,0.689978,0.339736,0.682032,0.432032,0.589736,0.439978,0.579381,0.505241,0.466342,0.510236,0.454283,0.544018,0.328204,0.545722,0.315263,0.545722,0.260327,0.550000,0.250000,0.550000,-0.250000,0.545722,-0.260327,0.545722,-0.315263,0.544018,-0.328204,0.510236,-0.454283,
0.505241,-0.466342,0.439978,-0.579381,0.432032,-0.589736,0.339736,-0.682032,0.329381,-0.689978,0.216342,-0.755241,0.204283,-0.760236,0.078204,-0.794018,0.065263,-0.795722,0.010328,-0.795722,0.000000,-0.800000,-0.500000,-0.800000,-0.535355,-0.785355,-0.550000,-0.750000,-0.550000,0.750000,-0.535355,0.785355,-0.500000,0.800000,0.000000,0.800000,0.010328,0.795722,0.010328,0.795722,
$1*%
G04 Aperture macros list end*
%ADD10RoundRect,0.268750X-0.481250X0.268750X-0.481250X-0.268750X0.481250X-0.268750X0.481250X0.268750X0*%
%ADD11O,1.600000X2.100000*%
%ADD12C,2.100000*%
%ADD13RoundRect,0.050000X1.000000X-1.500000X1.000000X1.500000X-1.000000X1.500000X-1.000000X-1.500000X0*%
%ADD14RoundRect,0.050000X0.850000X0.850000X-0.850000X0.850000X-0.850000X-0.850000X0.850000X-0.850000X0*%
%ADD15O,1.800000X1.800000*%
%ADD16RoundRect,0.050000X-0.850000X-0.850000X0.850000X-0.850000X0.850000X0.850000X-0.850000X0.850000X0*%
%ADD17RoundRect,0.243750X0.281250X-0.243750X0.281250X0.243750X-0.281250X0.243750X-0.281250X-0.243750X0*%
%ADD18RoundRect,0.050000X0.800000X-0.800000X0.800000X0.800000X-0.800000X0.800000X-0.800000X-0.800000X0*%
%ADD19C,1.700000*%
%ADD20C,4.100000*%
%ADD21RoundRect,0.268750X0.481250X-0.268750X0.481250X0.268750X-0.481250X0.268750X-0.481250X-0.268750X0*%
%ADD22RoundRect,0.268750X-0.268750X-0.481250X0.268750X-0.481250X0.268750X0.481250X-0.268750X0.481250X0*%
%ADD23RoundRect,0.268750X0.268750X0.481250X-0.268750X0.481250X-0.268750X-0.481250X0.268750X-0.481250X0*%
%ADD24C,1.500000*%
%ADD25C,2.800000*%
%ADD26RoundRect,0.243750X-0.281250X0.243750X-0.281250X-0.243750X0.281250X-0.243750X0.281250X0.243750X0*%
%ADD27FreePoly0,270.000000*%
%ADD28FreePoly1,270.000000*%
%ADD29RoundRect,0.270000X0.655000X-0.405000X0.655000X0.405000X-0.655000X0.405000X-0.655000X-0.405000X0*%
%ADD30RoundRect,0.050000X0.850000X-0.850000X0.850000X0.850000X-0.850000X0.850000X-0.850000X-0.850000X0*%
%ADD31RoundRect,0.272222X-0.340278X-1.477778X0.340278X-1.477778X0.340278X1.477778X-0.340278X1.477778X0*%
%ADD32RoundRect,0.050000X0.950000X1.200000X-0.950000X1.200000X-0.950000X-1.200000X0.950000X-1.200000X0*%
%ADD33RoundRect,0.050000X-0.275000X0.800000X-0.275000X-0.800000X0.275000X-0.800000X0.275000X0.800000X0*%
%ADD34RoundRect,0.050000X-0.800000X-0.275000X0.800000X-0.275000X0.800000X0.275000X-0.800000X0.275000X0*%
%ADD35RoundRect,0.260000X-1.040000X1.540000X-1.040000X-1.540000X1.040000X-1.540000X1.040000X1.540000X0*%
G04 APERTURE END LIST*
D10*
%TO.C,C5*%
X157795600Y-93911300D03*
X157795600Y-95786300D03*
%TD*%
D11*
%TO.C,J1*%
X117673600Y-86894800D03*
D12*
X122073600Y-86894800D03*
D13*
X117573600Y-81394800D03*
X123573600Y-81394800D03*
X123573600Y-92394800D03*
X117573600Y-92394800D03*
%TD*%
D14*
%TO.C,J3*%
X130773600Y-85194800D03*
D15*
X130773600Y-82654800D03*
X130773600Y-80114800D03*
X130773600Y-77574800D03*
X130773600Y-75034800D03*
%TD*%
D16*
%TO.C,J6*%
X135443600Y-82910800D03*
D15*
X135443600Y-85450800D03*
X135443600Y-87990800D03*
X135443600Y-90530800D03*
X135443600Y-93070800D03*
X135443600Y-95610800D03*
%TD*%
D17*
%TO.C,VR2*%
X164907600Y-88803700D03*
X164907600Y-87228700D03*
%TD*%
D18*
%TO.C,J2*%
X167955600Y-87228800D03*
D19*
X167955600Y-89728800D03*
X169955600Y-89728800D03*
X169955600Y-87228800D03*
D20*
X172815600Y-82478800D03*
X172815600Y-94478800D03*
%TD*%
D21*
%TO.C,C8*%
X139228200Y-85600900D03*
X139228200Y-83725900D03*
%TD*%
D22*
%TO.C,C2*%
X116536100Y-96594800D03*
X118411100Y-96594800D03*
%TD*%
%TO.C,R1*%
X159906100Y-91800800D03*
X161781100Y-91800800D03*
%TD*%
D23*
%TO.C,FB1*%
X163305100Y-96372800D03*
X161430100Y-96372800D03*
%TD*%
D22*
%TO.C,R2*%
X159906100Y-89514800D03*
X161781100Y-89514800D03*
%TD*%
D24*
%TO.C,FID3*%
X124470800Y-75773400D03*
%TD*%
D25*
%TO.C,H4*%
X171473600Y-75194800D03*
%TD*%
D21*
%TO.C,D3*%
X139253600Y-81582300D03*
X139253600Y-79707300D03*
%TD*%
D24*
%TO.C,FID2*%
X166177600Y-102976800D03*
%TD*%
D25*
%TO.C,H2*%
X117473600Y-102694800D03*
%TD*%
D22*
%TO.C,C7*%
X147510900Y-84561800D03*
X149385900Y-84561800D03*
%TD*%
D26*
%TO.C,VR1*%
X164907600Y-92257800D03*
X164907600Y-93832800D03*
%TD*%
D27*
%TO.C,JP1*%
X161732600Y-100828200D03*
D28*
X161732600Y-102128200D03*
%TD*%
D29*
%TO.C,D1*%
X157287600Y-103868800D03*
X157287600Y-101068800D03*
%TD*%
D21*
%TO.C,R4*%
X153477600Y-102390300D03*
X153477600Y-100515300D03*
%TD*%
D10*
%TO.C,C3*%
X156733600Y-79873300D03*
X156733600Y-81748300D03*
%TD*%
D25*
%TO.C,H3*%
X117473600Y-75194800D03*
%TD*%
D30*
%TO.C,J5*%
X135596000Y-103459400D03*
D15*
X135596000Y-100919400D03*
X138136000Y-103459400D03*
X138136000Y-100919400D03*
X140676000Y-103459400D03*
X140676000Y-100919400D03*
%TD*%
D23*
%TO.C,R3*%
X154369100Y-81572800D03*
X152494100Y-81572800D03*
%TD*%
D31*
%TO.C,F1*%
X160230100Y-82910800D03*
X164505100Y-82910800D03*
%TD*%
D25*
%TO.C,H1*%
X171473600Y-102694800D03*
%TD*%
D16*
%TO.C,J4*%
X146365600Y-100944800D03*
D15*
X148905600Y-100944800D03*
X146365600Y-103484800D03*
X148905600Y-103484800D03*
%TD*%
D10*
%TO.C,R5*%
X139228200Y-87561300D03*
X139228200Y-89436300D03*
%TD*%
D21*
%TO.C,D2*%
X141793600Y-81582300D03*
X141793600Y-79707300D03*
%TD*%
D10*
%TO.C,R6*%
X141793600Y-74932100D03*
X141793600Y-76807100D03*
%TD*%
D32*
%TO.C,Y1*%
X155451400Y-75722600D03*
X151351400Y-75722600D03*
%TD*%
D10*
%TO.C,R7*%
X139253600Y-74932100D03*
X139253600Y-76807100D03*
%TD*%
D33*
%TO.C,U1*%
X151705600Y-87296800D03*
X150905600Y-87296800D03*
X150105600Y-87296800D03*
X149305600Y-87296800D03*
X148505600Y-87296800D03*
X147705600Y-87296800D03*
X146905600Y-87296800D03*
X146105600Y-87296800D03*
D34*
X144655600Y-88746800D03*
X144655600Y-89546800D03*
X144655600Y-90346800D03*
X144655600Y-91146800D03*
X144655600Y-91946800D03*
X144655600Y-92746800D03*
X144655600Y-93546800D03*
X144655600Y-94346800D03*
D33*
X146105600Y-95796800D03*
X146905600Y-95796800D03*
X147705600Y-95796800D03*
X148505600Y-95796800D03*
X149305600Y-95796800D03*
X150105600Y-95796800D03*
X150905600Y-95796800D03*
X151705600Y-95796800D03*
D34*
X153155600Y-94346800D03*
X153155600Y-93546800D03*
X153155600Y-92746800D03*
X153155600Y-91946800D03*
X153155600Y-91146800D03*
X153155600Y-90346800D03*
X153155600Y-89546800D03*
X153155600Y-88746800D03*
%TD*%
D35*
%TO.C,C1*%
X125309000Y-97339200D03*
X125309000Y-103839200D03*
%TD*%
D10*
%TO.C,C4*%
X150383600Y-79873300D03*
X150383600Y-81748300D03*
%TD*%
D24*
%TO.C,FID1*%
X163891600Y-76306800D03*
%TD*%
D21*
%TO.C,C6*%
X156855800Y-88699700D03*
X156855800Y-86824700D03*
%TD*%
D24*
%TO.C,FID4*%
X131684400Y-103865800D03*
%TD*%
M02*
