%TF.GenerationSoftware,KiCad,Pcbnew,9.0.6+1*%
%TF.CreationDate,2025-12-12T14:19:15+00:00*%
%TF.ProjectId,KDT_Hierarchical_KiBot,4b44545f-4869-4657-9261-726368696361,0.1.7*%
%TF.SameCoordinates,Original*%
%TF.FileFunction,Copper,L1,Top*%
%TF.FilePolarity,Positive*%
%FSLAX46Y46*%
G04 Gerber Fmt 4.6, Leading zero omitted, Abs format (unit mm)*
G04 Created by KiCad (PCBNEW 9.0.6+1) date 2025-12-12 14:19:15*
%MOMM*%
%LPD*%
G01*
G04 APERTURE LIST*
G04 Aperture macros list*
%AMRoundRect*
0 Rectangle with rounded corners*
0 $1 Rounding radius*
0 $2 $3 $4 $5 $6 $7 $8 $9 X,Y pos of 4 corners*
0 Add a 4 corners polygon primitive as box body*
4,1,4,$2,$3,$4,$5,$6,$7,$8,$9,$2,$3,0*
0 Add four circle primitives for the rounded corners*
1,1,$1+$1,$2,$3*
1,1,$1+$1,$4,$5*
1,1,$1+$1,$6,$7*
1,1,$1+$1,$8,$9*
0 Add four rect primitives between the rounded corners*
20,1,$1+$1,$2,$3,$4,$5,0*
20,1,$1+$1,$4,$5,$6,$7,0*
20,1,$1+$1,$6,$7,$8,$9,0*
20,1,$1+$1,$8,$9,$2,$3,0*%
%AMFreePoly0*
4,1,23,0.500000,-0.750000,0.000000,-0.750000,0.000000,-0.745722,-0.065263,-0.745722,-0.191342,-0.711940,-0.304381,-0.646677,-0.396677,-0.554381,-0.461940,-0.441342,-0.495722,-0.315263,-0.495722,-0.250000,-0.500000,-0.250000,-0.500000,0.250000,-0.495722,0.250000,-0.495722,0.315263,-0.461940,0.441342,-0.396677,0.554381,-0.304381,0.646677,-0.191342,0.711940,-0.065263,0.745722,0.000000,0.745722,
0.000000,0.750000,0.500000,0.750000,0.500000,-0.750000,0.500000,-0.750000,$1*%
%AMFreePoly1*
4,1,23,0.000000,0.745722,0.065263,0.745722,0.191342,0.711940,0.304381,0.646677,0.396677,0.554381,0.461940,0.441342,0.495722,0.315263,0.495722,0.250000,0.500000,0.250000,0.500000,-0.250000,0.495722,-0.250000,0.495722,-0.315263,0.461940,-0.441342,0.396677,-0.554381,0.304381,-0.646677,0.191342,-0.711940,0.065263,-0.745722,0.000000,-0.745722,0.000000,-0.750000,-0.500000,-0.750000,
-0.500000,0.750000,0.000000,0.750000,0.000000,0.745722,0.000000,0.745722,$1*%
G04 Aperture macros list end*
%TA.AperFunction,SMDPad,CuDef*%
%ADD10RoundRect,0.243750X-0.456250X0.243750X-0.456250X-0.243750X0.456250X-0.243750X0.456250X0.243750X0*%
%TD*%
%TA.AperFunction,SMDPad,CuDef*%
%ADD11R,2.000000X3.000000*%
%TD*%
%TA.AperFunction,ComponentPad*%
%ADD12R,1.700000X1.700000*%
%TD*%
%TA.AperFunction,ComponentPad*%
%ADD13O,1.700000X1.700000*%
%TD*%
%TA.AperFunction,SMDPad,CuDef*%
%ADD14RoundRect,0.218750X0.256250X-0.218750X0.256250X0.218750X-0.256250X0.218750X-0.256250X-0.218750X0*%
%TD*%
%TA.AperFunction,ComponentPad*%
%ADD15R,1.600000X1.600000*%
%TD*%
%TA.AperFunction,ComponentPad*%
%ADD16C,1.600000*%
%TD*%
%TA.AperFunction,ComponentPad*%
%ADD17C,4.000000*%
%TD*%
%TA.AperFunction,SMDPad,CuDef*%
%ADD18RoundRect,0.243750X0.456250X-0.243750X0.456250X0.243750X-0.456250X0.243750X-0.456250X-0.243750X0*%
%TD*%
%TA.AperFunction,SMDPad,CuDef*%
%ADD19RoundRect,0.243750X-0.243750X-0.456250X0.243750X-0.456250X0.243750X0.456250X-0.243750X0.456250X0*%
%TD*%
%TA.AperFunction,SMDPad,CuDef*%
%ADD20RoundRect,0.243750X0.243750X0.456250X-0.243750X0.456250X-0.243750X-0.456250X0.243750X-0.456250X0*%
%TD*%
%TA.AperFunction,SMDPad,CuDef*%
%ADD21C,0.750000*%
%TD*%
%TA.AperFunction,SMDPad,CuDef*%
%ADD22RoundRect,0.218750X-0.256250X0.218750X-0.256250X-0.218750X0.256250X-0.218750X0.256250X0.218750X0*%
%TD*%
%TA.AperFunction,SMDPad,CuDef*%
%ADD23FreePoly0,270.000000*%
%TD*%
%TA.AperFunction,SMDPad,CuDef*%
%ADD24FreePoly1,270.000000*%
%TD*%
%TA.AperFunction,SMDPad,CuDef*%
%ADD25RoundRect,0.250000X0.625000X-0.375000X0.625000X0.375000X-0.625000X0.375000X-0.625000X-0.375000X0*%
%TD*%
%TA.AperFunction,SMDPad,CuDef*%
%ADD26RoundRect,0.250000X-0.312500X-1.450000X0.312500X-1.450000X0.312500X1.450000X-0.312500X1.450000X0*%
%TD*%
%TA.AperFunction,SMDPad,CuDef*%
%ADD27R,1.900000X2.400000*%
%TD*%
%TA.AperFunction,SMDPad,CuDef*%
%ADD28R,0.550000X1.600000*%
%TD*%
%TA.AperFunction,SMDPad,CuDef*%
%ADD29R,1.600000X0.550000*%
%TD*%
%TA.AperFunction,SMDPad,CuDef*%
%ADD30RoundRect,0.250000X-1.000000X1.500000X-1.000000X-1.500000X1.000000X-1.500000X1.000000X1.500000X0*%
%TD*%
%TA.AperFunction,ViaPad*%
%ADD31C,0.800000*%
%TD*%
%TA.AperFunction,Conductor*%
%ADD32C,0.508000*%
%TD*%
%TA.AperFunction,Conductor*%
%ADD33C,0.381000*%
%TD*%
G04 APERTURE END LIST*
D10*
%TO.P,C5,1*%
%TO.N,Net-(U1-UCAP)*%
X157795600Y-93911300D03*
%TO.P,C5,2*%
%TO.N,Earth*%
X157795600Y-95786300D03*
%TD*%
D11*
%TO.P,J1,1*%
%TO.N,GND*%
X117573600Y-81394800D03*
X123573600Y-81394800D03*
%TO.P,J1,2*%
%TO.N,+5V*%
X123573600Y-92394800D03*
%TO.P,J1,3*%
X117573600Y-92394800D03*
%TD*%
D12*
%TO.P,J3,1,Pin_1*%
%TO.N,Net-(J3-Pin_1)*%
X130773600Y-85194800D03*
D13*
%TO.P,J3,2,Pin_2*%
%TO.N,Net-(J3-Pin_2)*%
X130773600Y-82654800D03*
%TO.P,J3,3,Pin_3*%
%TO.N,Net-(J3-Pin_3)*%
X130773600Y-80114800D03*
%TO.P,J3,4,Pin_4*%
%TO.N,Net-(J3-Pin_4)*%
X130773600Y-77574800D03*
%TO.P,J3,5,Pin_5*%
%TO.N,Net-(J3-Pin_5)*%
X130773600Y-75034800D03*
%TD*%
D12*
%TO.P,J6,1,Pin_1*%
%TO.N,Net-(J6-Pin_1)*%
X135443600Y-82910800D03*
D13*
%TO.P,J6,2,Pin_2*%
%TO.N,Net-(J6-Pin_2)*%
X135443600Y-85450800D03*
%TO.P,J6,3,Pin_3*%
%TO.N,Net-(J6-Pin_3)*%
X135443600Y-87990800D03*
%TO.P,J6,4,Pin_4*%
%TO.N,Net-(J6-Pin_4)*%
X135443600Y-90530800D03*
%TO.P,J6,5,Pin_5*%
%TO.N,Net-(J6-Pin_5)*%
X135443600Y-93070800D03*
%TO.P,J6,6,Pin_6*%
%TO.N,Net-(J6-Pin_6)*%
X135443600Y-95610800D03*
%TD*%
D14*
%TO.P,VR2,1*%
%TO.N,Net-(J2-D-)*%
X164907600Y-88803700D03*
%TO.P,VR2,2*%
%TO.N,Net-(J2-Shield)*%
X164907600Y-87228700D03*
%TD*%
D15*
%TO.P,J2,1,VBUS*%
%TO.N,Net-(J2-VBUS)*%
X167955600Y-87228800D03*
D16*
%TO.P,J2,2,D-*%
%TO.N,Net-(J2-D-)*%
X167955600Y-89728800D03*
%TO.P,J2,3,D+*%
%TO.N,Net-(J2-D+)*%
X169955600Y-89728800D03*
%TO.P,J2,4,GND*%
%TO.N,Earth*%
X169955600Y-87228800D03*
D17*
%TO.P,J2,5,Shield*%
%TO.N,Net-(J2-Shield)*%
X172815600Y-82478800D03*
X172815600Y-94478800D03*
%TD*%
D18*
%TO.P,C8,1*%
%TO.N,/DTR*%
X139228200Y-85600900D03*
%TO.P,C8,2*%
%TO.N,Net-(J6-Pin_1)*%
X139228200Y-83725900D03*
%TD*%
D19*
%TO.P,C2,1*%
%TO.N,+5V*%
X116536100Y-96594800D03*
%TO.P,C2,2*%
%TO.N,GND*%
X118411100Y-96594800D03*
%TD*%
%TO.P,R1,1*%
%TO.N,Net-(U1-D+)*%
X159906100Y-91800800D03*
%TO.P,R1,2*%
%TO.N,Net-(J2-D+)*%
X161781100Y-91800800D03*
%TD*%
D20*
%TO.P,FB1,1*%
%TO.N,Net-(J2-Shield)*%
X163305100Y-96372800D03*
%TO.P,FB1,2*%
%TO.N,Earth*%
X161430100Y-96372800D03*
%TD*%
D19*
%TO.P,R2,1*%
%TO.N,Net-(U1-D-)*%
X159906100Y-89514800D03*
%TO.P,R2,2*%
%TO.N,Net-(J2-D-)*%
X161781100Y-89514800D03*
%TD*%
D21*
%TO.P,FID3,*%
%TO.N,*%
X124470800Y-75773400D03*
%TD*%
D18*
%TO.P,D3,1,K*%
%TO.N,/TXLED*%
X139253600Y-81582300D03*
%TO.P,D3,2,A*%
%TO.N,Net-(D3-A)*%
X139253600Y-79707300D03*
%TD*%
D21*
%TO.P,FID2,*%
%TO.N,*%
X166177600Y-102976800D03*
%TD*%
D19*
%TO.P,C7,1*%
%TO.N,+5V*%
X147510900Y-84561800D03*
%TO.P,C7,2*%
%TO.N,GND*%
X149385900Y-84561800D03*
%TD*%
D22*
%TO.P,VR1,1*%
%TO.N,Net-(J2-D+)*%
X164907600Y-92257800D03*
%TO.P,VR1,2*%
%TO.N,Net-(J2-Shield)*%
X164907600Y-93832800D03*
%TD*%
D23*
%TO.P,JP1,1,A*%
%TO.N,Earth*%
X161732600Y-100828200D03*
D24*
%TO.P,JP1,2,B*%
%TO.N,GND*%
X161732600Y-102128200D03*
%TD*%
D25*
%TO.P,D1,1,K*%
%TO.N,+5V*%
X157287600Y-103868800D03*
%TO.P,D1,2,A*%
%TO.N,/RESET2*%
X157287600Y-101068800D03*
%TD*%
D18*
%TO.P,R4,1*%
%TO.N,+5V*%
X153477600Y-102390300D03*
%TO.P,R4,2*%
%TO.N,/RESET2*%
X153477600Y-100515300D03*
%TD*%
D10*
%TO.P,C3,1*%
%TO.N,Net-(U1-XTAL1)*%
X156733600Y-79873300D03*
%TO.P,C3,2*%
%TO.N,GND*%
X156733600Y-81748300D03*
%TD*%
D12*
%TO.P,J5,1,Pin_1*%
%TO.N,/MISO2*%
X135596000Y-103459400D03*
D13*
%TO.P,J5,2,Pin_2*%
%TO.N,+5V*%
X135596000Y-100919400D03*
%TO.P,J5,3,Pin_3*%
%TO.N,/SCK2*%
X138136000Y-103459400D03*
%TO.P,J5,4,Pin_4*%
%TO.N,/MOSI2*%
X138136000Y-100919400D03*
%TO.P,J5,5,Pin_5*%
%TO.N,/RESET2*%
X140676000Y-103459400D03*
%TO.P,J5,6,Pin_6*%
%TO.N,GND*%
X140676000Y-100919400D03*
%TD*%
D20*
%TO.P,R3,1*%
%TO.N,Net-(U1-XTAL1)*%
X154369100Y-81572800D03*
%TO.P,R3,2*%
%TO.N,Net-(U1-PC0{slash}XTAL2)*%
X152494100Y-81572800D03*
%TD*%
D26*
%TO.P,F1,1*%
%TO.N,VBUS*%
X160230100Y-82910800D03*
%TO.P,F1,2*%
%TO.N,Net-(J2-VBUS)*%
X164505100Y-82910800D03*
%TD*%
D12*
%TO.P,J4,1,Pin_1*%
%TO.N,Net-(J4-Pin_1)*%
X146365600Y-100944800D03*
D13*
%TO.P,J4,2,Pin_2*%
%TO.N,Net-(J4-Pin_2)*%
X148905600Y-100944800D03*
%TO.P,J4,3,Pin_3*%
%TO.N,Net-(J4-Pin_3)*%
X146365600Y-103484800D03*
%TO.P,J4,4,Pin_4*%
%TO.N,Net-(J4-Pin_4)*%
X148905600Y-103484800D03*
%TD*%
D10*
%TO.P,R5,1*%
%TO.N,/DTR*%
X139228200Y-87561300D03*
%TO.P,R5,2*%
%TO.N,GND*%
X139228200Y-89436300D03*
%TD*%
D18*
%TO.P,D2,1,K*%
%TO.N,/RXLED*%
X141793600Y-81582300D03*
%TO.P,D2,2,A*%
%TO.N,Net-(D2-A)*%
X141793600Y-79707300D03*
%TD*%
D10*
%TO.P,R6,1*%
%TO.N,+5V*%
X141793600Y-74932100D03*
%TO.P,R6,2*%
%TO.N,Net-(D2-A)*%
X141793600Y-76807100D03*
%TD*%
D27*
%TO.P,Y1,1,1*%
%TO.N,Net-(U1-XTAL1)*%
X155451400Y-75722600D03*
%TO.P,Y1,2,2*%
%TO.N,Net-(U1-PC0{slash}XTAL2)*%
X151351400Y-75722600D03*
%TD*%
D10*
%TO.P,R7,1*%
%TO.N,+5V*%
X139253600Y-74932100D03*
%TO.P,R7,2*%
%TO.N,Net-(D3-A)*%
X139253600Y-76807100D03*
%TD*%
D28*
%TO.P,U1,1,XTAL1*%
%TO.N,Net-(U1-XTAL1)*%
X151705600Y-87296800D03*
%TO.P,U1,2,PC0/XTAL2*%
%TO.N,Net-(U1-PC0{slash}XTAL2)*%
X150905600Y-87296800D03*
%TO.P,U1,3,GND*%
%TO.N,GND*%
X150105600Y-87296800D03*
%TO.P,U1,4,VCC*%
%TO.N,+5V*%
X149305600Y-87296800D03*
%TO.P,U1,5,PC2*%
%TO.N,Net-(J3-Pin_5)*%
X148505600Y-87296800D03*
%TO.P,U1,6,PD0*%
%TO.N,Net-(J6-Pin_6)*%
X147705600Y-87296800D03*
%TO.P,U1,7,PD1*%
%TO.N,Net-(J6-Pin_5)*%
X146905600Y-87296800D03*
%TO.P,U1,8,PD2*%
%TO.N,Net-(J6-Pin_4)*%
X146105600Y-87296800D03*
D29*
%TO.P,U1,9,PD3*%
%TO.N,Net-(J6-Pin_3)*%
X144655600Y-88746800D03*
%TO.P,U1,10,PD4*%
%TO.N,/RXLED*%
X144655600Y-89546800D03*
%TO.P,U1,11,PD5*%
%TO.N,/TXLED*%
X144655600Y-90346800D03*
%TO.P,U1,12,PD6*%
%TO.N,Net-(J6-Pin_2)*%
X144655600Y-91146800D03*
%TO.P,U1,13,~{HWB}/PD7*%
%TO.N,/DTR*%
X144655600Y-91946800D03*
%TO.P,U1,14,PB0*%
%TO.N,unconnected-(U1-PB0-Pad14)*%
X144655600Y-92746800D03*
%TO.P,U1,15,PB1*%
%TO.N,/SCK2*%
X144655600Y-93546800D03*
%TO.P,U1,16,PB2*%
%TO.N,/MOSI2*%
X144655600Y-94346800D03*
D28*
%TO.P,U1,17,PB3*%
%TO.N,/MISO2*%
X146105600Y-95796800D03*
%TO.P,U1,18,PB4*%
%TO.N,Net-(J4-Pin_1)*%
X146905600Y-95796800D03*
%TO.P,U1,19,PB5*%
%TO.N,Net-(J4-Pin_3)*%
X147705600Y-95796800D03*
%TO.P,U1,20,PB6*%
%TO.N,Net-(J4-Pin_2)*%
X148505600Y-95796800D03*
%TO.P,U1,21,PB7*%
%TO.N,Net-(J4-Pin_4)*%
X149305600Y-95796800D03*
%TO.P,U1,22,PC7*%
%TO.N,Net-(J3-Pin_1)*%
X150105600Y-95796800D03*
%TO.P,U1,23,PC6*%
%TO.N,Net-(J3-Pin_2)*%
X150905600Y-95796800D03*
%TO.P,U1,24,PC1/~{RESET}*%
%TO.N,/RESET2*%
X151705600Y-95796800D03*
D29*
%TO.P,U1,25,PC5*%
%TO.N,Net-(J3-Pin_3)*%
X153155600Y-94346800D03*
%TO.P,U1,26,PC4*%
%TO.N,Net-(J3-Pin_4)*%
X153155600Y-93546800D03*
%TO.P,U1,27,UCAP*%
%TO.N,Net-(U1-UCAP)*%
X153155600Y-92746800D03*
%TO.P,U1,28,UGND*%
%TO.N,Earth*%
X153155600Y-91946800D03*
%TO.P,U1,29,D+*%
%TO.N,Net-(U1-D+)*%
X153155600Y-91146800D03*
%TO.P,U1,30,D-*%
%TO.N,Net-(U1-D-)*%
X153155600Y-90346800D03*
%TO.P,U1,31,UVCC*%
%TO.N,VBUS*%
X153155600Y-89546800D03*
%TO.P,U1,32,AVCC*%
%TO.N,+5V*%
X153155600Y-88746800D03*
%TD*%
D30*
%TO.P,C1,1*%
%TO.N,+5V*%
X125309000Y-97339200D03*
%TO.P,C1,2*%
%TO.N,GND*%
X125309000Y-103839200D03*
%TD*%
D10*
%TO.P,C4,1*%
%TO.N,Net-(U1-PC0{slash}XTAL2)*%
X150383600Y-79873300D03*
%TO.P,C4,2*%
%TO.N,GND*%
X150383600Y-81748300D03*
%TD*%
D21*
%TO.P,FID1,*%
%TO.N,*%
X163891600Y-76306800D03*
%TD*%
D18*
%TO.P,C6,1*%
%TO.N,VBUS*%
X156855800Y-88699700D03*
%TO.P,C6,2*%
%TO.N,Earth*%
X156855800Y-86824700D03*
%TD*%
D21*
%TO.P,FID4,*%
%TO.N,*%
X131684400Y-103865800D03*
%TD*%
D31*
%TO.N,GND*%
X150150200Y-88752800D03*
X158303600Y-82453600D03*
X123556400Y-79075400D03*
X117562000Y-83825200D03*
X139304400Y-90759400D03*
X117587400Y-79024600D03*
X119822600Y-96601400D03*
X161732600Y-103637200D03*
X125283600Y-101046400D03*
X123581800Y-83647400D03*
X148829400Y-81488400D03*
%TO.N,Net-(J2-Shield)*%
X166863400Y-93832800D03*
X164933000Y-86111200D03*
X165034600Y-96372800D03*
%TO.N,+5V*%
X153655400Y-87660600D03*
X117612800Y-90099000D03*
X154315800Y-104297600D03*
X123581800Y-89997400D03*
X140498200Y-74935200D03*
X125309000Y-94594800D03*
X116038000Y-95026600D03*
X149007200Y-88981400D03*
%TO.N,Net-(U1-XTAL1)*%
X157236800Y-75697200D03*
%TO.N,Net-(U1-PC0{slash}XTAL2)*%
X149515200Y-75773400D03*
%TO.N,Earth*%
X155027000Y-91927800D03*
X155154000Y-86847800D03*
X161351600Y-94467800D03*
X161707200Y-99217600D03*
X159522800Y-96144200D03*
%TO.N,VBUS*%
X160208600Y-85857200D03*
%TO.N,Net-(J3-Pin_4)*%
X151369400Y-93248600D03*
%TO.N,Net-(J3-Pin_3)*%
X150632800Y-94086800D03*
%TO.N,Net-(J3-Pin_2)*%
X150759800Y-97388800D03*
%TO.N,Net-(J3-Pin_1)*%
X149540600Y-94290000D03*
%TO.N,Net-(J6-Pin_3)*%
X144613000Y-87584400D03*
%TO.N,Net-(J6-Pin_5)*%
X146543400Y-92918400D03*
%TO.N,Net-(J6-Pin_6)*%
X147153000Y-94010600D03*
%TO.N,Net-(J6-Pin_4)*%
X146162700Y-91546800D03*
%TO.N,Net-(J6-Pin_2)*%
X143068711Y-91084489D03*
%TO.N,Net-(U1-D-)*%
X150429600Y-91470602D03*
%TD*%
D32*
%TO.N,GND*%
X118411100Y-96594800D02*
X119816000Y-96594800D01*
X117573600Y-79038400D02*
X117587400Y-79024600D01*
X123573600Y-81394800D02*
X123573600Y-83639200D01*
D33*
X150105600Y-85281500D02*
X149385900Y-84561800D01*
D32*
X123573600Y-81394800D02*
X123573600Y-79092600D01*
X117573600Y-83813600D02*
X117562000Y-83825200D01*
X139228200Y-90683200D02*
X139304400Y-90759400D01*
D33*
X150105600Y-87296800D02*
X150105600Y-85281500D01*
D32*
X149089300Y-81748300D02*
X148829400Y-81488400D01*
X156733600Y-81748300D02*
X157598300Y-81748300D01*
X150383600Y-81748300D02*
X149089300Y-81748300D01*
X125309000Y-103839200D02*
X125309000Y-101071800D01*
X157598300Y-81748300D02*
X158303600Y-82453600D01*
X123573600Y-79092600D02*
X123556400Y-79075400D01*
D33*
X150105600Y-87296800D02*
X150105600Y-88708200D01*
D32*
X117573600Y-81394800D02*
X117573600Y-79038400D01*
X125309000Y-101071800D02*
X125283600Y-101046400D01*
D33*
X150105600Y-88708200D02*
X150150200Y-88752800D01*
D32*
X161732600Y-102128200D02*
X161732600Y-103637200D01*
X119816000Y-96594800D02*
X119822600Y-96601400D01*
X139228200Y-89436300D02*
X139228200Y-90683200D01*
X123573600Y-83639200D02*
X123581800Y-83647400D01*
X117573600Y-81394800D02*
X117573600Y-83813600D01*
%TO.N,/RESET2*%
X157287600Y-99471600D02*
X156652600Y-98836600D01*
D33*
X142403200Y-105186600D02*
X150277200Y-105186600D01*
D32*
X153630000Y-98836600D02*
X153477600Y-98989000D01*
D33*
X151705600Y-97789200D02*
X151705600Y-95796800D01*
X150277200Y-105186600D02*
X152055200Y-103408600D01*
D32*
X156652600Y-98836600D02*
X153630000Y-98836600D01*
D33*
X151699600Y-97795200D02*
X151705600Y-97789200D01*
X140676000Y-103459400D02*
X142403200Y-105186600D01*
D32*
X153477600Y-98989000D02*
X153477600Y-100515300D01*
X157287600Y-101068800D02*
X157287600Y-99471600D01*
D33*
X152586300Y-100515300D02*
X153477600Y-100515300D01*
X152055200Y-101046400D02*
X152586300Y-100515300D01*
D32*
X153630000Y-98836600D02*
X152741000Y-98836600D01*
X152741000Y-98836600D02*
X151699600Y-97795200D01*
D33*
X152055200Y-103408600D02*
X152055200Y-101046400D01*
D32*
%TO.N,Net-(D2-A)*%
X141793600Y-76807100D02*
X141793600Y-79707300D01*
%TO.N,/RXLED*%
X143038200Y-88935922D02*
X143038200Y-82826900D01*
X143038200Y-82826900D02*
X141793600Y-81582300D01*
D33*
X143649078Y-89546800D02*
X143038200Y-88935922D01*
X144655600Y-89546800D02*
X143649078Y-89546800D01*
D32*
%TO.N,Net-(D3-A)*%
X139253600Y-76807100D02*
X139253600Y-79707300D01*
%TO.N,/TXLED*%
X139253600Y-81582300D02*
X142327000Y-84655700D01*
D33*
X144636400Y-90327600D02*
X144655600Y-90346800D01*
D32*
X142327000Y-84655700D02*
X142327000Y-90099000D01*
X142327000Y-90099000D02*
X142555600Y-90327600D01*
D33*
X142555600Y-90327600D02*
X144636400Y-90327600D01*
D32*
%TO.N,Net-(J2-VBUS)*%
X167955600Y-87228800D02*
X167955600Y-83723600D01*
X167142800Y-82910800D02*
X164505100Y-82910800D01*
X167955600Y-83723600D02*
X167142800Y-82910800D01*
%TO.N,Net-(J2-Shield)*%
X164907600Y-87457300D02*
X164907600Y-86136600D01*
X163305100Y-96372800D02*
X165034600Y-96372800D01*
X164907600Y-86136600D02*
X164933000Y-86111200D01*
X164907600Y-93832800D02*
X166863400Y-93832800D01*
%TO.N,+5V*%
X123573600Y-90005600D02*
X123581800Y-89997400D01*
X139253600Y-74932100D02*
X140495100Y-74932100D01*
D33*
X149305600Y-87296800D02*
X149305600Y-86356500D01*
D32*
X117573600Y-92394800D02*
X117573600Y-93491000D01*
X153155600Y-88160400D02*
X153655400Y-87660600D01*
X154744600Y-103868800D02*
X154315800Y-104297600D01*
X140501300Y-74932100D02*
X140498200Y-74935200D01*
X116536100Y-95524700D02*
X116038000Y-95026600D01*
X153477600Y-102390300D02*
X153477600Y-103459400D01*
X117573600Y-90138200D02*
X117612800Y-90099000D01*
X141793600Y-74932100D02*
X140501300Y-74932100D01*
X123573600Y-92394800D02*
X123573600Y-90005600D01*
X153155600Y-88746800D02*
X153155600Y-88160400D01*
X117573600Y-92394800D02*
X117573600Y-90138200D01*
X153477600Y-103459400D02*
X154315800Y-104297600D01*
X116536100Y-96594800D02*
X116536100Y-95524700D01*
D33*
X149305600Y-87296800D02*
X149305600Y-88683000D01*
D32*
X140495100Y-74932100D02*
X140498200Y-74935200D01*
X123573600Y-92394800D02*
X123573600Y-93824600D01*
D33*
X149305600Y-86356500D02*
X147510900Y-84561800D01*
D32*
X124343800Y-94594800D02*
X125309000Y-94594800D01*
X117573600Y-93491000D02*
X116038000Y-95026600D01*
D33*
X149305600Y-88683000D02*
X149007200Y-88981400D01*
D32*
X123573600Y-93824600D02*
X124343800Y-94594800D01*
X125309000Y-97339200D02*
X125309000Y-94594800D01*
X157287600Y-103868800D02*
X154744600Y-103868800D01*
%TO.N,Net-(U1-XTAL1)*%
X155451400Y-75722600D02*
X157211400Y-75722600D01*
X157211400Y-75722600D02*
X157236800Y-75697200D01*
X154369100Y-79814500D02*
X154369100Y-79250700D01*
X152512400Y-85171400D02*
X154369100Y-83314700D01*
X155451400Y-78168400D02*
X155451400Y-75722600D01*
D33*
X151705600Y-85978200D02*
X152512400Y-85171400D01*
D32*
X156733600Y-79873300D02*
X154427900Y-79873300D01*
D33*
X151705600Y-87296800D02*
X151705600Y-85978200D01*
D32*
X154427900Y-79873300D02*
X154369100Y-79814500D01*
X154369100Y-83314700D02*
X154369100Y-81572800D01*
X154369100Y-79250700D02*
X155451400Y-78168400D01*
X154369100Y-81572800D02*
X154369100Y-79814500D01*
%TO.N,Net-(J2-D+)*%
X164907600Y-91216600D02*
X164780600Y-91089600D01*
X169955600Y-89728800D02*
X168594800Y-91089600D01*
X164907600Y-92257800D02*
X164907600Y-91216600D01*
X162492300Y-91089600D02*
X161781100Y-91800800D01*
X168594800Y-91089600D02*
X164780600Y-91089600D01*
X164780600Y-91089600D02*
X162492300Y-91089600D01*
%TO.N,Net-(J2-D-)*%
X161995100Y-89728800D02*
X161781100Y-89514800D01*
X164907600Y-88803700D02*
X164907600Y-89663400D01*
X167955600Y-89728800D02*
X164842200Y-89728800D01*
X164907600Y-89663400D02*
X164842200Y-89728800D01*
X164842200Y-89728800D02*
X161995100Y-89728800D01*
%TO.N,Net-(U1-PC0{slash}XTAL2)*%
X151300600Y-75773400D02*
X151351400Y-75722600D01*
X152349500Y-79873300D02*
X152494100Y-79728700D01*
X151351400Y-78320800D02*
X151351400Y-75722600D01*
X149515200Y-75773400D02*
X151300600Y-75773400D01*
X152494100Y-81572800D02*
X152494100Y-79728700D01*
X152494100Y-79728700D02*
X152494100Y-79463500D01*
X150383600Y-79873300D02*
X152349500Y-79873300D01*
X152494100Y-79463500D02*
X151351400Y-78320800D01*
X152494100Y-81572800D02*
X152494100Y-83208500D01*
D33*
X150912200Y-84790400D02*
X150905600Y-84797000D01*
D32*
X152494100Y-83208500D02*
X150912200Y-84790400D01*
D33*
X150905600Y-84797000D02*
X150905600Y-87296800D01*
D32*
%TO.N,Earth*%
X159164900Y-95786300D02*
X159522800Y-96144200D01*
X156855800Y-86824700D02*
X155177100Y-86824700D01*
X161732600Y-99243000D02*
X161707200Y-99217600D01*
D33*
X155008000Y-91946800D02*
X155027000Y-91927800D01*
D32*
X161732600Y-100828200D02*
X161732600Y-99243000D01*
D33*
X153155600Y-91946800D02*
X155008000Y-91946800D01*
D32*
X161351600Y-94467800D02*
X161351600Y-96294300D01*
X157795600Y-95786300D02*
X159164900Y-95786300D01*
X161351600Y-96294300D02*
X161430100Y-96372800D01*
X155177100Y-86824700D02*
X155154000Y-86847800D01*
D33*
%TO.N,Net-(U1-UCAP)*%
X153155600Y-92746800D02*
X155719000Y-92746800D01*
X155719000Y-92746800D02*
X156883500Y-93911300D01*
X156883500Y-93911300D02*
X157795600Y-93911300D01*
D32*
%TO.N,VBUS*%
X157366100Y-88699700D02*
X160208600Y-85857200D01*
D33*
X154842600Y-89546800D02*
X155689700Y-88699700D01*
D32*
X160230100Y-82910800D02*
X160230100Y-85835700D01*
X156855800Y-88699700D02*
X157366100Y-88699700D01*
D33*
X153155600Y-89546800D02*
X154842600Y-89546800D01*
X155689700Y-88699700D02*
X156855800Y-88699700D01*
D32*
X160230100Y-85835700D02*
X160208600Y-85857200D01*
%TO.N,Net-(J6-Pin_1)*%
X138413100Y-82910800D02*
X139228200Y-83725900D01*
X135443600Y-82910800D02*
X138413100Y-82910800D01*
%TO.N,/DTR*%
X140754500Y-87561300D02*
X139228200Y-87561300D01*
X139228200Y-85600900D02*
X139228200Y-87561300D01*
X142250800Y-91407000D02*
X142250800Y-91369000D01*
D33*
X144655600Y-91946800D02*
X142790600Y-91946800D01*
D32*
X140980800Y-90099000D02*
X140980800Y-87787600D01*
X142790600Y-91946800D02*
X142250800Y-91407000D01*
X140980800Y-87787600D02*
X140754500Y-87561300D01*
X142250800Y-91369000D02*
X140980800Y-90099000D01*
D33*
%TO.N,Net-(J3-Pin_4)*%
X153155600Y-93546800D02*
X151667600Y-93546800D01*
X151667600Y-93546800D02*
X151369400Y-93248600D01*
%TO.N,Net-(J3-Pin_3)*%
X150892800Y-94346800D02*
X150632800Y-94086800D01*
X153155600Y-94346800D02*
X150892800Y-94346800D01*
%TO.N,Net-(J3-Pin_2)*%
X150905600Y-97243000D02*
X150759800Y-97388800D01*
X150905600Y-95796800D02*
X150905600Y-97243000D01*
%TO.N,Net-(J3-Pin_1)*%
X150105600Y-95796800D02*
X150105600Y-94855000D01*
X150105600Y-94855000D02*
X149540600Y-94290000D01*
D32*
%TO.N,Net-(J3-Pin_5)*%
X145832200Y-85222200D02*
X145832200Y-74808200D01*
D33*
X148505600Y-87296800D02*
X148505600Y-86447800D01*
D32*
X146214710Y-85604710D02*
X145832200Y-85222200D01*
D33*
X147662510Y-85604710D02*
X146214710Y-85604710D01*
D32*
X132473400Y-73335000D02*
X130773600Y-75034800D01*
X145832200Y-74808200D02*
X144359000Y-73335000D01*
X144359000Y-73335000D02*
X132473400Y-73335000D01*
D33*
X148505600Y-86447800D02*
X147662510Y-85604710D01*
%TO.N,Net-(J4-Pin_2)*%
X148505600Y-95796800D02*
X148505600Y-100544800D01*
X148505600Y-100544800D02*
X148905600Y-100944800D01*
%TO.N,Net-(J4-Pin_1)*%
X146905600Y-100404800D02*
X146365600Y-100944800D01*
X146905600Y-95796800D02*
X146905600Y-100404800D01*
%TO.N,Net-(J4-Pin_4)*%
X149305600Y-95796800D02*
X149305600Y-98830200D01*
X149305600Y-98830200D02*
X150353400Y-99878000D01*
X150353400Y-102037000D02*
X148905600Y-103484800D01*
X150353400Y-99878000D02*
X150353400Y-102037000D01*
%TO.N,Net-(J4-Pin_3)*%
X147705600Y-95796800D02*
X147705600Y-102144800D01*
X147705600Y-102144800D02*
X146365600Y-103484800D01*
%TO.N,/MOSI2*%
X144130400Y-95687000D02*
X144655600Y-95161800D01*
X144655600Y-95161800D02*
X144655600Y-94346800D01*
D32*
X143368400Y-95687000D02*
X144130400Y-95687000D01*
X138136000Y-100919400D02*
X143368400Y-95687000D01*
%TO.N,/SCK2*%
X142758800Y-93553400D02*
X142784200Y-93553400D01*
X136879599Y-102202999D02*
X136879599Y-99432601D01*
D33*
X143063600Y-93553400D02*
X143070200Y-93546800D01*
D32*
X138136000Y-103459400D02*
X136879599Y-102202999D01*
D33*
X143070200Y-93546800D02*
X144655600Y-93546800D01*
D32*
X136879599Y-99432601D02*
X142758800Y-93553400D01*
D33*
X142784200Y-93553400D02*
X143063600Y-93553400D01*
D32*
%TO.N,/MISO2*%
X139419599Y-102856327D02*
X140072927Y-102202999D01*
D33*
X145425800Y-97515800D02*
X146105600Y-96836000D01*
D32*
X142518399Y-102202999D02*
X143571600Y-101149798D01*
X136815200Y-105161200D02*
X138745600Y-105161200D01*
X138745600Y-105161200D02*
X139419599Y-104487201D01*
X135596000Y-103459400D02*
X135596000Y-103942000D01*
X135596000Y-103942000D02*
X136815200Y-105161200D01*
D33*
X146105600Y-96836000D02*
X146105600Y-95796800D01*
D32*
X145425800Y-97541200D02*
X145425800Y-97515800D01*
X143571600Y-99395400D02*
X145425800Y-97541200D01*
X140072927Y-102202999D02*
X142518399Y-102202999D01*
X143571600Y-101149798D02*
X143571600Y-99395400D01*
X139419599Y-104487201D02*
X139419599Y-102856327D01*
%TO.N,Net-(J6-Pin_3)*%
X144613000Y-88704200D02*
X144655600Y-88746800D01*
X144613000Y-87584400D02*
X144613000Y-88704200D01*
D33*
%TO.N,Net-(J6-Pin_5)*%
X146905600Y-87296800D02*
X146905600Y-92556200D01*
X146905600Y-92556200D02*
X146543400Y-92918400D01*
%TO.N,Net-(J6-Pin_6)*%
X147705600Y-93458000D02*
X147153000Y-94010600D01*
X147705600Y-87296800D02*
X147705600Y-93458000D01*
%TO.N,Net-(J6-Pin_4)*%
X146105600Y-91489700D02*
X146162700Y-91546800D01*
X146105600Y-87296800D02*
X146105600Y-91489700D01*
%TO.N,Net-(J6-Pin_2)*%
X143068711Y-91084489D02*
X144593289Y-91084489D01*
X144593289Y-91084489D02*
X144655600Y-91146800D01*
%TO.N,Net-(U1-D+)*%
X153155600Y-91146800D02*
X157471800Y-91146800D01*
X158125800Y-91800800D02*
X159906100Y-91800800D01*
X157471800Y-91146800D02*
X158125800Y-91800800D01*
%TO.N,Net-(U1-D-)*%
X158303600Y-89514800D02*
X159906100Y-89514800D01*
X151553402Y-90346800D02*
X150429600Y-91470602D01*
X157471600Y-90346800D02*
X158303600Y-89514800D01*
X153155600Y-90346800D02*
X157471600Y-90346800D01*
X153155600Y-90346800D02*
X151553402Y-90346800D01*
%TD*%
M02*
