%TF.GenerationSoftware,KiCad,Pcbnew,9.0.6+1*%
%TF.CreationDate,2025-12-12T13:07:37+00:00*%
%TF.ProjectId,KDT_Hierarchical_KiBot,4b44545f-4869-4657-9261-726368696361,0.1.1*%
%TF.SameCoordinates,Original*%
%TF.FileFunction,Legend,Top*%
%TF.FilePolarity,Positive*%
%FSLAX46Y46*%
G04 Gerber Fmt 4.6, Leading zero omitted, Abs format (unit mm)*
G04 Created by KiCad (PCBNEW 9.0.6+1) date 2025-12-12 13:07:37*
%MOMM*%
%LPD*%
G01*
G04 APERTURE LIST*
G04 Aperture macros list*
%AMRoundRect*
0 Rectangle with rounded corners*
0 $1 Rounding radius*
0 $2 $3 $4 $5 $6 $7 $8 $9 X,Y pos of 4 corners*
0 Add a 4 corners polygon primitive as box body*
4,1,4,$2,$3,$4,$5,$6,$7,$8,$9,$2,$3,0*
0 Add four circle primitives for the rounded corners*
1,1,$1+$1,$2,$3*
1,1,$1+$1,$4,$5*
1,1,$1+$1,$6,$7*
1,1,$1+$1,$8,$9*
0 Add four rect primitives between the rounded corners*
20,1,$1+$1,$2,$3,$4,$5,0*
20,1,$1+$1,$4,$5,$6,$7,0*
20,1,$1+$1,$6,$7,$8,$9,0*
20,1,$1+$1,$8,$9,$2,$3,0*%
%AMFreePoly0*
4,1,39,0.535355,0.785355,0.550000,0.750000,0.550000,-0.750000,0.535355,-0.785355,0.500000,-0.800000,0.000000,-0.800000,-0.010328,-0.795722,-0.065263,-0.795722,-0.078204,-0.794018,-0.204283,-0.760236,-0.216342,-0.755241,-0.329381,-0.689978,-0.339736,-0.682032,-0.432032,-0.589736,-0.439978,-0.579381,-0.505241,-0.466342,-0.510236,-0.454283,-0.544018,-0.328204,-0.545722,-0.315263,-0.545722,-0.260327,
-0.550000,-0.250000,-0.550000,0.250000,-0.545722,0.260327,-0.545722,0.315263,-0.544018,0.328204,-0.510236,0.454283,-0.505241,0.466342,-0.439978,0.579381,-0.432032,0.589736,-0.339736,0.682032,-0.329381,0.689978,-0.216342,0.755241,-0.204283,0.760236,-0.078204,0.794018,-0.065263,0.795722,-0.010328,0.795722,0.000000,0.800000,0.500000,0.800000,0.535355,0.785355,0.535355,0.785355,
$1*%
%AMFreePoly1*
4,1,39,0.010328,0.795722,0.065263,0.795722,0.078204,0.794018,0.204283,0.760236,0.216342,0.755241,0.329381,0.689978,0.339736,0.682032,0.432032,0.589736,0.439978,0.579381,0.505241,0.466342,0.510236,0.454283,0.544018,0.328204,0.545722,0.315263,0.545722,0.260327,0.550000,0.250000,0.550000,-0.250000,0.545722,-0.260327,0.545722,-0.315263,0.544018,-0.328204,0.510236,-0.454283,
0.505241,-0.466342,0.439978,-0.579381,0.432032,-0.589736,0.339736,-0.682032,0.329381,-0.689978,0.216342,-0.755241,0.204283,-0.760236,0.078204,-0.794018,0.065263,-0.795722,0.010328,-0.795722,0.000000,-0.800000,-0.500000,-0.800000,-0.535355,-0.785355,-0.550000,-0.750000,-0.550000,0.750000,-0.535355,0.785355,-0.500000,0.800000,0.000000,0.800000,0.010328,0.795722,0.010328,0.795722,
$1*%
G04 Aperture macros list end*
%ADD10C,0.150000*%
%ADD11C,0.120000*%
%ADD12RoundRect,0.268750X-0.481250X0.268750X-0.481250X-0.268750X0.481250X-0.268750X0.481250X0.268750X0*%
%ADD13O,1.600000X2.100000*%
%ADD14C,2.100000*%
%ADD15RoundRect,0.050000X1.000000X-1.500000X1.000000X1.500000X-1.000000X1.500000X-1.000000X-1.500000X0*%
%ADD16RoundRect,0.050000X0.850000X0.850000X-0.850000X0.850000X-0.850000X-0.850000X0.850000X-0.850000X0*%
%ADD17O,1.800000X1.800000*%
%ADD18RoundRect,0.050000X-0.850000X-0.850000X0.850000X-0.850000X0.850000X0.850000X-0.850000X0.850000X0*%
%ADD19RoundRect,0.243750X0.281250X-0.243750X0.281250X0.243750X-0.281250X0.243750X-0.281250X-0.243750X0*%
%ADD20RoundRect,0.050000X0.800000X-0.800000X0.800000X0.800000X-0.800000X0.800000X-0.800000X-0.800000X0*%
%ADD21C,1.700000*%
%ADD22C,4.100000*%
%ADD23RoundRect,0.268750X0.481250X-0.268750X0.481250X0.268750X-0.481250X0.268750X-0.481250X-0.268750X0*%
%ADD24RoundRect,0.268750X-0.268750X-0.481250X0.268750X-0.481250X0.268750X0.481250X-0.268750X0.481250X0*%
%ADD25RoundRect,0.268750X0.268750X0.481250X-0.268750X0.481250X-0.268750X-0.481250X0.268750X-0.481250X0*%
%ADD26C,1.500000*%
%ADD27C,2.800000*%
%ADD28RoundRect,0.243750X-0.281250X0.243750X-0.281250X-0.243750X0.281250X-0.243750X0.281250X0.243750X0*%
%ADD29FreePoly0,270.000000*%
%ADD30FreePoly1,270.000000*%
%ADD31RoundRect,0.270000X0.655000X-0.405000X0.655000X0.405000X-0.655000X0.405000X-0.655000X-0.405000X0*%
%ADD32RoundRect,0.050000X0.850000X-0.850000X0.850000X0.850000X-0.850000X0.850000X-0.850000X-0.850000X0*%
%ADD33RoundRect,0.272222X-0.340278X-1.477778X0.340278X-1.477778X0.340278X1.477778X-0.340278X1.477778X0*%
%ADD34RoundRect,0.050000X0.950000X1.200000X-0.950000X1.200000X-0.950000X-1.200000X0.950000X-1.200000X0*%
%ADD35RoundRect,0.050000X-0.275000X0.800000X-0.275000X-0.800000X0.275000X-0.800000X0.275000X0.800000X0*%
%ADD36RoundRect,0.050000X-0.800000X-0.275000X0.800000X-0.275000X0.800000X0.275000X-0.800000X0.275000X0*%
%ADD37RoundRect,0.260000X-1.040000X1.540000X-1.040000X-1.540000X1.040000X-1.540000X1.040000X1.540000X0*%
G04 APERTURE END LIST*
D10*
X157628933Y-92795380D02*
X157581314Y-92843000D01*
X157581314Y-92843000D02*
X157438457Y-92890619D01*
X157438457Y-92890619D02*
X157343219Y-92890619D01*
X157343219Y-92890619D02*
X157200362Y-92843000D01*
X157200362Y-92843000D02*
X157105124Y-92747761D01*
X157105124Y-92747761D02*
X157057505Y-92652523D01*
X157057505Y-92652523D02*
X157009886Y-92462047D01*
X157009886Y-92462047D02*
X157009886Y-92319190D01*
X157009886Y-92319190D02*
X157057505Y-92128714D01*
X157057505Y-92128714D02*
X157105124Y-92033476D01*
X157105124Y-92033476D02*
X157200362Y-91938238D01*
X157200362Y-91938238D02*
X157343219Y-91890619D01*
X157343219Y-91890619D02*
X157438457Y-91890619D01*
X157438457Y-91890619D02*
X157581314Y-91938238D01*
X157581314Y-91938238D02*
X157628933Y-91985857D01*
X158533695Y-91890619D02*
X158057505Y-91890619D01*
X158057505Y-91890619D02*
X158009886Y-92366809D01*
X158009886Y-92366809D02*
X158057505Y-92319190D01*
X158057505Y-92319190D02*
X158152743Y-92271571D01*
X158152743Y-92271571D02*
X158390838Y-92271571D01*
X158390838Y-92271571D02*
X158486076Y-92319190D01*
X158486076Y-92319190D02*
X158533695Y-92366809D01*
X158533695Y-92366809D02*
X158581314Y-92462047D01*
X158581314Y-92462047D02*
X158581314Y-92700142D01*
X158581314Y-92700142D02*
X158533695Y-92795380D01*
X158533695Y-92795380D02*
X158486076Y-92843000D01*
X158486076Y-92843000D02*
X158390838Y-92890619D01*
X158390838Y-92890619D02*
X158152743Y-92890619D01*
X158152743Y-92890619D02*
X158057505Y-92843000D01*
X158057505Y-92843000D02*
X158009886Y-92795380D01*
X126118666Y-92601819D02*
X126118666Y-93316104D01*
X126118666Y-93316104D02*
X126071047Y-93458961D01*
X126071047Y-93458961D02*
X125975809Y-93554200D01*
X125975809Y-93554200D02*
X125832952Y-93601819D01*
X125832952Y-93601819D02*
X125737714Y-93601819D01*
X127118666Y-93601819D02*
X126547238Y-93601819D01*
X126832952Y-93601819D02*
X126832952Y-92601819D01*
X126832952Y-92601819D02*
X126737714Y-92744676D01*
X126737714Y-92744676D02*
X126642476Y-92839914D01*
X126642476Y-92839914D02*
X126547238Y-92887533D01*
X130284266Y-87547219D02*
X130284266Y-88261504D01*
X130284266Y-88261504D02*
X130236647Y-88404361D01*
X130236647Y-88404361D02*
X130141409Y-88499600D01*
X130141409Y-88499600D02*
X129998552Y-88547219D01*
X129998552Y-88547219D02*
X129903314Y-88547219D01*
X130665219Y-87547219D02*
X131284266Y-87547219D01*
X131284266Y-87547219D02*
X130950933Y-87928171D01*
X130950933Y-87928171D02*
X131093790Y-87928171D01*
X131093790Y-87928171D02*
X131189028Y-87975790D01*
X131189028Y-87975790D02*
X131236647Y-88023409D01*
X131236647Y-88023409D02*
X131284266Y-88118647D01*
X131284266Y-88118647D02*
X131284266Y-88356742D01*
X131284266Y-88356742D02*
X131236647Y-88451980D01*
X131236647Y-88451980D02*
X131189028Y-88499600D01*
X131189028Y-88499600D02*
X131093790Y-88547219D01*
X131093790Y-88547219D02*
X130808076Y-88547219D01*
X130808076Y-88547219D02*
X130712838Y-88499600D01*
X130712838Y-88499600D02*
X130665219Y-88451980D01*
X134754666Y-79774819D02*
X134754666Y-80489104D01*
X134754666Y-80489104D02*
X134707047Y-80631961D01*
X134707047Y-80631961D02*
X134611809Y-80727200D01*
X134611809Y-80727200D02*
X134468952Y-80774819D01*
X134468952Y-80774819D02*
X134373714Y-80774819D01*
X135659428Y-79774819D02*
X135468952Y-79774819D01*
X135468952Y-79774819D02*
X135373714Y-79822438D01*
X135373714Y-79822438D02*
X135326095Y-79870057D01*
X135326095Y-79870057D02*
X135230857Y-80012914D01*
X135230857Y-80012914D02*
X135183238Y-80203390D01*
X135183238Y-80203390D02*
X135183238Y-80584342D01*
X135183238Y-80584342D02*
X135230857Y-80679580D01*
X135230857Y-80679580D02*
X135278476Y-80727200D01*
X135278476Y-80727200D02*
X135373714Y-80774819D01*
X135373714Y-80774819D02*
X135564190Y-80774819D01*
X135564190Y-80774819D02*
X135659428Y-80727200D01*
X135659428Y-80727200D02*
X135707047Y-80679580D01*
X135707047Y-80679580D02*
X135754666Y-80584342D01*
X135754666Y-80584342D02*
X135754666Y-80346247D01*
X135754666Y-80346247D02*
X135707047Y-80251009D01*
X135707047Y-80251009D02*
X135659428Y-80203390D01*
X135659428Y-80203390D02*
X135564190Y-80155771D01*
X135564190Y-80155771D02*
X135373714Y-80155771D01*
X135373714Y-80155771D02*
X135278476Y-80203390D01*
X135278476Y-80203390D02*
X135230857Y-80251009D01*
X135230857Y-80251009D02*
X135183238Y-80346247D01*
X163445676Y-85261219D02*
X163779009Y-86261219D01*
X163779009Y-86261219D02*
X164112342Y-85261219D01*
X165017104Y-86261219D02*
X164683771Y-85785028D01*
X164445676Y-86261219D02*
X164445676Y-85261219D01*
X164445676Y-85261219D02*
X164826628Y-85261219D01*
X164826628Y-85261219D02*
X164921866Y-85308838D01*
X164921866Y-85308838D02*
X164969485Y-85356457D01*
X164969485Y-85356457D02*
X165017104Y-85451695D01*
X165017104Y-85451695D02*
X165017104Y-85594552D01*
X165017104Y-85594552D02*
X164969485Y-85689790D01*
X164969485Y-85689790D02*
X164921866Y-85737409D01*
X164921866Y-85737409D02*
X164826628Y-85785028D01*
X164826628Y-85785028D02*
X164445676Y-85785028D01*
X165398057Y-85356457D02*
X165445676Y-85308838D01*
X165445676Y-85308838D02*
X165540914Y-85261219D01*
X165540914Y-85261219D02*
X165779009Y-85261219D01*
X165779009Y-85261219D02*
X165874247Y-85308838D01*
X165874247Y-85308838D02*
X165921866Y-85356457D01*
X165921866Y-85356457D02*
X165969485Y-85451695D01*
X165969485Y-85451695D02*
X165969485Y-85546933D01*
X165969485Y-85546933D02*
X165921866Y-85689790D01*
X165921866Y-85689790D02*
X165350438Y-86261219D01*
X165350438Y-86261219D02*
X165969485Y-86261219D01*
X167571466Y-80282819D02*
X167571466Y-80997104D01*
X167571466Y-80997104D02*
X167523847Y-81139961D01*
X167523847Y-81139961D02*
X167428609Y-81235200D01*
X167428609Y-81235200D02*
X167285752Y-81282819D01*
X167285752Y-81282819D02*
X167190514Y-81282819D01*
X168000038Y-80378057D02*
X168047657Y-80330438D01*
X168047657Y-80330438D02*
X168142895Y-80282819D01*
X168142895Y-80282819D02*
X168380990Y-80282819D01*
X168380990Y-80282819D02*
X168476228Y-80330438D01*
X168476228Y-80330438D02*
X168523847Y-80378057D01*
X168523847Y-80378057D02*
X168571466Y-80473295D01*
X168571466Y-80473295D02*
X168571466Y-80568533D01*
X168571466Y-80568533D02*
X168523847Y-80711390D01*
X168523847Y-80711390D02*
X167952419Y-81282819D01*
X167952419Y-81282819D02*
X168571466Y-81282819D01*
X141068133Y-85200780D02*
X141020514Y-85248400D01*
X141020514Y-85248400D02*
X140877657Y-85296019D01*
X140877657Y-85296019D02*
X140782419Y-85296019D01*
X140782419Y-85296019D02*
X140639562Y-85248400D01*
X140639562Y-85248400D02*
X140544324Y-85153161D01*
X140544324Y-85153161D02*
X140496705Y-85057923D01*
X140496705Y-85057923D02*
X140449086Y-84867447D01*
X140449086Y-84867447D02*
X140449086Y-84724590D01*
X140449086Y-84724590D02*
X140496705Y-84534114D01*
X140496705Y-84534114D02*
X140544324Y-84438876D01*
X140544324Y-84438876D02*
X140639562Y-84343638D01*
X140639562Y-84343638D02*
X140782419Y-84296019D01*
X140782419Y-84296019D02*
X140877657Y-84296019D01*
X140877657Y-84296019D02*
X141020514Y-84343638D01*
X141020514Y-84343638D02*
X141068133Y-84391257D01*
X141639562Y-84724590D02*
X141544324Y-84676971D01*
X141544324Y-84676971D02*
X141496705Y-84629352D01*
X141496705Y-84629352D02*
X141449086Y-84534114D01*
X141449086Y-84534114D02*
X141449086Y-84486495D01*
X141449086Y-84486495D02*
X141496705Y-84391257D01*
X141496705Y-84391257D02*
X141544324Y-84343638D01*
X141544324Y-84343638D02*
X141639562Y-84296019D01*
X141639562Y-84296019D02*
X141830038Y-84296019D01*
X141830038Y-84296019D02*
X141925276Y-84343638D01*
X141925276Y-84343638D02*
X141972895Y-84391257D01*
X141972895Y-84391257D02*
X142020514Y-84486495D01*
X142020514Y-84486495D02*
X142020514Y-84534114D01*
X142020514Y-84534114D02*
X141972895Y-84629352D01*
X141972895Y-84629352D02*
X141925276Y-84676971D01*
X141925276Y-84676971D02*
X141830038Y-84724590D01*
X141830038Y-84724590D02*
X141639562Y-84724590D01*
X141639562Y-84724590D02*
X141544324Y-84772209D01*
X141544324Y-84772209D02*
X141496705Y-84819828D01*
X141496705Y-84819828D02*
X141449086Y-84915066D01*
X141449086Y-84915066D02*
X141449086Y-85105542D01*
X141449086Y-85105542D02*
X141496705Y-85200780D01*
X141496705Y-85200780D02*
X141544324Y-85248400D01*
X141544324Y-85248400D02*
X141639562Y-85296019D01*
X141639562Y-85296019D02*
X141830038Y-85296019D01*
X141830038Y-85296019D02*
X141925276Y-85248400D01*
X141925276Y-85248400D02*
X141972895Y-85200780D01*
X141972895Y-85200780D02*
X142020514Y-85105542D01*
X142020514Y-85105542D02*
X142020514Y-84915066D01*
X142020514Y-84915066D02*
X141972895Y-84819828D01*
X141972895Y-84819828D02*
X141925276Y-84772209D01*
X141925276Y-84772209D02*
X141830038Y-84724590D01*
X117242933Y-98891380D02*
X117195314Y-98939000D01*
X117195314Y-98939000D02*
X117052457Y-98986619D01*
X117052457Y-98986619D02*
X116957219Y-98986619D01*
X116957219Y-98986619D02*
X116814362Y-98939000D01*
X116814362Y-98939000D02*
X116719124Y-98843761D01*
X116719124Y-98843761D02*
X116671505Y-98748523D01*
X116671505Y-98748523D02*
X116623886Y-98558047D01*
X116623886Y-98558047D02*
X116623886Y-98415190D01*
X116623886Y-98415190D02*
X116671505Y-98224714D01*
X116671505Y-98224714D02*
X116719124Y-98129476D01*
X116719124Y-98129476D02*
X116814362Y-98034238D01*
X116814362Y-98034238D02*
X116957219Y-97986619D01*
X116957219Y-97986619D02*
X117052457Y-97986619D01*
X117052457Y-97986619D02*
X117195314Y-98034238D01*
X117195314Y-98034238D02*
X117242933Y-98081857D01*
X117623886Y-98081857D02*
X117671505Y-98034238D01*
X117671505Y-98034238D02*
X117766743Y-97986619D01*
X117766743Y-97986619D02*
X118004838Y-97986619D01*
X118004838Y-97986619D02*
X118100076Y-98034238D01*
X118100076Y-98034238D02*
X118147695Y-98081857D01*
X118147695Y-98081857D02*
X118195314Y-98177095D01*
X118195314Y-98177095D02*
X118195314Y-98272333D01*
X118195314Y-98272333D02*
X118147695Y-98415190D01*
X118147695Y-98415190D02*
X117576267Y-98986619D01*
X117576267Y-98986619D02*
X118195314Y-98986619D01*
X160753133Y-94059019D02*
X160419800Y-93582828D01*
X160181705Y-94059019D02*
X160181705Y-93059019D01*
X160181705Y-93059019D02*
X160562657Y-93059019D01*
X160562657Y-93059019D02*
X160657895Y-93106638D01*
X160657895Y-93106638D02*
X160705514Y-93154257D01*
X160705514Y-93154257D02*
X160753133Y-93249495D01*
X160753133Y-93249495D02*
X160753133Y-93392352D01*
X160753133Y-93392352D02*
X160705514Y-93487590D01*
X160705514Y-93487590D02*
X160657895Y-93535209D01*
X160657895Y-93535209D02*
X160562657Y-93582828D01*
X160562657Y-93582828D02*
X160181705Y-93582828D01*
X161705514Y-94059019D02*
X161134086Y-94059019D01*
X161419800Y-94059019D02*
X161419800Y-93059019D01*
X161419800Y-93059019D02*
X161324562Y-93201876D01*
X161324562Y-93201876D02*
X161229324Y-93297114D01*
X161229324Y-93297114D02*
X161134086Y-93344733D01*
X161534266Y-97953809D02*
X161200933Y-97953809D01*
X161200933Y-98477619D02*
X161200933Y-97477619D01*
X161200933Y-97477619D02*
X161677123Y-97477619D01*
X162391409Y-97953809D02*
X162534266Y-98001428D01*
X162534266Y-98001428D02*
X162581885Y-98049047D01*
X162581885Y-98049047D02*
X162629504Y-98144285D01*
X162629504Y-98144285D02*
X162629504Y-98287142D01*
X162629504Y-98287142D02*
X162581885Y-98382380D01*
X162581885Y-98382380D02*
X162534266Y-98430000D01*
X162534266Y-98430000D02*
X162439028Y-98477619D01*
X162439028Y-98477619D02*
X162058076Y-98477619D01*
X162058076Y-98477619D02*
X162058076Y-97477619D01*
X162058076Y-97477619D02*
X162391409Y-97477619D01*
X162391409Y-97477619D02*
X162486647Y-97525238D01*
X162486647Y-97525238D02*
X162534266Y-97572857D01*
X162534266Y-97572857D02*
X162581885Y-97668095D01*
X162581885Y-97668095D02*
X162581885Y-97763333D01*
X162581885Y-97763333D02*
X162534266Y-97858571D01*
X162534266Y-97858571D02*
X162486647Y-97906190D01*
X162486647Y-97906190D02*
X162391409Y-97953809D01*
X162391409Y-97953809D02*
X162058076Y-97953809D01*
X163581885Y-98477619D02*
X163010457Y-98477619D01*
X163296171Y-98477619D02*
X163296171Y-97477619D01*
X163296171Y-97477619D02*
X163200933Y-97620476D01*
X163200933Y-97620476D02*
X163105695Y-97715714D01*
X163105695Y-97715714D02*
X163010457Y-97763333D01*
X160676933Y-88319619D02*
X160343600Y-87843428D01*
X160105505Y-88319619D02*
X160105505Y-87319619D01*
X160105505Y-87319619D02*
X160486457Y-87319619D01*
X160486457Y-87319619D02*
X160581695Y-87367238D01*
X160581695Y-87367238D02*
X160629314Y-87414857D01*
X160629314Y-87414857D02*
X160676933Y-87510095D01*
X160676933Y-87510095D02*
X160676933Y-87652952D01*
X160676933Y-87652952D02*
X160629314Y-87748190D01*
X160629314Y-87748190D02*
X160581695Y-87795809D01*
X160581695Y-87795809D02*
X160486457Y-87843428D01*
X160486457Y-87843428D02*
X160105505Y-87843428D01*
X161057886Y-87414857D02*
X161105505Y-87367238D01*
X161105505Y-87367238D02*
X161200743Y-87319619D01*
X161200743Y-87319619D02*
X161438838Y-87319619D01*
X161438838Y-87319619D02*
X161534076Y-87367238D01*
X161534076Y-87367238D02*
X161581695Y-87414857D01*
X161581695Y-87414857D02*
X161629314Y-87510095D01*
X161629314Y-87510095D02*
X161629314Y-87605333D01*
X161629314Y-87605333D02*
X161581695Y-87748190D01*
X161581695Y-87748190D02*
X161010267Y-88319619D01*
X161010267Y-88319619D02*
X161629314Y-88319619D01*
X136331105Y-80012819D02*
X136331105Y-79012819D01*
X136331105Y-79012819D02*
X136569200Y-79012819D01*
X136569200Y-79012819D02*
X136712057Y-79060438D01*
X136712057Y-79060438D02*
X136807295Y-79155676D01*
X136807295Y-79155676D02*
X136854914Y-79250914D01*
X136854914Y-79250914D02*
X136902533Y-79441390D01*
X136902533Y-79441390D02*
X136902533Y-79584247D01*
X136902533Y-79584247D02*
X136854914Y-79774723D01*
X136854914Y-79774723D02*
X136807295Y-79869961D01*
X136807295Y-79869961D02*
X136712057Y-79965200D01*
X136712057Y-79965200D02*
X136569200Y-80012819D01*
X136569200Y-80012819D02*
X136331105Y-80012819D01*
X137235867Y-79012819D02*
X137854914Y-79012819D01*
X137854914Y-79012819D02*
X137521581Y-79393771D01*
X137521581Y-79393771D02*
X137664438Y-79393771D01*
X137664438Y-79393771D02*
X137759676Y-79441390D01*
X137759676Y-79441390D02*
X137807295Y-79489009D01*
X137807295Y-79489009D02*
X137854914Y-79584247D01*
X137854914Y-79584247D02*
X137854914Y-79822342D01*
X137854914Y-79822342D02*
X137807295Y-79917580D01*
X137807295Y-79917580D02*
X137759676Y-79965200D01*
X137759676Y-79965200D02*
X137664438Y-80012819D01*
X137664438Y-80012819D02*
X137378724Y-80012819D01*
X137378724Y-80012819D02*
X137283486Y-79965200D01*
X137283486Y-79965200D02*
X137235867Y-79917580D01*
X151151933Y-84972180D02*
X151104314Y-85019800D01*
X151104314Y-85019800D02*
X150961457Y-85067419D01*
X150961457Y-85067419D02*
X150866219Y-85067419D01*
X150866219Y-85067419D02*
X150723362Y-85019800D01*
X150723362Y-85019800D02*
X150628124Y-84924561D01*
X150628124Y-84924561D02*
X150580505Y-84829323D01*
X150580505Y-84829323D02*
X150532886Y-84638847D01*
X150532886Y-84638847D02*
X150532886Y-84495990D01*
X150532886Y-84495990D02*
X150580505Y-84305514D01*
X150580505Y-84305514D02*
X150628124Y-84210276D01*
X150628124Y-84210276D02*
X150723362Y-84115038D01*
X150723362Y-84115038D02*
X150866219Y-84067419D01*
X150866219Y-84067419D02*
X150961457Y-84067419D01*
X150961457Y-84067419D02*
X151104314Y-84115038D01*
X151104314Y-84115038D02*
X151151933Y-84162657D01*
X151485267Y-84067419D02*
X152151933Y-84067419D01*
X152151933Y-84067419D02*
X151723362Y-85067419D01*
X163496476Y-90290419D02*
X163829809Y-91290419D01*
X163829809Y-91290419D02*
X164163142Y-90290419D01*
X165067904Y-91290419D02*
X164734571Y-90814228D01*
X164496476Y-91290419D02*
X164496476Y-90290419D01*
X164496476Y-90290419D02*
X164877428Y-90290419D01*
X164877428Y-90290419D02*
X164972666Y-90338038D01*
X164972666Y-90338038D02*
X165020285Y-90385657D01*
X165020285Y-90385657D02*
X165067904Y-90480895D01*
X165067904Y-90480895D02*
X165067904Y-90623752D01*
X165067904Y-90623752D02*
X165020285Y-90718990D01*
X165020285Y-90718990D02*
X164972666Y-90766609D01*
X164972666Y-90766609D02*
X164877428Y-90814228D01*
X164877428Y-90814228D02*
X164496476Y-90814228D01*
X166020285Y-91290419D02*
X165448857Y-91290419D01*
X165734571Y-91290419D02*
X165734571Y-90290419D01*
X165734571Y-90290419D02*
X165639333Y-90433276D01*
X165639333Y-90433276D02*
X165544095Y-90528514D01*
X165544095Y-90528514D02*
X165448857Y-90576133D01*
X160950066Y-103371419D02*
X160950066Y-104085704D01*
X160950066Y-104085704D02*
X160902447Y-104228561D01*
X160902447Y-104228561D02*
X160807209Y-104323800D01*
X160807209Y-104323800D02*
X160664352Y-104371419D01*
X160664352Y-104371419D02*
X160569114Y-104371419D01*
X161426257Y-104371419D02*
X161426257Y-103371419D01*
X161426257Y-103371419D02*
X161807209Y-103371419D01*
X161807209Y-103371419D02*
X161902447Y-103419038D01*
X161902447Y-103419038D02*
X161950066Y-103466657D01*
X161950066Y-103466657D02*
X161997685Y-103561895D01*
X161997685Y-103561895D02*
X161997685Y-103704752D01*
X161997685Y-103704752D02*
X161950066Y-103799990D01*
X161950066Y-103799990D02*
X161902447Y-103847609D01*
X161902447Y-103847609D02*
X161807209Y-103895228D01*
X161807209Y-103895228D02*
X161426257Y-103895228D01*
X162950066Y-104371419D02*
X162378638Y-104371419D01*
X162664352Y-104371419D02*
X162664352Y-103371419D01*
X162664352Y-103371419D02*
X162569114Y-103514276D01*
X162569114Y-103514276D02*
X162473876Y-103609514D01*
X162473876Y-103609514D02*
X162378638Y-103657133D01*
X156600305Y-99875619D02*
X156600305Y-98875619D01*
X156600305Y-98875619D02*
X156838400Y-98875619D01*
X156838400Y-98875619D02*
X156981257Y-98923238D01*
X156981257Y-98923238D02*
X157076495Y-99018476D01*
X157076495Y-99018476D02*
X157124114Y-99113714D01*
X157124114Y-99113714D02*
X157171733Y-99304190D01*
X157171733Y-99304190D02*
X157171733Y-99447047D01*
X157171733Y-99447047D02*
X157124114Y-99637523D01*
X157124114Y-99637523D02*
X157076495Y-99732761D01*
X157076495Y-99732761D02*
X156981257Y-99828000D01*
X156981257Y-99828000D02*
X156838400Y-99875619D01*
X156838400Y-99875619D02*
X156600305Y-99875619D01*
X158124114Y-99875619D02*
X157552686Y-99875619D01*
X157838400Y-99875619D02*
X157838400Y-98875619D01*
X157838400Y-98875619D02*
X157743162Y-99018476D01*
X157743162Y-99018476D02*
X157647924Y-99113714D01*
X157647924Y-99113714D02*
X157552686Y-99161333D01*
X153412533Y-99469219D02*
X153079200Y-98993028D01*
X152841105Y-99469219D02*
X152841105Y-98469219D01*
X152841105Y-98469219D02*
X153222057Y-98469219D01*
X153222057Y-98469219D02*
X153317295Y-98516838D01*
X153317295Y-98516838D02*
X153364914Y-98564457D01*
X153364914Y-98564457D02*
X153412533Y-98659695D01*
X153412533Y-98659695D02*
X153412533Y-98802552D01*
X153412533Y-98802552D02*
X153364914Y-98897790D01*
X153364914Y-98897790D02*
X153317295Y-98945409D01*
X153317295Y-98945409D02*
X153222057Y-98993028D01*
X153222057Y-98993028D02*
X152841105Y-98993028D01*
X154269676Y-98802552D02*
X154269676Y-99469219D01*
X154031581Y-98421600D02*
X153793486Y-99135885D01*
X153793486Y-99135885D02*
X154412533Y-99135885D01*
X158670333Y-80171580D02*
X158622714Y-80219200D01*
X158622714Y-80219200D02*
X158479857Y-80266819D01*
X158479857Y-80266819D02*
X158384619Y-80266819D01*
X158384619Y-80266819D02*
X158241762Y-80219200D01*
X158241762Y-80219200D02*
X158146524Y-80123961D01*
X158146524Y-80123961D02*
X158098905Y-80028723D01*
X158098905Y-80028723D02*
X158051286Y-79838247D01*
X158051286Y-79838247D02*
X158051286Y-79695390D01*
X158051286Y-79695390D02*
X158098905Y-79504914D01*
X158098905Y-79504914D02*
X158146524Y-79409676D01*
X158146524Y-79409676D02*
X158241762Y-79314438D01*
X158241762Y-79314438D02*
X158384619Y-79266819D01*
X158384619Y-79266819D02*
X158479857Y-79266819D01*
X158479857Y-79266819D02*
X158622714Y-79314438D01*
X158622714Y-79314438D02*
X158670333Y-79362057D01*
X159003667Y-79266819D02*
X159622714Y-79266819D01*
X159622714Y-79266819D02*
X159289381Y-79647771D01*
X159289381Y-79647771D02*
X159432238Y-79647771D01*
X159432238Y-79647771D02*
X159527476Y-79695390D01*
X159527476Y-79695390D02*
X159575095Y-79743009D01*
X159575095Y-79743009D02*
X159622714Y-79838247D01*
X159622714Y-79838247D02*
X159622714Y-80076342D01*
X159622714Y-80076342D02*
X159575095Y-80171580D01*
X159575095Y-80171580D02*
X159527476Y-80219200D01*
X159527476Y-80219200D02*
X159432238Y-80266819D01*
X159432238Y-80266819D02*
X159146524Y-80266819D01*
X159146524Y-80266819D02*
X159051286Y-80219200D01*
X159051286Y-80219200D02*
X159003667Y-80171580D01*
X140088666Y-97758019D02*
X140088666Y-98472304D01*
X140088666Y-98472304D02*
X140041047Y-98615161D01*
X140041047Y-98615161D02*
X139945809Y-98710400D01*
X139945809Y-98710400D02*
X139802952Y-98758019D01*
X139802952Y-98758019D02*
X139707714Y-98758019D01*
X141041047Y-97758019D02*
X140564857Y-97758019D01*
X140564857Y-97758019D02*
X140517238Y-98234209D01*
X140517238Y-98234209D02*
X140564857Y-98186590D01*
X140564857Y-98186590D02*
X140660095Y-98138971D01*
X140660095Y-98138971D02*
X140898190Y-98138971D01*
X140898190Y-98138971D02*
X140993428Y-98186590D01*
X140993428Y-98186590D02*
X141041047Y-98234209D01*
X141041047Y-98234209D02*
X141088666Y-98329447D01*
X141088666Y-98329447D02*
X141088666Y-98567542D01*
X141088666Y-98567542D02*
X141041047Y-98662780D01*
X141041047Y-98662780D02*
X140993428Y-98710400D01*
X140993428Y-98710400D02*
X140898190Y-98758019D01*
X140898190Y-98758019D02*
X140660095Y-98758019D01*
X140660095Y-98758019D02*
X140564857Y-98710400D01*
X140564857Y-98710400D02*
X140517238Y-98662780D01*
X153264933Y-83677619D02*
X152931600Y-83201428D01*
X152693505Y-83677619D02*
X152693505Y-82677619D01*
X152693505Y-82677619D02*
X153074457Y-82677619D01*
X153074457Y-82677619D02*
X153169695Y-82725238D01*
X153169695Y-82725238D02*
X153217314Y-82772857D01*
X153217314Y-82772857D02*
X153264933Y-82868095D01*
X153264933Y-82868095D02*
X153264933Y-83010952D01*
X153264933Y-83010952D02*
X153217314Y-83106190D01*
X153217314Y-83106190D02*
X153169695Y-83153809D01*
X153169695Y-83153809D02*
X153074457Y-83201428D01*
X153074457Y-83201428D02*
X152693505Y-83201428D01*
X153598267Y-82677619D02*
X154217314Y-82677619D01*
X154217314Y-82677619D02*
X153883981Y-83058571D01*
X153883981Y-83058571D02*
X154026838Y-83058571D01*
X154026838Y-83058571D02*
X154122076Y-83106190D01*
X154122076Y-83106190D02*
X154169695Y-83153809D01*
X154169695Y-83153809D02*
X154217314Y-83249047D01*
X154217314Y-83249047D02*
X154217314Y-83487142D01*
X154217314Y-83487142D02*
X154169695Y-83582380D01*
X154169695Y-83582380D02*
X154122076Y-83630000D01*
X154122076Y-83630000D02*
X154026838Y-83677619D01*
X154026838Y-83677619D02*
X153741124Y-83677619D01*
X153741124Y-83677619D02*
X153645886Y-83630000D01*
X153645886Y-83630000D02*
X153598267Y-83582380D01*
X162034266Y-80191809D02*
X161700933Y-80191809D01*
X161700933Y-80715619D02*
X161700933Y-79715619D01*
X161700933Y-79715619D02*
X162177123Y-79715619D01*
X163081885Y-80715619D02*
X162510457Y-80715619D01*
X162796171Y-80715619D02*
X162796171Y-79715619D01*
X162796171Y-79715619D02*
X162700933Y-79858476D01*
X162700933Y-79858476D02*
X162605695Y-79953714D01*
X162605695Y-79953714D02*
X162510457Y-80001333D01*
X147276866Y-97758019D02*
X147276866Y-98472304D01*
X147276866Y-98472304D02*
X147229247Y-98615161D01*
X147229247Y-98615161D02*
X147134009Y-98710400D01*
X147134009Y-98710400D02*
X146991152Y-98758019D01*
X146991152Y-98758019D02*
X146895914Y-98758019D01*
X148181628Y-98091352D02*
X148181628Y-98758019D01*
X147943533Y-97710400D02*
X147705438Y-98424685D01*
X147705438Y-98424685D02*
X148324485Y-98424685D01*
X139086933Y-91519019D02*
X138753600Y-91042828D01*
X138515505Y-91519019D02*
X138515505Y-90519019D01*
X138515505Y-90519019D02*
X138896457Y-90519019D01*
X138896457Y-90519019D02*
X138991695Y-90566638D01*
X138991695Y-90566638D02*
X139039314Y-90614257D01*
X139039314Y-90614257D02*
X139086933Y-90709495D01*
X139086933Y-90709495D02*
X139086933Y-90852352D01*
X139086933Y-90852352D02*
X139039314Y-90947590D01*
X139039314Y-90947590D02*
X138991695Y-90995209D01*
X138991695Y-90995209D02*
X138896457Y-91042828D01*
X138896457Y-91042828D02*
X138515505Y-91042828D01*
X139991695Y-90519019D02*
X139515505Y-90519019D01*
X139515505Y-90519019D02*
X139467886Y-90995209D01*
X139467886Y-90995209D02*
X139515505Y-90947590D01*
X139515505Y-90947590D02*
X139610743Y-90899971D01*
X139610743Y-90899971D02*
X139848838Y-90899971D01*
X139848838Y-90899971D02*
X139944076Y-90947590D01*
X139944076Y-90947590D02*
X139991695Y-90995209D01*
X139991695Y-90995209D02*
X140039314Y-91090447D01*
X140039314Y-91090447D02*
X140039314Y-91328542D01*
X140039314Y-91328542D02*
X139991695Y-91423780D01*
X139991695Y-91423780D02*
X139944076Y-91471400D01*
X139944076Y-91471400D02*
X139848838Y-91519019D01*
X139848838Y-91519019D02*
X139610743Y-91519019D01*
X139610743Y-91519019D02*
X139515505Y-91471400D01*
X139515505Y-91471400D02*
X139467886Y-91423780D01*
X143112905Y-81105019D02*
X143112905Y-80105019D01*
X143112905Y-80105019D02*
X143351000Y-80105019D01*
X143351000Y-80105019D02*
X143493857Y-80152638D01*
X143493857Y-80152638D02*
X143589095Y-80247876D01*
X143589095Y-80247876D02*
X143636714Y-80343114D01*
X143636714Y-80343114D02*
X143684333Y-80533590D01*
X143684333Y-80533590D02*
X143684333Y-80676447D01*
X143684333Y-80676447D02*
X143636714Y-80866923D01*
X143636714Y-80866923D02*
X143589095Y-80962161D01*
X143589095Y-80962161D02*
X143493857Y-81057400D01*
X143493857Y-81057400D02*
X143351000Y-81105019D01*
X143351000Y-81105019D02*
X143112905Y-81105019D01*
X144065286Y-80200257D02*
X144112905Y-80152638D01*
X144112905Y-80152638D02*
X144208143Y-80105019D01*
X144208143Y-80105019D02*
X144446238Y-80105019D01*
X144446238Y-80105019D02*
X144541476Y-80152638D01*
X144541476Y-80152638D02*
X144589095Y-80200257D01*
X144589095Y-80200257D02*
X144636714Y-80295495D01*
X144636714Y-80295495D02*
X144636714Y-80390733D01*
X144636714Y-80390733D02*
X144589095Y-80533590D01*
X144589095Y-80533590D02*
X144017667Y-81105019D01*
X144017667Y-81105019D02*
X144636714Y-81105019D01*
X141626933Y-73866019D02*
X141293600Y-73389828D01*
X141055505Y-73866019D02*
X141055505Y-72866019D01*
X141055505Y-72866019D02*
X141436457Y-72866019D01*
X141436457Y-72866019D02*
X141531695Y-72913638D01*
X141531695Y-72913638D02*
X141579314Y-72961257D01*
X141579314Y-72961257D02*
X141626933Y-73056495D01*
X141626933Y-73056495D02*
X141626933Y-73199352D01*
X141626933Y-73199352D02*
X141579314Y-73294590D01*
X141579314Y-73294590D02*
X141531695Y-73342209D01*
X141531695Y-73342209D02*
X141436457Y-73389828D01*
X141436457Y-73389828D02*
X141055505Y-73389828D01*
X142484076Y-72866019D02*
X142293600Y-72866019D01*
X142293600Y-72866019D02*
X142198362Y-72913638D01*
X142198362Y-72913638D02*
X142150743Y-72961257D01*
X142150743Y-72961257D02*
X142055505Y-73104114D01*
X142055505Y-73104114D02*
X142007886Y-73294590D01*
X142007886Y-73294590D02*
X142007886Y-73675542D01*
X142007886Y-73675542D02*
X142055505Y-73770780D01*
X142055505Y-73770780D02*
X142103124Y-73818400D01*
X142103124Y-73818400D02*
X142198362Y-73866019D01*
X142198362Y-73866019D02*
X142388838Y-73866019D01*
X142388838Y-73866019D02*
X142484076Y-73818400D01*
X142484076Y-73818400D02*
X142531695Y-73770780D01*
X142531695Y-73770780D02*
X142579314Y-73675542D01*
X142579314Y-73675542D02*
X142579314Y-73437447D01*
X142579314Y-73437447D02*
X142531695Y-73342209D01*
X142531695Y-73342209D02*
X142484076Y-73294590D01*
X142484076Y-73294590D02*
X142388838Y-73246971D01*
X142388838Y-73246971D02*
X142198362Y-73246971D01*
X142198362Y-73246971D02*
X142103124Y-73294590D01*
X142103124Y-73294590D02*
X142055505Y-73342209D01*
X142055505Y-73342209D02*
X142007886Y-73437447D01*
X152925209Y-78501228D02*
X152925209Y-78977419D01*
X152591876Y-77977419D02*
X152925209Y-78501228D01*
X152925209Y-78501228D02*
X153258542Y-77977419D01*
X154115685Y-78977419D02*
X153544257Y-78977419D01*
X153829971Y-78977419D02*
X153829971Y-77977419D01*
X153829971Y-77977419D02*
X153734733Y-78120276D01*
X153734733Y-78120276D02*
X153639495Y-78215514D01*
X153639495Y-78215514D02*
X153544257Y-78263133D01*
X139163133Y-73916819D02*
X138829800Y-73440628D01*
X138591705Y-73916819D02*
X138591705Y-72916819D01*
X138591705Y-72916819D02*
X138972657Y-72916819D01*
X138972657Y-72916819D02*
X139067895Y-72964438D01*
X139067895Y-72964438D02*
X139115514Y-73012057D01*
X139115514Y-73012057D02*
X139163133Y-73107295D01*
X139163133Y-73107295D02*
X139163133Y-73250152D01*
X139163133Y-73250152D02*
X139115514Y-73345390D01*
X139115514Y-73345390D02*
X139067895Y-73393009D01*
X139067895Y-73393009D02*
X138972657Y-73440628D01*
X138972657Y-73440628D02*
X138591705Y-73440628D01*
X139496467Y-72916819D02*
X140163133Y-72916819D01*
X140163133Y-72916819D02*
X139734562Y-73916819D01*
X143673295Y-84778619D02*
X143673295Y-85588142D01*
X143673295Y-85588142D02*
X143720914Y-85683380D01*
X143720914Y-85683380D02*
X143768533Y-85731000D01*
X143768533Y-85731000D02*
X143863771Y-85778619D01*
X143863771Y-85778619D02*
X144054247Y-85778619D01*
X144054247Y-85778619D02*
X144149485Y-85731000D01*
X144149485Y-85731000D02*
X144197104Y-85683380D01*
X144197104Y-85683380D02*
X144244723Y-85588142D01*
X144244723Y-85588142D02*
X144244723Y-84778619D01*
X145244723Y-85778619D02*
X144673295Y-85778619D01*
X144959009Y-85778619D02*
X144959009Y-84778619D01*
X144959009Y-84778619D02*
X144863771Y-84921476D01*
X144863771Y-84921476D02*
X144768533Y-85016714D01*
X144768533Y-85016714D02*
X144673295Y-85064333D01*
X130146133Y-96097380D02*
X130098514Y-96145000D01*
X130098514Y-96145000D02*
X129955657Y-96192619D01*
X129955657Y-96192619D02*
X129860419Y-96192619D01*
X129860419Y-96192619D02*
X129717562Y-96145000D01*
X129717562Y-96145000D02*
X129622324Y-96049761D01*
X129622324Y-96049761D02*
X129574705Y-95954523D01*
X129574705Y-95954523D02*
X129527086Y-95764047D01*
X129527086Y-95764047D02*
X129527086Y-95621190D01*
X129527086Y-95621190D02*
X129574705Y-95430714D01*
X129574705Y-95430714D02*
X129622324Y-95335476D01*
X129622324Y-95335476D02*
X129717562Y-95240238D01*
X129717562Y-95240238D02*
X129860419Y-95192619D01*
X129860419Y-95192619D02*
X129955657Y-95192619D01*
X129955657Y-95192619D02*
X130098514Y-95240238D01*
X130098514Y-95240238D02*
X130146133Y-95287857D01*
X131098514Y-96192619D02*
X130527086Y-96192619D01*
X130812800Y-96192619D02*
X130812800Y-95192619D01*
X130812800Y-95192619D02*
X130717562Y-95335476D01*
X130717562Y-95335476D02*
X130622324Y-95430714D01*
X130622324Y-95430714D02*
X130527086Y-95478333D01*
X148103933Y-81111380D02*
X148056314Y-81159000D01*
X148056314Y-81159000D02*
X147913457Y-81206619D01*
X147913457Y-81206619D02*
X147818219Y-81206619D01*
X147818219Y-81206619D02*
X147675362Y-81159000D01*
X147675362Y-81159000D02*
X147580124Y-81063761D01*
X147580124Y-81063761D02*
X147532505Y-80968523D01*
X147532505Y-80968523D02*
X147484886Y-80778047D01*
X147484886Y-80778047D02*
X147484886Y-80635190D01*
X147484886Y-80635190D02*
X147532505Y-80444714D01*
X147532505Y-80444714D02*
X147580124Y-80349476D01*
X147580124Y-80349476D02*
X147675362Y-80254238D01*
X147675362Y-80254238D02*
X147818219Y-80206619D01*
X147818219Y-80206619D02*
X147913457Y-80206619D01*
X147913457Y-80206619D02*
X148056314Y-80254238D01*
X148056314Y-80254238D02*
X148103933Y-80301857D01*
X148961076Y-80539952D02*
X148961076Y-81206619D01*
X148722981Y-80159000D02*
X148484886Y-80873285D01*
X148484886Y-80873285D02*
X149103933Y-80873285D01*
X156663733Y-85607180D02*
X156616114Y-85654800D01*
X156616114Y-85654800D02*
X156473257Y-85702419D01*
X156473257Y-85702419D02*
X156378019Y-85702419D01*
X156378019Y-85702419D02*
X156235162Y-85654800D01*
X156235162Y-85654800D02*
X156139924Y-85559561D01*
X156139924Y-85559561D02*
X156092305Y-85464323D01*
X156092305Y-85464323D02*
X156044686Y-85273847D01*
X156044686Y-85273847D02*
X156044686Y-85130990D01*
X156044686Y-85130990D02*
X156092305Y-84940514D01*
X156092305Y-84940514D02*
X156139924Y-84845276D01*
X156139924Y-84845276D02*
X156235162Y-84750038D01*
X156235162Y-84750038D02*
X156378019Y-84702419D01*
X156378019Y-84702419D02*
X156473257Y-84702419D01*
X156473257Y-84702419D02*
X156616114Y-84750038D01*
X156616114Y-84750038D02*
X156663733Y-84797657D01*
X157520876Y-84702419D02*
X157330400Y-84702419D01*
X157330400Y-84702419D02*
X157235162Y-84750038D01*
X157235162Y-84750038D02*
X157187543Y-84797657D01*
X157187543Y-84797657D02*
X157092305Y-84940514D01*
X157092305Y-84940514D02*
X157044686Y-85130990D01*
X157044686Y-85130990D02*
X157044686Y-85511942D01*
X157044686Y-85511942D02*
X157092305Y-85607180D01*
X157092305Y-85607180D02*
X157139924Y-85654800D01*
X157139924Y-85654800D02*
X157235162Y-85702419D01*
X157235162Y-85702419D02*
X157425638Y-85702419D01*
X157425638Y-85702419D02*
X157520876Y-85654800D01*
X157520876Y-85654800D02*
X157568495Y-85607180D01*
X157568495Y-85607180D02*
X157616114Y-85511942D01*
X157616114Y-85511942D02*
X157616114Y-85273847D01*
X157616114Y-85273847D02*
X157568495Y-85178609D01*
X157568495Y-85178609D02*
X157520876Y-85130990D01*
X157520876Y-85130990D02*
X157425638Y-85083371D01*
X157425638Y-85083371D02*
X157235162Y-85083371D01*
X157235162Y-85083371D02*
X157139924Y-85130990D01*
X157139924Y-85130990D02*
X157092305Y-85178609D01*
X157092305Y-85178609D02*
X157044686Y-85273847D01*
D11*
%TO.C,C5*%
X157085600Y-94590222D02*
X157085600Y-95107378D01*
X158505600Y-94590222D02*
X158505600Y-95107378D01*
%TO.C,J1*%
X112463600Y-82334800D02*
X116073600Y-82334800D01*
X112463600Y-91454800D02*
X112463600Y-82334800D01*
X112463600Y-91454800D02*
X116073600Y-91454800D01*
X115773600Y-83894800D02*
X120573600Y-83894800D01*
X115773600Y-89894800D02*
X120573600Y-89894800D01*
X115773600Y-91454800D02*
X115773600Y-82334800D01*
X116313600Y-79634800D02*
X116313600Y-81534800D01*
X117653600Y-79634800D02*
X116313600Y-79634800D01*
X119073600Y-82334800D02*
X122073600Y-82334800D01*
X119073600Y-91454800D02*
X122073600Y-91454800D01*
X125073600Y-82334800D02*
X127383600Y-82334800D01*
X125073600Y-91454800D02*
X127383600Y-91454800D01*
X127383600Y-91454800D02*
X127383600Y-82334800D01*
X120573600Y-83894800D02*
G75*
G02*
X120573600Y-89894800I0J-3000000D01*
G01*
%TO.C,J3*%
X129443600Y-83924800D02*
X129443600Y-73704800D01*
X132103600Y-73704800D02*
X129443600Y-73704800D01*
X132103600Y-83924800D02*
X129443600Y-83924800D01*
X132103600Y-83924800D02*
X132103600Y-73704800D01*
X132103600Y-85194800D02*
X132103600Y-86524800D01*
X132103600Y-86524800D02*
X130773600Y-86524800D01*
%TO.C,J6*%
X134113600Y-81580800D02*
X135443600Y-81580800D01*
X134113600Y-82910800D02*
X134113600Y-81580800D01*
X134113600Y-84180800D02*
X134113600Y-96940800D01*
X134113600Y-84180800D02*
X136773600Y-84180800D01*
X134113600Y-96940800D02*
X136773600Y-96940800D01*
X136773600Y-84180800D02*
X136773600Y-96940800D01*
%TO.C,VR2*%
X164397600Y-88178979D02*
X164397600Y-87853421D01*
X165417600Y-88178979D02*
X165417600Y-87853421D01*
%TO.C,J2*%
X165905600Y-86728800D02*
X165905600Y-87728800D01*
X165905600Y-87728800D02*
X166405600Y-87228800D01*
X166405600Y-87228800D02*
X165905600Y-86728800D01*
X166605600Y-82368800D02*
X170355600Y-82368800D01*
X166605600Y-94588800D02*
X166605600Y-82368800D01*
X166605600Y-94588800D02*
X170355600Y-94588800D01*
X183225600Y-82368800D02*
X175255600Y-82368800D01*
X183225600Y-94588800D02*
X175255600Y-94588800D01*
X183225600Y-94588800D02*
X183225600Y-82368800D01*
%TO.C,C8*%
X138518200Y-84921978D02*
X138518200Y-84404822D01*
X139938200Y-84921978D02*
X139938200Y-84404822D01*
%TO.C,C2*%
X117215022Y-95884800D02*
X117732178Y-95884800D01*
X117215022Y-97304800D02*
X117732178Y-97304800D01*
%TO.C,R1*%
X160585022Y-91090800D02*
X161102178Y-91090800D01*
X160585022Y-92510800D02*
X161102178Y-92510800D01*
%TO.C,FB1*%
X162626178Y-95662800D02*
X162109022Y-95662800D01*
X162626178Y-97082800D02*
X162109022Y-97082800D01*
%TO.C,R2*%
X160585022Y-88804800D02*
X161102178Y-88804800D01*
X160585022Y-90224800D02*
X161102178Y-90224800D01*
%TO.C,D3*%
X138293600Y-79644800D02*
X138293600Y-82329800D01*
X138293600Y-82329800D02*
X140213600Y-82329800D01*
X140213600Y-82329800D02*
X140213600Y-79644800D01*
%TO.C,C7*%
X148189822Y-83851800D02*
X148706978Y-83851800D01*
X148189822Y-85271800D02*
X148706978Y-85271800D01*
%TO.C,VR1*%
X164397600Y-92882521D02*
X164397600Y-93208079D01*
X165417600Y-92882521D02*
X165417600Y-93208079D01*
%TO.C,JP1*%
X160732600Y-102178200D02*
X160732600Y-100778200D01*
X161432600Y-100078200D02*
X162032600Y-100078200D01*
X162032600Y-102878200D02*
X161432600Y-102878200D01*
X162732600Y-100778200D02*
X162732600Y-102178200D01*
X160732600Y-100778200D02*
G75*
G02*
X161432600Y-100078200I699999J1D01*
G01*
X161432600Y-102878200D02*
G75*
G02*
X160732600Y-102178200I0J700000D01*
G01*
X162032600Y-100078200D02*
G75*
G02*
X162732600Y-100778200I1J-699999D01*
G01*
X162732600Y-102178200D02*
G75*
G02*
X162032600Y-102878200I-700000J0D01*
G01*
%TO.C,D1*%
X156152600Y-100868800D02*
X156152600Y-104753800D01*
X156152600Y-104753800D02*
X158422600Y-104753800D01*
X158422600Y-104753800D02*
X158422600Y-100868800D01*
%TO.C,R4*%
X152767600Y-101711378D02*
X152767600Y-101194222D01*
X154187600Y-101711378D02*
X154187600Y-101194222D01*
%TO.C,C3*%
X156023600Y-80552222D02*
X156023600Y-81069378D01*
X157443600Y-80552222D02*
X157443600Y-81069378D01*
%TO.C,J5*%
X134266000Y-99589400D02*
X142006000Y-99589400D01*
X134266000Y-102189400D02*
X134266000Y-99589400D01*
X134266000Y-104789400D02*
X134266000Y-103459400D01*
X135596000Y-104789400D02*
X134266000Y-104789400D01*
X136866000Y-102189400D02*
X134266000Y-102189400D01*
X136866000Y-104789400D02*
X136866000Y-102189400D01*
X136866000Y-104789400D02*
X142006000Y-104789400D01*
X142006000Y-104789400D02*
X142006000Y-99589400D01*
%TO.C,R3*%
X153690178Y-80862800D02*
X153173022Y-80862800D01*
X153690178Y-82282800D02*
X153173022Y-82282800D01*
%TO.C,F1*%
X160981348Y-81200800D02*
X163753852Y-81200800D01*
X160981348Y-84620800D02*
X163753852Y-84620800D01*
%TO.C,J4*%
X145035600Y-99614800D02*
X146365600Y-99614800D01*
X145035600Y-100944800D02*
X145035600Y-99614800D01*
X145035600Y-102214800D02*
X145035600Y-104814800D01*
X145035600Y-102214800D02*
X147635600Y-102214800D01*
X145035600Y-104814800D02*
X150235600Y-104814800D01*
X147635600Y-99614800D02*
X150235600Y-99614800D01*
X147635600Y-102214800D02*
X147635600Y-99614800D01*
X150235600Y-99614800D02*
X150235600Y-104814800D01*
%TO.C,R5*%
X138518200Y-88240222D02*
X138518200Y-88757378D01*
X139938200Y-88240222D02*
X139938200Y-88757378D01*
%TO.C,D2*%
X140833600Y-79644800D02*
X140833600Y-82329800D01*
X140833600Y-82329800D02*
X142753600Y-82329800D01*
X142753600Y-82329800D02*
X142753600Y-79644800D01*
%TO.C,R6*%
X141083600Y-75611022D02*
X141083600Y-76128178D01*
X142503600Y-75611022D02*
X142503600Y-76128178D01*
%TO.C,Y1*%
X150701400Y-77522600D02*
X156601400Y-77522600D01*
X156601400Y-73922600D02*
X150701400Y-73922600D01*
X156601400Y-77522600D02*
X156601400Y-73922600D01*
%TO.C,R7*%
X138543600Y-75611022D02*
X138543600Y-76128178D01*
X139963600Y-75611022D02*
X139963600Y-76128178D01*
D10*
%TO.C,U1*%
X145280600Y-87921800D02*
X145280600Y-88246800D01*
X145280600Y-87921800D02*
X145605600Y-87921800D01*
X145280600Y-95171800D02*
X145280600Y-94846800D01*
X145280600Y-95171800D02*
X145605600Y-95171800D01*
X152305600Y-87921800D02*
X152305600Y-86496800D01*
X152530600Y-87921800D02*
X152305600Y-87921800D01*
X152530600Y-87921800D02*
X152530600Y-88246800D01*
X152530600Y-95171800D02*
X152205600Y-95171800D01*
X152530600Y-95171800D02*
X152530600Y-94846800D01*
D11*
%TO.C,C1*%
X121049000Y-97393637D02*
X121049000Y-104849200D01*
X121049000Y-104849200D02*
X123799000Y-104849200D01*
X122113437Y-96329200D02*
X121049000Y-97393637D01*
X122113437Y-96329200D02*
X123799000Y-96329200D01*
X127819000Y-95089200D02*
X127819000Y-96089200D01*
X128319000Y-95589200D02*
X127319000Y-95589200D01*
X128504563Y-96329200D02*
X126819000Y-96329200D01*
X128504563Y-96329200D02*
X129569000Y-97393637D01*
X129569000Y-97393637D02*
X129569000Y-104849200D01*
X129569000Y-104849200D02*
X126819000Y-104849200D01*
%TO.C,C4*%
X149673600Y-80552222D02*
X149673600Y-81069378D01*
X151093600Y-80552222D02*
X151093600Y-81069378D01*
%TO.C,C6*%
X156145800Y-88020778D02*
X156145800Y-87503622D01*
X157565800Y-88020778D02*
X157565800Y-87503622D01*
%TD*%
%LPC*%
D12*
%TO.C,C5*%
X157795600Y-93911300D03*
X157795600Y-95786300D03*
%TD*%
D13*
%TO.C,J1*%
X117673600Y-86894800D03*
D14*
X122073600Y-86894800D03*
D15*
X117573600Y-81394800D03*
X123573600Y-81394800D03*
X123573600Y-92394800D03*
X117573600Y-92394800D03*
%TD*%
D16*
%TO.C,J3*%
X130773600Y-85194800D03*
D17*
X130773600Y-82654800D03*
X130773600Y-80114800D03*
X130773600Y-77574800D03*
X130773600Y-75034800D03*
%TD*%
D18*
%TO.C,J6*%
X135443600Y-82910800D03*
D17*
X135443600Y-85450800D03*
X135443600Y-87990800D03*
X135443600Y-90530800D03*
X135443600Y-93070800D03*
X135443600Y-95610800D03*
%TD*%
D19*
%TO.C,VR2*%
X164907600Y-88803700D03*
X164907600Y-87228700D03*
%TD*%
D20*
%TO.C,J2*%
X167955600Y-87228800D03*
D21*
X167955600Y-89728800D03*
X169955600Y-89728800D03*
X169955600Y-87228800D03*
D22*
X172815600Y-82478800D03*
X172815600Y-94478800D03*
%TD*%
D23*
%TO.C,C8*%
X139228200Y-85600900D03*
X139228200Y-83725900D03*
%TD*%
D24*
%TO.C,C2*%
X116536100Y-96594800D03*
X118411100Y-96594800D03*
%TD*%
%TO.C,R1*%
X159906100Y-91800800D03*
X161781100Y-91800800D03*
%TD*%
D25*
%TO.C,FB1*%
X163305100Y-96372800D03*
X161430100Y-96372800D03*
%TD*%
D24*
%TO.C,R2*%
X159906100Y-89514800D03*
X161781100Y-89514800D03*
%TD*%
D26*
%TO.C,FID3*%
X124470800Y-75773400D03*
%TD*%
D27*
%TO.C,H4*%
X171473600Y-75194800D03*
%TD*%
D23*
%TO.C,D3*%
X139253600Y-81582300D03*
X139253600Y-79707300D03*
%TD*%
D26*
%TO.C,FID2*%
X166177600Y-102976800D03*
%TD*%
D27*
%TO.C,H2*%
X117473600Y-102694800D03*
%TD*%
D24*
%TO.C,C7*%
X147510900Y-84561800D03*
X149385900Y-84561800D03*
%TD*%
D28*
%TO.C,VR1*%
X164907600Y-92257800D03*
X164907600Y-93832800D03*
%TD*%
D29*
%TO.C,JP1*%
X161732600Y-100828200D03*
D30*
X161732600Y-102128200D03*
%TD*%
D31*
%TO.C,D1*%
X157287600Y-103868800D03*
X157287600Y-101068800D03*
%TD*%
D23*
%TO.C,R4*%
X153477600Y-102390300D03*
X153477600Y-100515300D03*
%TD*%
D12*
%TO.C,C3*%
X156733600Y-79873300D03*
X156733600Y-81748300D03*
%TD*%
D27*
%TO.C,H3*%
X117473600Y-75194800D03*
%TD*%
D32*
%TO.C,J5*%
X135596000Y-103459400D03*
D17*
X135596000Y-100919400D03*
X138136000Y-103459400D03*
X138136000Y-100919400D03*
X140676000Y-103459400D03*
X140676000Y-100919400D03*
%TD*%
D25*
%TO.C,R3*%
X154369100Y-81572800D03*
X152494100Y-81572800D03*
%TD*%
D33*
%TO.C,F1*%
X160230100Y-82910800D03*
X164505100Y-82910800D03*
%TD*%
D27*
%TO.C,H1*%
X171473600Y-102694800D03*
%TD*%
D18*
%TO.C,J4*%
X146365600Y-100944800D03*
D17*
X148905600Y-100944800D03*
X146365600Y-103484800D03*
X148905600Y-103484800D03*
%TD*%
D12*
%TO.C,R5*%
X139228200Y-87561300D03*
X139228200Y-89436300D03*
%TD*%
D23*
%TO.C,D2*%
X141793600Y-81582300D03*
X141793600Y-79707300D03*
%TD*%
D12*
%TO.C,R6*%
X141793600Y-74932100D03*
X141793600Y-76807100D03*
%TD*%
D34*
%TO.C,Y1*%
X155451400Y-75722600D03*
X151351400Y-75722600D03*
%TD*%
D12*
%TO.C,R7*%
X139253600Y-74932100D03*
X139253600Y-76807100D03*
%TD*%
D35*
%TO.C,U1*%
X151705600Y-87296800D03*
X150905600Y-87296800D03*
X150105600Y-87296800D03*
X149305600Y-87296800D03*
X148505600Y-87296800D03*
X147705600Y-87296800D03*
X146905600Y-87296800D03*
X146105600Y-87296800D03*
D36*
X144655600Y-88746800D03*
X144655600Y-89546800D03*
X144655600Y-90346800D03*
X144655600Y-91146800D03*
X144655600Y-91946800D03*
X144655600Y-92746800D03*
X144655600Y-93546800D03*
X144655600Y-94346800D03*
D35*
X146105600Y-95796800D03*
X146905600Y-95796800D03*
X147705600Y-95796800D03*
X148505600Y-95796800D03*
X149305600Y-95796800D03*
X150105600Y-95796800D03*
X150905600Y-95796800D03*
X151705600Y-95796800D03*
D36*
X153155600Y-94346800D03*
X153155600Y-93546800D03*
X153155600Y-92746800D03*
X153155600Y-91946800D03*
X153155600Y-91146800D03*
X153155600Y-90346800D03*
X153155600Y-89546800D03*
X153155600Y-88746800D03*
%TD*%
D37*
%TO.C,C1*%
X125309000Y-97339200D03*
X125309000Y-103839200D03*
%TD*%
D12*
%TO.C,C4*%
X150383600Y-79873300D03*
X150383600Y-81748300D03*
%TD*%
D26*
%TO.C,FID1*%
X163891600Y-76306800D03*
%TD*%
D23*
%TO.C,C6*%
X156855800Y-88699700D03*
X156855800Y-86824700D03*
%TD*%
D26*
%TO.C,FID4*%
X131684400Y-103865800D03*
%TD*%
%LPD*%
M02*
