%TF.GenerationSoftware,KiCad,Pcbnew,9.0.6+1*%
%TF.CreationDate,2025-12-10T16:40:17+00:00*%
%TF.ProjectId,KDT_Hierarchical_KiBot,4b44545f-4869-4657-9261-726368696361,+ (Unreleased)*%
%TF.SameCoordinates,Original*%
%TF.FileFunction,Paste,Top*%
%TF.FilePolarity,Positive*%
%FSLAX46Y46*%
G04 Gerber Fmt 4.6, Leading zero omitted, Abs format (unit mm)*
G04 Created by KiCad (PCBNEW 9.0.6+1) date 2025-12-10 16:40:17*
%MOMM*%
%LPD*%
G01*
G04 APERTURE LIST*
G04 Aperture macros list*
%AMRoundRect*
0 Rectangle with rounded corners*
0 $1 Rounding radius*
0 $2 $3 $4 $5 $6 $7 $8 $9 X,Y pos of 4 corners*
0 Add a 4 corners polygon primitive as box body*
4,1,4,$2,$3,$4,$5,$6,$7,$8,$9,$2,$3,0*
0 Add four circle primitives for the rounded corners*
1,1,$1+$1,$2,$3*
1,1,$1+$1,$4,$5*
1,1,$1+$1,$6,$7*
1,1,$1+$1,$8,$9*
0 Add four rect primitives between the rounded corners*
20,1,$1+$1,$2,$3,$4,$5,0*
20,1,$1+$1,$4,$5,$6,$7,0*
20,1,$1+$1,$6,$7,$8,$9,0*
20,1,$1+$1,$8,$9,$2,$3,0*%
G04 Aperture macros list end*
%ADD10RoundRect,0.243750X-0.456250X0.243750X-0.456250X-0.243750X0.456250X-0.243750X0.456250X0.243750X0*%
%ADD11R,2.000000X3.000000*%
%ADD12RoundRect,0.243750X0.456250X-0.243750X0.456250X0.243750X-0.456250X0.243750X-0.456250X-0.243750X0*%
%ADD13RoundRect,0.243750X-0.243750X-0.456250X0.243750X-0.456250X0.243750X0.456250X-0.243750X0.456250X0*%
%ADD14RoundRect,0.250000X0.625000X-0.375000X0.625000X0.375000X-0.625000X0.375000X-0.625000X-0.375000X0*%
%ADD15R,0.550000X1.600000*%
%ADD16R,1.600000X0.550000*%
%ADD17RoundRect,0.250000X-1.000000X1.500000X-1.000000X-1.500000X1.000000X-1.500000X1.000000X1.500000X0*%
G04 APERTURE END LIST*
D10*
%TO.C,C5*%
X157795600Y-93911300D03*
X157795600Y-95786300D03*
%TD*%
D11*
%TO.C,J1*%
X117573600Y-81394800D03*
X123573600Y-81394800D03*
X123573600Y-92394800D03*
X117573600Y-92394800D03*
%TD*%
D12*
%TO.C,C8*%
X139228200Y-85600900D03*
X139228200Y-83725900D03*
%TD*%
D13*
%TO.C,C2*%
X116536100Y-96594800D03*
X118411100Y-96594800D03*
%TD*%
D12*
%TO.C,D3*%
X139253600Y-81582300D03*
X139253600Y-79707300D03*
%TD*%
D13*
%TO.C,C7*%
X147510900Y-84561800D03*
X149385900Y-84561800D03*
%TD*%
D14*
%TO.C,D1*%
X157287600Y-103868800D03*
X157287600Y-101068800D03*
%TD*%
D12*
%TO.C,R4*%
X153477600Y-102390300D03*
X153477600Y-100515300D03*
%TD*%
D10*
%TO.C,R5*%
X139228200Y-87561300D03*
X139228200Y-89436300D03*
%TD*%
D12*
%TO.C,D2*%
X141793600Y-81582300D03*
X141793600Y-79707300D03*
%TD*%
D10*
%TO.C,R6*%
X141793600Y-74932100D03*
X141793600Y-76807100D03*
%TD*%
%TO.C,R7*%
X139253600Y-74932100D03*
X139253600Y-76807100D03*
%TD*%
D15*
%TO.C,U1*%
X151705600Y-87296800D03*
X150905600Y-87296800D03*
X150105600Y-87296800D03*
X149305600Y-87296800D03*
X148505600Y-87296800D03*
X147705600Y-87296800D03*
X146905600Y-87296800D03*
X146105600Y-87296800D03*
D16*
X144655600Y-88746800D03*
X144655600Y-89546800D03*
X144655600Y-90346800D03*
X144655600Y-91146800D03*
X144655600Y-91946800D03*
X144655600Y-92746800D03*
X144655600Y-93546800D03*
X144655600Y-94346800D03*
D15*
X146105600Y-95796800D03*
X146905600Y-95796800D03*
X147705600Y-95796800D03*
X148505600Y-95796800D03*
X149305600Y-95796800D03*
X150105600Y-95796800D03*
X150905600Y-95796800D03*
X151705600Y-95796800D03*
D16*
X153155600Y-94346800D03*
X153155600Y-93546800D03*
X153155600Y-92746800D03*
X153155600Y-91946800D03*
X153155600Y-91146800D03*
X153155600Y-90346800D03*
X153155600Y-89546800D03*
X153155600Y-88746800D03*
%TD*%
D17*
%TO.C,C1*%
X125309000Y-97339200D03*
X125309000Y-103839200D03*
%TD*%
D12*
%TO.C,C6*%
X156855800Y-88699700D03*
X156855800Y-86824700D03*
%TD*%
M02*
