%TF.GenerationSoftware,KiCad,Pcbnew,9.0.6+1*%
%TF.CreationDate,2025-12-12T13:26:27+00:00*%
%TF.ProjectId,KDT_Hierarchical_KiBot,4b44545f-4869-4657-9261-726368696361,0.1.1*%
%TF.SameCoordinates,Original*%
%TF.FileFunction,Copper,L5,Inr*%
%TF.FilePolarity,Positive*%
%FSLAX46Y46*%
G04 Gerber Fmt 4.6, Leading zero omitted, Abs format (unit mm)*
G04 Created by KiCad (PCBNEW 9.0.6+1) date 2025-12-12 13:26:27*
%MOMM*%
%LPD*%
G01*
G04 APERTURE LIST*
%TA.AperFunction,ComponentPad*%
%ADD10R,1.700000X1.700000*%
%TD*%
%TA.AperFunction,ComponentPad*%
%ADD11O,1.700000X1.700000*%
%TD*%
%TA.AperFunction,ComponentPad*%
%ADD12R,1.600000X1.600000*%
%TD*%
%TA.AperFunction,ComponentPad*%
%ADD13C,1.600000*%
%TD*%
%TA.AperFunction,ComponentPad*%
%ADD14C,4.000000*%
%TD*%
%TA.AperFunction,ViaPad*%
%ADD15C,0.800000*%
%TD*%
G04 APERTURE END LIST*
D10*
%TO.N,Net-(J3-Pin_1)*%
%TO.C,J3*%
X130773600Y-85194800D03*
D11*
%TO.N,Net-(J3-Pin_2)*%
X130773600Y-82654800D03*
%TO.N,Net-(J3-Pin_3)*%
X130773600Y-80114800D03*
%TO.N,Net-(J3-Pin_4)*%
X130773600Y-77574800D03*
%TO.N,Net-(J3-Pin_5)*%
X130773600Y-75034800D03*
%TD*%
D10*
%TO.N,Net-(J6-Pin_1)*%
%TO.C,J6*%
X135443600Y-82910800D03*
D11*
%TO.N,Net-(J6-Pin_2)*%
X135443600Y-85450800D03*
%TO.N,Net-(J6-Pin_3)*%
X135443600Y-87990800D03*
%TO.N,Net-(J6-Pin_4)*%
X135443600Y-90530800D03*
%TO.N,Net-(J6-Pin_5)*%
X135443600Y-93070800D03*
%TO.N,Net-(J6-Pin_6)*%
X135443600Y-95610800D03*
%TD*%
D12*
%TO.N,Net-(J2-VBUS)*%
%TO.C,J2*%
X167955600Y-87228800D03*
D13*
%TO.N,Net-(J2-D-)*%
X167955600Y-89728800D03*
%TO.N,Net-(J2-D+)*%
X169955600Y-89728800D03*
%TO.N,Earth*%
X169955600Y-87228800D03*
D14*
%TO.N,Net-(J2-Shield)*%
X172815600Y-82478800D03*
X172815600Y-94478800D03*
%TD*%
D10*
%TO.N,/MISO2*%
%TO.C,J5*%
X135596000Y-103459400D03*
D11*
%TO.N,+5V*%
X135596000Y-100919400D03*
%TO.N,/SCK2*%
X138136000Y-103459400D03*
%TO.N,/MOSI2*%
X138136000Y-100919400D03*
%TO.N,/RESET2*%
X140676000Y-103459400D03*
%TO.N,GND*%
X140676000Y-100919400D03*
%TD*%
D10*
%TO.N,Net-(J4-Pin_1)*%
%TO.C,J4*%
X146365600Y-100944800D03*
D11*
%TO.N,Net-(J4-Pin_2)*%
X148905600Y-100944800D03*
%TO.N,Net-(J4-Pin_3)*%
X146365600Y-103484800D03*
%TO.N,Net-(J4-Pin_4)*%
X148905600Y-103484800D03*
%TD*%
D15*
%TO.N,GND*%
X150150200Y-88752800D03*
X158303600Y-82453600D03*
X123556400Y-79075400D03*
X117562000Y-83825200D03*
X139304400Y-90759400D03*
X117587400Y-79024600D03*
X119822600Y-96601400D03*
X161732600Y-103637200D03*
X125283600Y-101046400D03*
X123581800Y-83647400D03*
X148829400Y-81488400D03*
%TO.N,Net-(J2-Shield)*%
X166863400Y-93832800D03*
X164933000Y-86111200D03*
X165034600Y-96372800D03*
%TO.N,+5V*%
X153655400Y-87660600D03*
X117612800Y-90099000D03*
X154315800Y-104297600D03*
X123581800Y-89997400D03*
X140498200Y-74935200D03*
X125309000Y-94594800D03*
X116038000Y-95026600D03*
X149007200Y-88981400D03*
%TO.N,Net-(U1-XTAL1)*%
X157236800Y-75697200D03*
%TO.N,Net-(U1-PC0{slash}XTAL2)*%
X149515200Y-75773400D03*
%TO.N,Earth*%
X155027000Y-91927800D03*
X155154000Y-86847800D03*
X161351600Y-94467800D03*
X161707200Y-99217600D03*
X159522800Y-96144200D03*
%TO.N,VBUS*%
X160208600Y-85857200D03*
%TO.N,Net-(J3-Pin_4)*%
X151369400Y-93248600D03*
%TO.N,Net-(J3-Pin_3)*%
X150632800Y-94086800D03*
%TO.N,Net-(J3-Pin_2)*%
X150759800Y-97388800D03*
%TO.N,Net-(J3-Pin_1)*%
X149540600Y-94290000D03*
%TO.N,Net-(J6-Pin_3)*%
X144613000Y-87584400D03*
%TO.N,Net-(J6-Pin_5)*%
X146543400Y-92918400D03*
%TO.N,Net-(J6-Pin_6)*%
X147153000Y-94010600D03*
%TO.N,Net-(J6-Pin_4)*%
X146162700Y-91546800D03*
%TO.N,Net-(J6-Pin_2)*%
X143068711Y-91084489D03*
%TO.N,Net-(U1-D-)*%
X150429600Y-91470602D03*
%TD*%
M02*
